<svg width="20" height="17" viewBox="0 0 20 17" fill="none" xmlns="http://www.w3.org/2000/svg">
<path d="M5.27511 9.29736C5.24089 9.93479 5.45971 10.5599 5.88398 11.0369C6.30825 11.5138 6.90366 11.804 7.54073 11.8442C8.17641 11.802 8.76984 11.511 9.19246 11.0343C9.61507 10.5576 9.83283 9.93352 9.79854 9.29736C9.83289 8.6604 9.61538 8.03549 9.19295 7.55752C8.77053 7.07955 8.17708 6.78687 7.54073 6.74268C6.90299 6.78491 6.30757 7.07674 5.88349 7.55493C5.45941 8.03311 5.24083 8.65914 5.27511 9.29736ZM8.23604 9.29736C8.23604 9.82861 7.91573 10.2817 7.54073 10.2817C7.16573 10.2817 6.83761 9.82861 6.83761 9.29736C6.83761 8.76611 7.15792 8.30518 7.54073 8.30518C7.92354 8.30518 8.23604 8.7583 8.23604 9.29736ZM12.6657 6.74268C12.0294 6.78687 11.4359 7.07955 11.0135 7.55752C10.5911 8.03549 10.3736 8.6604 10.4079 9.29736C10.3736 9.93352 10.5914 10.5576 11.014 11.0343C11.4366 11.511 12.0301 11.802 12.6657 11.8442C13.3028 11.804 13.8982 11.5138 14.3225 11.0369C14.7468 10.5599 14.9656 9.93479 14.9314 9.29736C14.9656 8.65914 14.7471 8.03311 14.323 7.55493C13.8989 7.07674 13.3035 6.78491 12.6657 6.74268ZM12.6657 10.2817C12.2907 10.2817 11.9704 9.82861 11.9704 9.29736C11.9704 8.76611 12.2907 8.30518 12.6657 8.30518C13.0407 8.30518 13.3689 8.7583 13.3689 9.29736C13.3689 9.83643 13.0485 10.2817 12.6657 10.2817Z" fill="#5566E5"/>
<path d="M18.4078 3.92109L18.3531 3.85077C18.3531 3.85077 18.3531 3.79609 18.3531 3.77265C16.997 2.1256 15.1255 0.983444 13.0406 0.530461C12.9396 0.501274 12.8338 0.492776 12.7294 0.505477C12.625 0.518178 12.5243 0.551816 12.4332 0.604376C12.3422 0.656936 12.2627 0.727337 12.1995 0.81136C12.1362 0.895383 12.0906 0.991301 12.0654 1.09337C12.0401 1.19543 12.0358 1.30154 12.0525 1.40534C12.0692 1.50915 12.1067 1.6085 12.1628 1.69746C12.2188 1.78642 12.2923 1.86315 12.3787 1.92305C12.4651 1.98296 12.5627 2.0248 12.6656 2.04609C14.3897 2.41571 15.9423 3.34725 17.0797 4.69452C18.1335 7.11294 18.6837 9.7206 18.6969 12.3586C17.6089 13.3734 16.2536 14.0564 14.7906 14.3273V13.9914C14.7906 13.9914 14.7906 13.9523 14.7906 13.9289C15.7538 13.5553 16.6567 13.042 17.4703 12.4055C17.633 12.276 17.7375 12.0872 17.761 11.8806C17.7844 11.674 17.7248 11.4665 17.5953 11.3039C17.4658 11.1412 17.277 11.0367 17.0704 11.0133C16.8639 10.9898 16.6564 11.0494 16.4938 11.1789C14.6599 12.5696 12.4034 13.2868 10.1032 13.2101C7.8215 13.2742 5.58631 12.5576 3.76721 11.1789C3.68668 11.1148 3.5943 11.0671 3.49535 11.0387C3.39641 11.0103 3.29283 11.0016 3.19054 11.0133C2.98396 11.0367 2.79515 11.1412 2.66565 11.3039C2.53615 11.4665 2.47657 11.674 2.50001 11.8806C2.52345 12.0872 2.628 12.276 2.79065 12.4055C3.59876 13.0418 4.49648 13.5551 5.45471 13.9289V14.3273C3.99173 14.0564 2.63651 13.3734 1.54846 12.3586C1.56658 9.71952 2.12215 7.11181 3.18128 4.69452C4.31874 3.34725 5.87129 2.41571 7.59534 2.04609C7.78936 1.99002 7.95414 1.861 8.0551 1.68608C8.15606 1.51117 8.18536 1.30395 8.13685 1.1079C8.08834 0.91185 7.9658 0.742202 7.79492 0.634544C7.62405 0.526886 7.41812 0.489583 7.22034 0.530461C5.13546 0.983444 3.26398 2.1256 1.90784 3.77265C1.90784 3.77265 1.90784 3.82734 1.90784 3.85077L1.85315 3.92109C0.337527 7.04609 0.165652 9.89765 0.00158937 12.6242C-0.00547635 12.7348 0.0110715 12.8457 0.0501338 12.9494C0.0891962 13.0531 0.149879 13.1473 0.228152 13.2258C1.81598 14.8441 3.93647 15.8322 6.1969 16.007C6.40185 16.0062 6.59826 15.9248 6.74378 15.7805C6.81759 15.7081 6.87632 15.6218 6.91655 15.5266C6.95678 15.4314 6.97772 15.3291 6.97815 15.2258V14.4445C9.03373 14.9254 11.1726 14.9254 13.2281 14.4445V15.2258C13.2286 15.3291 13.2495 15.4314 13.2897 15.5266C13.33 15.6218 13.3887 15.7081 13.4625 15.7805C13.608 15.9248 13.8044 16.0062 14.0094 16.007C16.2921 15.8612 18.4427 14.8859 20.0563 13.2648C20.1345 13.1864 20.1952 13.0922 20.2343 12.9884C20.2734 12.8847 20.2899 12.7739 20.2828 12.6633C20.0953 9.89765 19.9235 7.07734 18.4078 3.92109Z" fill="#5566E5"/>
<path d="M15.9548 4.85202C16.0022 4.76075 16.0311 4.66102 16.0399 4.55855C16.0486 4.45609 16.0371 4.3529 16.0059 4.25492C15.9747 4.15693 15.9244 4.06607 15.858 3.98754C15.7916 3.90902 15.7103 3.84438 15.6189 3.79733C13.8985 2.97728 12.0085 2.57573 10.1033 2.62545C8.19804 2.57573 6.30807 2.97728 4.58764 3.79733C4.4962 3.84438 4.41494 3.90902 4.34853 3.98754C4.28213 4.06607 4.23188 4.15693 4.20067 4.25492C4.16946 4.3529 4.1579 4.45609 4.16666 4.55855C4.17541 4.66102 4.20432 4.76075 4.2517 4.85202C4.34809 5.03535 4.51334 5.1729 4.71112 5.23443C4.90889 5.29596 5.12301 5.27643 5.30639 5.18014C6.80579 4.47893 8.44873 4.1391 10.1033 4.18795C11.7578 4.1391 13.4007 4.47893 14.9001 5.18014C15.0107 5.23982 15.1339 5.27198 15.2595 5.27389C15.403 5.27419 15.5437 5.23498 15.6664 5.16056C15.789 5.08615 15.8888 4.9794 15.9548 4.85202Z" fill="#5566E5"/>
</svg>
