<svg width="151" height="132" viewBox="0 0 151 132" fill="none" xmlns="http://www.w3.org/2000/svg">
<g clip-path="url(#clip0)">
<path d="M90.3225 87.6465V98.2665C90.1341 102.764 76.3783 106.325 59.6075 106.263C43.8417 106.2 30.9652 102.952 29.709 98.8287V87.6465H90.3225Z" fill="#0F5454"/>
<path d="M90.3232 98.1416V98.2665C90.1347 102.764 76.3789 106.325 59.6081 106.263C43.8423 106.2 30.9658 102.952 29.7096 98.8288C29.6468 98.5789 29.584 98.329 29.584 98.0791C29.584 97.8917 29.6468 97.7043 29.7096 97.4544C31.0287 93.2689 44.282 90.0204 60.299 90.0829C76.9442 90.0829 90.3232 93.7062 90.3232 98.1416Z" fill="#0F5454"/>
<path d="M90.3232 98.1416V98.2665C90.1347 102.764 76.3789 106.325 59.6081 106.263C43.8423 106.2 30.9658 102.952 29.7096 98.8288C29.6468 98.5789 29.584 98.329 29.584 98.0791C29.584 97.8917 29.6468 97.7043 29.7096 97.4544C31.0287 93.2689 44.282 90.0204 60.299 90.0829C76.9442 90.0829 90.3232 93.7062 90.3232 98.1416Z" fill="#0F5454"/>
<path d="M59.9851 95.7677C76.5669 95.7677 90.0092 92.1317 90.0092 87.6465C90.0092 83.1614 76.5669 79.5254 59.9851 79.5254C43.4032 79.5254 29.9609 83.1614 29.9609 87.6465C29.9609 92.1317 43.4032 95.7677 59.9851 95.7677Z" fill="#00757A"/>
<path d="M59.9851 95.7677C76.5669 95.7677 90.0092 92.1317 90.0092 87.6465C90.0092 83.1614 76.5669 79.5254 59.9851 79.5254C43.4032 79.5254 29.9609 83.1614 29.9609 87.6465C29.9609 92.1317 43.4032 95.7677 59.9851 95.7677Z" fill="#00757A"/>
<path d="M59.9856 93.8935C72.7169 93.8935 83.0376 91.0966 83.0376 87.6465C83.0376 84.1963 72.7169 81.3994 59.9856 81.3994C47.2543 81.3994 36.9336 84.1963 36.9336 87.6465C36.9336 91.0966 47.2543 93.8935 59.9856 93.8935Z" fill="#073837"/>
<path d="M59.9856 93.8935C72.7169 93.8935 83.0376 91.0966 83.0376 87.6465C83.0376 84.1963 72.7169 81.3994 59.9856 81.3994C47.2543 81.3994 36.9336 84.1963 36.9336 87.6465C36.9336 91.0966 47.2543 93.8935 59.9856 93.8935Z" fill="#073837"/>
<path d="M59.985 93.394C71.7796 93.394 81.3411 90.8208 81.3411 87.6467C81.3411 84.4726 71.7796 81.8994 59.985 81.8994C48.1903 81.8994 38.6289 84.4726 38.6289 87.6467C38.6289 90.8208 48.1903 93.394 59.985 93.394Z" fill="#0A5959"/>
<path d="M59.985 93.394C71.7796 93.394 81.3411 90.8208 81.3411 87.6467C81.3411 84.4726 71.7796 81.8994 59.985 81.8994C48.1903 81.8994 38.6289 84.4726 38.6289 87.6467C38.6289 90.8208 48.1903 93.394 59.985 93.394Z" fill="#0A5959"/>
<path d="M71.1666 95.2677C67.5864 95.6426 63.692 95.83 59.6092 95.83C51.5065 95.83 43.969 94.9554 38.316 93.3936C32.6629 91.8319 29.5851 89.7704 29.7107 87.5839C29.8992 83.086 43.655 79.4627 60.363 79.5252C77.071 79.5877 90.5127 83.2734 90.2615 87.7713C90.1358 91.1447 82.2844 94.0808 71.1666 95.2677ZM49.0568 80.2124C38.1903 81.3993 30.4645 84.2105 30.3389 87.5839C30.2132 89.7079 33.2282 91.7694 38.7557 93.2687C44.2831 94.8305 51.6949 95.6426 59.672 95.705C76.066 95.7675 89.5705 92.2067 89.759 87.7713C89.9474 83.3359 76.8197 79.7126 60.4258 79.6501C56.4058 79.6501 52.5743 79.8376 49.0568 80.2124Z" fill="url(#paint0_linear)"/>
<path d="M71.1666 95.2677C67.5864 95.6426 63.692 95.83 59.6092 95.83C51.5065 95.83 43.969 94.9554 38.316 93.3936C32.6629 91.8319 29.5851 89.7704 29.7107 87.5839C29.8992 83.086 43.655 79.4627 60.363 79.5252C77.071 79.5877 90.5127 83.2734 90.2615 87.7713C90.1358 91.1447 82.2844 94.0808 71.1666 95.2677ZM49.0568 80.2124C38.1903 81.3993 30.4645 84.2105 30.3389 87.5839C30.2132 89.7079 33.2282 91.7694 38.7557 93.2687C44.2831 94.8305 51.6949 95.6426 59.672 95.705C76.066 95.7675 89.5705 92.2067 89.759 87.7713C89.9474 83.3359 76.8197 79.7126 60.4258 79.6501C56.4058 79.6501 52.5743 79.8376 49.0568 80.2124Z" fill="url(#paint1_linear)"/>
<path d="M65.1983 84.2734H65.1355H65.0727C65.0727 84.2734 65.0727 84.2734 65.0098 84.2734C65.0098 84.2734 65.0098 84.2734 64.947 84.2734H64.8842C64.8214 84.2734 64.7586 84.2734 64.6958 84.2734L49.8722 84.2109C48.4903 84.2109 47.2969 84.5233 47.2969 84.8981C47.2969 85.2729 48.4275 85.5853 49.8094 85.5853L64.633 85.6478C64.6958 85.6478 64.7586 85.6478 64.8214 85.6478C64.8842 85.6478 64.947 85.6478 65.0098 85.6478C67.8364 85.6478 70.0976 86.2725 70.0348 87.0221C69.972 87.7718 67.7108 88.3965 64.8842 88.3965H59.7965V87.7093H64.8842C66.2661 87.7093 67.4595 87.3969 67.4595 87.0221C67.4595 86.6473 66.3289 86.3349 64.947 86.3349L53.0756 86.2725C51.6937 86.2725 50.5003 86.5848 50.5003 86.9596C50.5003 87.3345 51.6309 87.6468 53.0128 87.6468H54.7087V88.334L54.6459 89.7083L54.5831 91.3326C54.5831 91.7074 55.7137 92.0197 57.0955 92.0197C58.4774 92.0197 59.6708 91.7074 59.6708 91.3326L59.7336 89.7083H64.8214C70.4745 89.7083 75.0598 88.5214 75.1226 87.0221C75.2482 85.5853 70.7886 84.3359 65.1983 84.2734Z" fill="#073837"/>
<path d="M64.1299 84.0234H64.0671H64.0043C64.0043 84.0234 64.0043 84.0234 63.9415 84.0234C63.9415 84.0234 63.9415 84.0234 63.8787 84.0234H63.8159C63.7531 84.0234 63.6903 84.0234 63.6274 84.0234L48.8038 83.9609C47.4219 83.9609 46.2285 84.2733 46.2285 84.6481C46.2285 85.0229 47.3591 85.3353 48.741 85.3353L63.5646 85.3978C63.6274 85.3978 63.6902 85.3978 63.7531 85.3978C63.8159 85.3978 63.8787 85.3978 63.9415 85.3978C66.768 85.3978 69.0293 86.0225 68.9665 86.7721C68.9036 87.5218 66.6424 88.1465 63.8159 88.1465H58.7281V87.4593H63.8159C65.1977 87.4593 66.3912 87.1469 66.3912 86.7721C66.3912 86.3973 65.2605 86.0849 63.8787 86.0849L52.1328 86.0225C50.751 86.0225 49.5576 86.3348 49.5576 86.7096C49.5576 87.0845 50.6882 87.3968 52.07 87.3968H53.766V88.084L53.7031 89.4583L53.6403 91.0826C53.6403 91.4574 54.7709 91.7697 56.1528 91.7697C57.5347 91.7697 58.7281 91.4574 58.7281 91.0826L58.7909 89.4583H63.8787C69.5318 89.4583 74.117 88.2714 74.1798 86.7721C74.2427 85.2728 69.783 84.0234 64.1299 84.0234Z" fill="url(#paint2_linear)"/>
<path d="M90.3225 74.2773V84.8973C90.1341 89.3952 76.3783 92.956 59.6075 92.8935C43.8417 92.8311 30.9652 89.5826 29.709 85.4596V74.2773H90.3225Z" fill="#0F5454"/>
<path d="M90.3232 84.7725V84.8974C90.1347 89.3953 76.3789 92.9561 59.6081 92.8936C43.8423 92.8311 30.9658 89.5827 29.7096 85.4596C29.6468 85.2098 29.584 84.9599 29.584 84.71C29.584 84.5226 29.6468 84.3352 29.7096 84.0853C31.0287 79.8998 44.282 76.6513 60.299 76.7138C76.9442 76.7138 90.3232 80.3371 90.3232 84.7725Z" fill="#0F5454"/>
<path d="M90.3232 84.7725V84.8974C90.1347 89.3953 76.3789 92.9561 59.6081 92.8936C43.8423 92.8311 30.9658 89.5827 29.7096 85.4596C29.6468 85.2098 29.584 84.9599 29.584 84.71C29.584 84.5226 29.6468 84.3352 29.7096 84.0853C31.0287 79.8998 44.282 76.6513 60.299 76.7138C76.9442 76.7138 90.3232 80.3371 90.3232 84.7725Z" fill="#0F5454"/>
<path d="M59.9851 82.3986C76.5669 82.3986 90.0092 78.7626 90.0092 74.2774C90.0092 69.7922 76.5669 66.1562 59.9851 66.1562C43.4032 66.1562 29.9609 69.7922 29.9609 74.2774C29.9609 78.7626 43.4032 82.3986 59.9851 82.3986Z" fill="#00757A"/>
<path d="M59.9851 82.3986C76.5669 82.3986 90.0092 78.7626 90.0092 74.2774C90.0092 69.7922 76.5669 66.1562 59.9851 66.1562C43.4032 66.1562 29.9609 69.7922 29.9609 74.2774C29.9609 78.7626 43.4032 82.3986 59.9851 82.3986Z" fill="#00757A"/>
<path d="M59.9856 80.5243C72.7169 80.5243 83.0376 77.7275 83.0376 74.2773C83.0376 70.8272 72.7169 68.0303 59.9856 68.0303C47.2543 68.0303 36.9336 70.8272 36.9336 74.2773C36.9336 77.7275 47.2543 80.5243 59.9856 80.5243Z" fill="#073837"/>
<path d="M59.9856 80.5243C72.7169 80.5243 83.0376 77.7275 83.0376 74.2773C83.0376 70.8272 72.7169 68.0303 59.9856 68.0303C47.2543 68.0303 36.9336 70.8272 36.9336 74.2773C36.9336 77.7275 47.2543 80.5243 59.9856 80.5243Z" fill="#073837"/>
<path d="M59.985 80.0248C71.7796 80.0248 81.3411 77.4517 81.3411 74.2776C81.3411 71.1034 71.7796 68.5303 59.985 68.5303C48.1903 68.5303 38.6289 71.1034 38.6289 74.2776C38.6289 77.4517 48.1903 80.0248 59.985 80.0248Z" fill="#0A5959"/>
<path d="M59.985 80.0248C71.7796 80.0248 81.3411 77.4517 81.3411 74.2776C81.3411 71.1034 71.7796 68.5303 59.985 68.5303C48.1903 68.5303 38.6289 71.1034 38.6289 74.2776C38.6289 77.4517 48.1903 80.0248 59.985 80.0248Z" fill="#0A5959"/>
<path d="M71.1666 81.8986C67.5864 82.2734 63.692 82.4608 59.6092 82.4608C51.5065 82.4608 43.969 81.5863 38.316 80.0245C32.6629 78.4627 29.5851 76.4012 29.7107 74.2148C29.8992 69.7169 43.655 66.0936 60.363 66.1561C77.071 66.2185 90.5127 69.9043 90.2615 74.4022C90.1358 77.7756 82.2844 80.7117 71.1666 81.8986ZM49.0568 66.8432C38.1903 68.0302 30.4645 70.8414 30.3389 74.2148C30.2132 76.3387 33.2282 78.4003 38.7557 79.8996C44.2831 81.4613 51.6949 82.2734 59.672 82.3359C76.066 82.3984 89.5705 78.8376 89.759 74.4022C89.9474 69.9668 76.8197 66.3435 60.4258 66.281C56.4058 66.2185 52.5743 66.4684 49.0568 66.8432Z" fill="url(#paint3_linear)"/>
<path d="M71.1666 81.8986C67.5864 82.2734 63.692 82.4608 59.6092 82.4608C51.5065 82.4608 43.969 81.5863 38.316 80.0245C32.6629 78.4627 29.5851 76.4012 29.7107 74.2148C29.8992 69.7169 43.655 66.0936 60.363 66.1561C77.071 66.2185 90.5127 69.9043 90.2615 74.4022C90.1358 77.7756 82.2844 80.7117 71.1666 81.8986ZM49.0568 66.8432C38.1903 68.0302 30.4645 70.8414 30.3389 74.2148C30.2132 76.3387 33.2282 78.4003 38.7557 79.8996C44.2831 81.4613 51.6949 82.2734 59.672 82.3359C76.066 82.3984 89.5705 78.8376 89.759 74.4022C89.9474 69.9668 76.8197 66.3435 60.4258 66.281C56.4058 66.2185 52.5743 66.4684 49.0568 66.8432Z" fill="url(#paint4_linear)"/>
<path d="M65.1983 70.9043H65.1355H65.0727C65.0727 70.9043 65.0727 70.9043 65.0098 70.9043C65.0098 70.9043 65.0098 70.9043 64.947 70.9043H64.8842C64.8214 70.9043 64.7586 70.9043 64.6958 70.9043L49.8722 70.8418C48.4903 70.8418 47.2969 71.1541 47.2969 71.529C47.2969 71.9038 48.4275 72.2161 49.8094 72.2161L64.633 72.2786C64.6958 72.2786 64.7586 72.2786 64.8214 72.2786C64.8842 72.2786 64.947 72.2786 65.0098 72.2786C67.8364 72.2786 70.0976 72.9033 70.0348 73.653C69.972 74.4026 67.7108 75.0273 64.8842 75.0273H59.7965V74.3401H64.8842C66.2661 74.3401 67.4595 74.0278 67.4595 73.653C67.4595 73.2781 66.3289 72.9658 64.947 72.9658L53.0756 72.9033C51.6937 72.9033 50.5003 73.2157 50.5003 73.5905C50.5003 73.9653 51.6309 74.2777 53.0128 74.2777H54.7087V74.9648L54.6459 76.3392L54.5831 77.9634C54.5831 78.3382 55.7137 78.6506 57.0955 78.6506C58.4774 78.6506 59.6708 78.3382 59.6708 77.9634L59.7336 76.3392H64.8214C70.4745 76.3392 75.0598 75.1522 75.1226 73.653C75.2482 72.2161 70.7886 70.9667 65.1983 70.9043Z" fill="#073837"/>
<path d="M64.1299 70.6543H64.0671H64.0043C64.0043 70.6543 64.0043 70.6543 63.9415 70.6543C63.9415 70.6543 63.9415 70.6543 63.8787 70.6543H63.8159C63.7531 70.6543 63.6903 70.6543 63.6274 70.6543L48.8038 70.5918C47.4219 70.5918 46.2285 70.9041 46.2285 71.279C46.2285 71.6538 47.3591 71.9661 48.741 71.9661L63.5646 72.0286C63.6274 72.0286 63.6902 72.0286 63.7531 72.0286C63.8159 72.0286 63.8787 72.0286 63.9415 72.0286C66.768 72.0286 69.0293 72.6533 68.9665 73.403C68.9036 74.1526 66.6424 74.7773 63.8159 74.7773H58.7281V74.0901H63.8159C65.1977 74.0901 66.3912 73.7778 66.3912 73.403C66.3912 73.0281 65.2605 72.7158 63.8787 72.7158L52.1328 72.6533C50.751 72.6533 49.5576 72.9657 49.5576 73.3405C49.5576 73.7153 50.6882 74.0277 52.07 74.0277H53.766V74.7148L53.7031 76.0892L53.6403 77.7134C53.6403 78.0882 54.7709 78.4006 56.1528 78.4006C57.5347 78.4006 58.7281 78.0882 58.7281 77.7134L58.7909 76.0892H63.8787C69.5318 76.0892 74.117 74.9023 74.1798 73.403C74.2427 71.9037 69.783 70.6543 64.1299 70.6543Z" fill="url(#paint5_linear)"/>
<path d="M90.3225 61.0332V71.6532C90.1341 76.1511 76.3783 79.7119 59.6075 79.6494C43.8417 79.5869 30.9652 76.3385 29.709 72.2154V61.0332H90.3225Z" fill="#0F5454"/>
<path d="M90.3232 71.5283V71.6533C90.1347 76.1511 76.3789 79.7119 59.6081 79.6495C43.8423 79.587 30.9658 76.3385 29.7096 72.2155C29.6468 71.9656 29.584 71.7157 29.584 71.4658C29.584 71.2784 29.6468 71.091 29.7096 70.8411C31.0287 66.6556 44.282 63.4072 60.299 63.4696C76.9442 63.5321 90.3232 67.0929 90.3232 71.5283Z" fill="#0F5454"/>
<path d="M90.3232 71.5283V71.6533C90.1347 76.1511 76.3789 79.7119 59.6081 79.6495C43.8423 79.587 30.9658 76.3385 29.7096 72.2155C29.6468 71.9656 29.584 71.7157 29.584 71.4658C29.584 71.2784 29.6468 71.091 29.7096 70.8411C31.0287 66.6556 44.282 63.4072 60.299 63.4696C76.9442 63.5321 90.3232 67.0929 90.3232 71.5283Z" fill="#0F5454"/>
<path d="M59.9851 69.1544C76.5669 69.1544 90.0092 65.5185 90.0092 61.0333C90.0092 56.5481 76.5669 52.9121 59.9851 52.9121C43.4032 52.9121 29.9609 56.5481 29.9609 61.0333C29.9609 65.5185 43.4032 69.1544 59.9851 69.1544Z" fill="#00757A"/>
<path d="M59.9851 69.1544C76.5669 69.1544 90.0092 65.5185 90.0092 61.0333C90.0092 56.5481 76.5669 52.9121 59.9851 52.9121C43.4032 52.9121 29.9609 56.5481 29.9609 61.0333C29.9609 65.5185 43.4032 69.1544 59.9851 69.1544Z" fill="#00757A"/>
<path d="M59.9856 67.2802C72.7169 67.2802 83.0376 64.4833 83.0376 61.0332C83.0376 57.583 72.7169 54.7861 59.9856 54.7861C47.2543 54.7861 36.9336 57.583 36.9336 61.0332C36.9336 64.4833 47.2543 67.2802 59.9856 67.2802Z" fill="#073837"/>
<path d="M59.9856 67.2802C72.7169 67.2802 83.0376 64.4833 83.0376 61.0332C83.0376 57.583 72.7169 54.7861 59.9856 54.7861C47.2543 54.7861 36.9336 57.583 36.9336 61.0332C36.9336 64.4833 47.2543 67.2802 59.9856 67.2802Z" fill="#073837"/>
<path d="M59.985 66.7807C71.7796 66.7807 81.3411 64.2075 81.3411 61.0334C81.3411 57.8593 71.7796 55.2861 59.985 55.2861C48.1903 55.2861 38.6289 57.8593 38.6289 61.0334C38.6289 64.2075 48.1903 66.7807 59.985 66.7807Z" fill="#0A5959"/>
<path d="M59.985 66.7807C71.7796 66.7807 81.3411 64.2075 81.3411 61.0334C81.3411 57.8593 71.7796 55.2861 59.985 55.2861C48.1903 55.2861 38.6289 57.8593 38.6289 61.0334C38.6289 64.2075 48.1903 66.7807 59.985 66.7807Z" fill="#0A5959"/>
<path d="M71.1666 68.6545C67.5864 69.0293 63.692 69.2167 59.6092 69.2167C51.5065 69.2167 43.969 68.3421 38.316 66.7804C32.6629 65.2186 29.5851 63.1571 29.7107 60.9706C29.8992 56.4727 43.655 52.8495 60.363 52.9119C77.071 52.9744 90.5127 56.6602 90.2615 61.158C90.1358 64.5939 82.2844 67.4675 71.1666 68.6545ZM49.0568 53.5991C38.1903 54.786 30.4645 57.5972 30.3389 60.9706C30.2132 63.0946 33.2282 65.1561 38.7557 66.6554C44.2831 68.1547 51.6949 69.0293 59.672 69.0918C76.066 69.1542 89.5705 65.5934 89.759 61.158C89.9474 56.7226 76.8197 53.0993 60.4258 53.0369C56.4058 53.0369 52.5743 53.2243 49.0568 53.5991Z" fill="url(#paint6_linear)"/>
<path d="M71.1666 68.6545C67.5864 69.0293 63.692 69.2167 59.6092 69.2167C51.5065 69.2167 43.969 68.3421 38.316 66.7804C32.6629 65.2186 29.5851 63.1571 29.7107 60.9706C29.8992 56.4727 43.655 52.8495 60.363 52.9119C77.071 52.9744 90.5127 56.6602 90.2615 61.158C90.1358 64.5939 82.2844 67.4675 71.1666 68.6545ZM49.0568 53.5991C38.1903 54.786 30.4645 57.5972 30.3389 60.9706C30.2132 63.0946 33.2282 65.1561 38.7557 66.6554C44.2831 68.1547 51.6949 69.0293 59.672 69.0918C76.066 69.1542 89.5705 65.5934 89.759 61.158C89.9474 56.7226 76.8197 53.0993 60.4258 53.0369C56.4058 53.0369 52.5743 53.2243 49.0568 53.5991Z" fill="url(#paint7_linear)"/>
<path d="M65.1983 57.7216H65.1355H65.0727C65.0727 57.7216 65.0727 57.7216 65.0098 57.7216C65.0098 57.7216 65.0098 57.7216 64.947 57.7216H64.8842C64.8214 57.7216 64.7586 57.7216 64.6958 57.7216L49.8722 57.6592C48.4903 57.6592 47.2969 57.9715 47.2969 58.3464C47.2969 58.7212 48.4275 59.0335 49.8094 59.0335L64.633 59.096C64.6958 59.096 64.7586 59.096 64.8214 59.096C64.8842 59.096 64.947 59.096 65.0098 59.096C67.8364 59.096 70.0976 59.7207 70.0348 60.4704C69.972 61.22 67.7108 61.8447 64.8842 61.8447H59.7965V61.1575H64.8842C66.2661 61.1575 67.4595 60.8452 67.4595 60.4704C67.4595 60.0955 66.3289 59.7832 64.947 59.7832L53.0756 59.7207C51.6937 59.7207 50.5003 60.0331 50.5003 60.4079C50.5003 60.7827 51.6309 61.0951 53.0128 61.0951H54.7087V61.7822L54.6459 63.1566L54.5831 64.7808C54.5831 65.1556 55.7137 65.468 57.0955 65.468C58.4774 65.468 59.6708 65.1556 59.6708 64.7808L59.7336 63.1566H64.8214C70.4745 63.1566 75.0598 61.9696 75.1226 60.4704C75.2482 58.9711 70.7886 57.7216 65.1983 57.7216Z" fill="#073837"/>
<path d="M64.1299 57.4101H64.0671H64.0043C64.0043 57.4101 64.0043 57.4101 63.9415 57.4101C63.9415 57.4101 63.9415 57.4101 63.8787 57.4101H63.8159C63.7531 57.4101 63.6903 57.4101 63.6274 57.4101L48.8038 57.3477C47.4219 57.3477 46.2285 57.66 46.2285 58.0348C46.2285 58.4097 47.3591 58.722 48.741 58.722L63.5646 58.7845C63.6274 58.7845 63.6902 58.7845 63.7531 58.7845C63.8159 58.7845 63.8787 58.7845 63.9415 58.7845C66.768 58.7845 69.0293 59.4092 68.9665 60.1588C68.9036 60.9085 66.6424 61.5332 63.8159 61.5332H58.7281V60.846H63.8159C65.1977 60.846 66.3912 60.5336 66.3912 60.1588C66.3912 59.784 65.2605 59.4716 63.8787 59.4716L52.1328 59.4092C50.751 59.4092 49.5576 59.7215 49.5576 60.0963C49.5576 60.4712 50.6882 60.7835 52.07 60.7835H53.766V61.4707L53.7031 62.845L53.6403 64.4693C53.6403 64.8441 54.7709 65.1565 56.1528 65.1565C57.5347 65.1565 58.7281 64.8441 58.7281 64.4693L58.7909 62.845H63.8787C69.5318 62.845 74.117 61.6581 74.1798 60.1588C74.2427 58.6595 69.783 57.4101 64.1299 57.4101Z" fill="url(#paint8_linear)"/>
<path d="M90.3225 47.8525V58.4725C90.1341 62.9704 76.3783 66.5312 59.6075 66.4687C43.8417 66.4063 30.9652 63.1578 29.709 59.0347V47.8525H90.3225Z" fill="#0F5454"/>
<path d="M90.3232 58.3477V58.4726C90.1347 62.9705 76.3789 66.5313 59.6081 66.4688C43.8423 66.4063 30.9658 63.1579 29.7096 59.0348C29.6468 58.7849 29.584 58.5351 29.584 58.2852C29.584 58.0978 29.6468 57.9104 29.7096 57.6605C31.0287 53.475 44.282 50.2265 60.299 50.289C76.9442 50.289 90.3232 53.9123 90.3232 58.3477Z" fill="#0F5454"/>
<path d="M90.3232 58.3477V58.4726C90.1347 62.9705 76.3789 66.5313 59.6081 66.4688C43.8423 66.4063 30.9658 63.1579 29.7096 59.0348C29.6468 58.7849 29.584 58.5351 29.584 58.2852C29.584 58.0978 29.6468 57.9104 29.7096 57.6605C31.0287 53.475 44.282 50.2265 60.299 50.289C76.9442 50.289 90.3232 53.9123 90.3232 58.3477Z" fill="#0F5454"/>
<path d="M59.9851 55.9738C76.5669 55.9738 90.0092 52.3378 90.0092 47.8526C90.0092 43.3674 76.5669 39.7314 59.9851 39.7314C43.4032 39.7314 29.9609 43.3674 29.9609 47.8526C29.9609 52.3378 43.4032 55.9738 59.9851 55.9738Z" fill="#00757A"/>
<path d="M59.9851 55.9738C76.5669 55.9738 90.0092 52.3378 90.0092 47.8526C90.0092 43.3674 76.5669 39.7314 59.9851 39.7314C43.4032 39.7314 29.9609 43.3674 29.9609 47.8526C29.9609 52.3378 43.4032 55.9738 59.9851 55.9738Z" fill="#00757A"/>
<path d="M59.9856 54.0996C72.7169 54.0996 83.0376 51.3027 83.0376 47.8525C83.0376 44.4024 72.7169 41.6055 59.9856 41.6055C47.2543 41.6055 36.9336 44.4024 36.9336 47.8525C36.9336 51.3027 47.2543 54.0996 59.9856 54.0996Z" fill="#073837"/>
<path d="M59.9856 54.0996C72.7169 54.0996 83.0376 51.3027 83.0376 47.8525C83.0376 44.4024 72.7169 41.6055 59.9856 41.6055C47.2543 41.6055 36.9336 44.4024 36.9336 47.8525C36.9336 51.3027 47.2543 54.0996 59.9856 54.0996Z" fill="#073837"/>
<path d="M59.985 53.6C71.7796 53.6 81.3411 51.0269 81.3411 47.8527C81.3411 44.6786 71.7796 42.1055 59.985 42.1055C48.1903 42.1055 38.6289 44.6786 38.6289 47.8527C38.6289 51.0269 48.1903 53.6 59.985 53.6Z" fill="#0A5959"/>
<path d="M59.985 53.6C71.7796 53.6 81.3411 51.0269 81.3411 47.8527C81.3411 44.6786 71.7796 42.1055 59.985 42.1055C48.1903 42.1055 38.6289 44.6786 38.6289 47.8527C38.6289 51.0269 48.1903 53.6 59.985 53.6Z" fill="#0A5959"/>
<path d="M71.1666 55.4113C67.5864 55.7861 63.692 55.9735 59.6092 55.9735C51.5065 55.9735 43.969 55.099 38.316 53.5372C32.6629 51.9754 29.5851 49.9139 29.7107 47.7274C29.8992 43.2296 43.655 39.6063 60.363 39.6688C77.071 39.7312 90.5127 43.417 90.2615 47.9149C90.1358 51.3507 82.2844 54.2244 71.1666 55.4113ZM49.0568 40.3559C38.1903 41.5429 30.4645 44.354 30.3389 47.7274C30.2132 49.8514 33.2282 51.913 38.7557 53.4123C44.2831 54.9115 51.6949 55.7861 59.672 55.8486C76.066 55.9111 89.5705 52.3503 89.759 47.9149C89.9474 43.4795 76.8197 39.8562 60.4258 39.7937C56.4058 39.7937 52.5743 39.9811 49.0568 40.3559Z" fill="url(#paint9_linear)"/>
<path d="M71.1666 55.4113C67.5864 55.7861 63.692 55.9735 59.6092 55.9735C51.5065 55.9735 43.969 55.099 38.316 53.5372C32.6629 51.9754 29.5851 49.9139 29.7107 47.7274C29.8992 43.2296 43.655 39.6063 60.363 39.6688C77.071 39.7312 90.5127 43.417 90.2615 47.9149C90.1358 51.3507 82.2844 54.2244 71.1666 55.4113ZM49.0568 40.3559C38.1903 41.5429 30.4645 44.354 30.3389 47.7274C30.2132 49.8514 33.2282 51.913 38.7557 53.4123C44.2831 54.9115 51.6949 55.7861 59.672 55.8486C76.066 55.9111 89.5705 52.3503 89.759 47.9149C89.9474 43.4795 76.8197 39.8562 60.4258 39.7937C56.4058 39.7937 52.5743 39.9811 49.0568 40.3559Z" fill="url(#paint10_linear)"/>
<path d="M65.1983 44.4785H65.1355H65.0727C65.0727 44.4785 65.0727 44.4785 65.0098 44.4785C65.0098 44.4785 65.0098 44.4785 64.947 44.4785H64.8842C64.8214 44.4785 64.7586 44.4785 64.6958 44.4785L49.8722 44.416C48.4903 44.416 47.2969 44.7284 47.2969 45.1032C47.2969 45.478 48.4275 45.7904 49.8094 45.7904L64.633 45.8528C64.6958 45.8528 64.7586 45.8528 64.8214 45.8528C64.8842 45.8528 64.947 45.8528 65.0098 45.8528C67.8364 45.8528 70.0976 46.4775 70.0348 47.2272C69.972 47.9768 67.7108 48.6015 64.8842 48.6015H59.7965V47.9144H64.8842C66.2661 47.9144 67.4595 47.602 67.4595 47.2272C67.4595 46.8524 66.3289 46.54 64.947 46.54L53.0756 46.4775C51.6937 46.4775 50.5003 46.7899 50.5003 47.1647C50.5003 47.5395 51.6309 47.8519 53.0128 47.8519H54.7087V48.5391L54.6459 49.9134V51.5376C54.6459 51.9125 55.7765 52.2248 57.1584 52.2248C58.5402 52.2248 59.7336 51.9125 59.7336 51.5376L59.7965 49.9134H64.8842C70.5373 49.9134 75.1226 48.7265 75.1854 47.2272C75.2482 45.7279 70.7885 44.4785 65.1983 44.4785Z" fill="#073837"/>
<path d="M64.1299 44.167H64.0671H64.0043C64.0043 44.167 64.0043 44.167 63.9415 44.167C63.9415 44.167 63.9415 44.167 63.8787 44.167H63.8159C63.7531 44.167 63.6903 44.167 63.6274 44.167L48.8038 44.1045C47.4219 44.1045 46.2285 44.4168 46.2285 44.7917C46.2285 45.1665 47.3591 45.4788 48.741 45.4788L63.5646 45.5413C63.6274 45.5413 63.6902 45.5413 63.7531 45.5413C63.8159 45.5413 63.8787 45.5413 63.9415 45.5413C66.768 45.5413 69.0293 46.166 68.9665 46.9157C68.9036 47.6653 66.6424 48.29 63.8159 48.29H58.7281V47.6028H63.8159C65.1977 47.6028 66.3912 47.2905 66.3912 46.9157C66.3912 46.5408 65.2605 46.2285 63.8787 46.2285H52.1328C50.751 46.2285 49.5576 46.5408 49.5576 46.9157C49.5576 47.2905 50.6882 47.6028 52.07 47.6028H53.766V48.29L53.7031 49.6644L53.5775 51.2261C53.5775 51.6009 54.7081 51.9133 56.09 51.9133C57.4719 51.9133 58.6653 51.6009 58.6653 51.2261L58.7281 49.6019H63.8159C69.469 49.6019 74.0542 48.415 74.117 46.9157C74.2427 45.4788 69.783 44.2294 64.1299 44.167Z" fill="url(#paint11_linear)"/>
<path d="M90.3225 34.6084V45.2284C90.1341 49.7262 76.3783 53.2871 59.6075 53.2246C43.8417 53.1621 30.9652 49.9137 29.709 45.7906V34.6084H90.3225Z" fill="#0F5454"/>
<path d="M90.3232 45.1035V45.2285C90.1347 49.7263 76.3789 53.2871 59.6081 53.2247C43.8423 53.1622 30.9658 49.9137 29.7096 45.7907C29.6468 45.5408 29.584 45.2909 29.584 45.041C29.584 44.8536 29.6468 44.6662 29.7096 44.4163C31.0287 40.2308 44.282 36.9824 60.299 37.0448C76.9442 37.0448 90.3232 40.6681 90.3232 45.1035Z" fill="#0F5454"/>
<path d="M90.3232 45.1035V45.2285C90.1347 49.7263 76.3789 53.2871 59.6081 53.2247C43.8423 53.1622 30.9658 49.9137 29.7096 45.7907C29.6468 45.5408 29.584 45.2909 29.584 45.041C29.584 44.8536 29.6468 44.6662 29.7096 44.4163C31.0287 40.2308 44.282 36.9824 60.299 37.0448C76.9442 37.0448 90.3232 40.6681 90.3232 45.1035Z" fill="#0F5454"/>
<path d="M59.9851 42.7296C76.5669 42.7296 90.0092 39.0936 90.0092 34.6085C90.0092 30.1233 76.5669 26.4873 59.9851 26.4873C43.4032 26.4873 29.9609 30.1233 29.9609 34.6085C29.9609 39.0936 43.4032 42.7296 59.9851 42.7296Z" fill="#00757A"/>
<path d="M59.9851 42.7296C76.5669 42.7296 90.0092 39.0936 90.0092 34.6085C90.0092 30.1233 76.5669 26.4873 59.9851 26.4873C43.4032 26.4873 29.9609 30.1233 29.9609 34.6085C29.9609 39.0936 43.4032 42.7296 59.9851 42.7296Z" fill="#00757A"/>
<path d="M59.9856 40.8554C72.7169 40.8554 83.0376 38.0585 83.0376 34.6084C83.0376 31.1582 72.7169 28.3613 59.9856 28.3613C47.2543 28.3613 36.9336 31.1582 36.9336 34.6084C36.9336 38.0585 47.2543 40.8554 59.9856 40.8554Z" fill="#073837"/>
<path d="M59.9856 40.8554C72.7169 40.8554 83.0376 38.0585 83.0376 34.6084C83.0376 31.1582 72.7169 28.3613 59.9856 28.3613C47.2543 28.3613 36.9336 31.1582 36.9336 34.6084C36.9336 38.0585 47.2543 40.8554 59.9856 40.8554Z" fill="#073837"/>
<path d="M59.985 40.3559C71.7796 40.3559 81.3411 37.7827 81.3411 34.6086C81.3411 31.4345 71.7796 28.8613 59.985 28.8613C48.1903 28.8613 38.6289 31.4345 38.6289 34.6086C38.6289 37.7827 48.1903 40.3559 59.985 40.3559Z" fill="#0A5959"/>
<path d="M59.985 40.3559C71.7796 40.3559 81.3411 37.7827 81.3411 34.6086C81.3411 31.4345 71.7796 28.8613 59.985 28.8613C48.1903 28.8613 38.6289 31.4345 38.6289 34.6086C38.6289 37.7827 48.1903 40.3559 59.985 40.3559Z" fill="#0A5959"/>
<path d="M71.1666 42.2297C67.5864 42.6045 63.692 42.7919 59.6092 42.7919C51.5065 42.7919 43.969 41.9173 38.316 40.3556C32.6629 38.7938 29.5851 36.7323 29.7107 34.5458C29.8992 30.0479 43.655 26.4247 60.363 26.4871C77.071 26.5496 90.5127 30.2353 90.2615 34.7332C90.1358 38.1066 82.2844 41.0427 71.1666 42.2297ZM49.0568 27.1743C38.1903 28.3612 30.4645 31.1724 30.3389 34.5458C30.2132 36.6698 33.2282 38.7313 38.7557 40.2306C44.2831 41.7299 51.6949 42.6045 59.672 42.667C76.066 42.7294 89.5705 39.1686 89.759 34.7332C89.9474 30.2978 76.8197 26.6745 60.4258 26.6121C56.4058 26.6121 52.5743 26.7995 49.0568 27.1743Z" fill="url(#paint12_linear)"/>
<path d="M71.1666 42.2297C67.5864 42.6045 63.692 42.7919 59.6092 42.7919C51.5065 42.7919 43.969 41.9173 38.316 40.3556C32.6629 38.7938 29.5851 36.7323 29.7107 34.5458C29.8992 30.0479 43.655 26.4247 60.363 26.4871C77.071 26.5496 90.5127 30.2353 90.2615 34.7332C90.1358 38.1066 82.2844 41.0427 71.1666 42.2297ZM49.0568 27.1743C38.1903 28.3612 30.4645 31.1724 30.3389 34.5458C30.2132 36.6698 33.2282 38.7313 38.7557 40.2306C44.2831 41.7299 51.6949 42.6045 59.672 42.667C76.066 42.7294 89.5705 39.1686 89.759 34.7332C89.9474 30.2978 76.8197 26.6745 60.4258 26.6121C56.4058 26.6121 52.5743 26.7995 49.0568 27.1743Z" fill="url(#paint13_linear)"/>
<path d="M65.1983 31.2344H65.1355H65.0727C65.0727 31.2344 65.0727 31.2344 65.0098 31.2344C65.0098 31.2344 65.0098 31.2344 64.947 31.2344H64.8842C64.8214 31.2344 64.7586 31.2344 64.6958 31.2344H49.8722C48.4903 31.2344 47.2969 31.5467 47.2969 31.9215C47.2969 32.2964 48.4275 32.6087 49.8094 32.6087L64.633 32.6712C64.6958 32.6712 64.7586 32.6712 64.8214 32.6712C64.8842 32.6712 64.947 32.6712 65.0098 32.6712C67.8364 32.6712 70.0976 33.2959 70.0348 34.0455C69.972 34.7952 67.7108 35.4199 64.8842 35.4199H59.7965V34.7327H64.8842C66.2661 34.7327 67.4595 34.4204 67.4595 34.0455C67.4595 33.6707 66.3289 33.3584 64.947 33.3584L53.0756 33.2959C51.6937 33.2959 50.5003 33.6083 50.5003 33.9831C50.5003 34.3579 51.6309 34.6702 53.0128 34.6702H54.7087V35.3574L54.6459 36.7318V38.2935C54.6459 38.6684 55.7765 38.9807 57.1584 38.9807C58.5402 38.9807 59.7336 38.6684 59.7336 38.2935L59.7965 36.6693H64.8842C70.5373 36.6693 75.1226 35.4824 75.1854 33.9831C75.2482 32.5463 70.7885 31.2968 65.1983 31.2344Z" fill="#073837"/>
<path d="M64.1299 30.9853H64.0671H64.0043C64.0043 30.9853 64.0043 30.9853 63.9415 30.9853C63.9415 30.9853 63.9415 30.9853 63.8787 30.9853H63.8159C63.7531 30.9853 63.6903 30.9853 63.6274 30.9853L48.8038 30.9229C47.4219 30.9229 46.2285 31.2352 46.2285 31.61C46.2285 31.9848 47.3591 32.2972 48.741 32.2972L63.5646 32.3597C63.6274 32.3597 63.6902 32.3597 63.7531 32.3597C63.8159 32.3597 63.8787 32.3597 63.9415 32.3597C66.768 32.3597 69.0293 32.9844 68.9665 33.734C68.9036 34.4837 66.6424 35.1084 63.8159 35.1084H58.7281V34.4212H63.8159C65.1977 34.4212 66.3912 34.1088 66.3912 33.734C66.3912 33.3592 65.2605 33.0468 63.8787 33.0468L52.1328 32.9844C50.751 32.9844 49.5576 33.2967 49.5576 33.6716C49.5576 34.0464 50.6882 34.3587 52.07 34.3587H53.766V35.0459L53.7031 36.4202L53.6403 38.0445C53.6403 38.4193 54.7709 38.7317 56.1528 38.7317C57.5347 38.7317 58.7281 38.4193 58.7281 38.0445L58.7909 36.4202H63.8787C69.5318 36.4202 74.117 35.2333 74.1798 33.734C74.2427 32.2347 69.783 30.9853 64.1299 30.9853Z" fill="url(#paint14_linear)"/>
<path d="M90.3225 21.4277V32.0477C90.1341 36.5456 76.3783 40.1064 59.6075 40.0439C43.8417 39.9814 30.9652 36.733 29.709 32.6099V21.4277H90.3225Z" fill="#0F5454"/>
<path d="M90.3232 31.8604V31.9853C90.1347 36.4832 76.3789 40.044 59.6081 39.9815C43.8423 39.919 30.9658 36.6706 29.7096 32.5475C29.6468 32.2976 29.584 32.0478 29.584 31.7979C29.584 31.6105 29.6468 31.4231 29.7096 31.1732C31.0287 26.9877 44.282 23.7392 60.299 23.8017C76.9442 23.8641 90.3232 27.4874 90.3232 31.8604Z" fill="#0F5454"/>
<path d="M90.3232 31.8604V31.9853C90.1347 36.4832 76.3789 40.044 59.6081 39.9815C43.8423 39.919 30.9658 36.6706 29.7096 32.5475C29.6468 32.2976 29.584 32.0478 29.584 31.7979C29.584 31.6105 29.6468 31.4231 29.7096 31.1732C31.0287 26.9877 44.282 23.7392 60.299 23.8017C76.9442 23.8641 90.3232 27.4874 90.3232 31.8604Z" fill="#0F5454"/>
<path d="M59.9851 29.5489C76.5669 29.5489 90.0092 25.913 90.0092 21.4278C90.0092 16.9426 76.5669 13.3066 59.9851 13.3066C43.4032 13.3066 29.9609 16.9426 29.9609 21.4278C29.9609 25.913 43.4032 29.5489 59.9851 29.5489Z" fill="#00757A"/>
<path d="M59.9851 29.5489C76.5669 29.5489 90.0092 25.913 90.0092 21.4278C90.0092 16.9426 76.5669 13.3066 59.9851 13.3066C43.4032 13.3066 29.9609 16.9426 29.9609 21.4278C29.9609 25.913 43.4032 29.5489 59.9851 29.5489Z" fill="#00757A"/>
<path d="M59.9856 27.6747C72.7169 27.6747 83.0376 24.8779 83.0376 21.4277C83.0376 17.9776 72.7169 15.1807 59.9856 15.1807C47.2543 15.1807 36.9336 17.9776 36.9336 21.4277C36.9336 24.8779 47.2543 27.6747 59.9856 27.6747Z" fill="#073837"/>
<path d="M59.9856 27.6747C72.7169 27.6747 83.0376 24.8779 83.0376 21.4277C83.0376 17.9776 72.7169 15.1807 59.9856 15.1807C47.2543 15.1807 36.9336 17.9776 36.9336 21.4277C36.9336 24.8779 47.2543 27.6747 59.9856 27.6747Z" fill="#073837"/>
<path d="M59.985 27.1752C71.7796 27.1752 81.3411 24.6021 81.3411 21.4279C81.3411 18.2538 71.7796 15.6807 59.985 15.6807C48.1903 15.6807 38.6289 18.2538 38.6289 21.4279C38.6289 24.6021 48.1903 27.1752 59.985 27.1752Z" fill="#0A5959"/>
<path d="M59.985 27.1752C71.7796 27.1752 81.3411 24.6021 81.3411 21.4279C81.3411 18.2538 71.7796 15.6807 59.985 15.6807C48.1903 15.6807 38.6289 18.2538 38.6289 21.4279C38.6289 24.6021 48.1903 27.1752 59.985 27.1752Z" fill="#0A5959"/>
<path d="M71.1666 28.9865C67.5864 29.3613 63.692 29.5487 59.6092 29.5487C51.5065 29.5487 43.969 28.6742 38.316 27.1124C32.6629 25.5506 29.5851 23.4891 29.7107 21.3026C29.8992 16.8048 43.655 13.1815 60.363 13.244C77.071 13.3064 90.5127 16.9922 90.2615 21.4901C90.1358 24.9259 82.2844 27.7996 71.1666 28.9865ZM49.0568 13.9311C38.1903 15.1181 30.4645 17.9292 30.3389 21.3026C30.2132 23.4266 33.2282 25.4882 38.7557 26.9875C44.2831 28.4867 51.6949 29.3613 59.672 29.4238C76.066 29.4863 89.5705 25.9255 89.759 21.4901C89.9474 17.0547 76.8197 13.4314 60.4258 13.3689C56.4058 13.3689 52.5743 13.5563 49.0568 13.9311Z" fill="url(#paint15_linear)"/>
<path d="M71.1666 28.9865C67.5864 29.3613 63.692 29.5487 59.6092 29.5487C51.5065 29.5487 43.969 28.6742 38.316 27.1124C32.6629 25.5506 29.5851 23.4891 29.7107 21.3026C29.8992 16.8048 43.655 13.1815 60.363 13.244C77.071 13.3064 90.5127 16.9922 90.2615 21.4901C90.1358 24.9259 82.2844 27.7996 71.1666 28.9865ZM49.0568 13.9311C38.1903 15.1181 30.4645 17.9292 30.3389 21.3026C30.2132 23.4266 33.2282 25.4882 38.7557 26.9875C44.2831 28.4867 51.6949 29.3613 59.672 29.4238C76.066 29.4863 89.5705 25.9255 89.759 21.4901C89.9474 17.0547 76.8197 13.4314 60.4258 13.3689C56.4058 13.3689 52.5743 13.5563 49.0568 13.9311Z" fill="url(#paint16_linear)"/>
<path d="M65.1983 18.0537H65.1355H65.0727C65.0727 18.0537 65.0727 18.0537 65.0098 18.0537C65.0098 18.0537 65.0098 18.0537 64.947 18.0537H64.8842C64.8214 18.0537 64.7586 18.0537 64.6958 18.0537L49.8722 17.9912C48.4903 17.9912 47.2969 18.3036 47.2969 18.6784C47.2969 19.0532 48.4275 19.3656 49.8094 19.3656L64.633 19.428C64.6958 19.428 64.7586 19.428 64.8214 19.428C64.8842 19.428 64.947 19.428 65.0098 19.428C67.8364 19.428 70.0976 20.0527 70.0348 20.8024C69.972 21.552 67.7108 22.1767 64.8842 22.1767H59.7965V21.4896H64.8842C66.2661 21.4896 67.4595 21.1772 67.4595 20.8024C67.4595 20.4276 66.3289 20.1152 64.947 20.1152L53.0756 20.0527C51.6937 20.0527 50.5003 20.3651 50.5003 20.7399C50.5003 21.1147 51.6309 21.4271 53.0128 21.4271H54.7087V22.1143L54.6459 23.4886V25.1128C54.6459 25.4877 55.7765 25.8 57.1584 25.8C58.5402 25.8 59.7336 25.4877 59.7336 25.1128L59.7965 23.4886H64.8842C70.5373 23.4886 75.1226 22.3017 75.1854 20.8024C75.2482 19.3031 70.7885 18.0537 65.1983 18.0537Z" fill="#073837"/>
<path d="M64.1299 17.7422H64.0671H64.0043C64.0043 17.7422 64.0043 17.7422 63.9415 17.7422C63.9415 17.7422 63.9415 17.7422 63.8787 17.7422H63.8159C63.7531 17.7422 63.6903 17.7422 63.6274 17.7422L48.8038 17.6797C47.4219 17.6797 46.2285 17.992 46.2285 18.3669C46.2285 18.7417 47.3591 19.054 48.741 19.054L63.5646 19.1165C63.6274 19.1165 63.6902 19.1165 63.7531 19.1165C63.8159 19.1165 63.8787 19.1165 63.9415 19.1165C66.768 19.1165 69.0293 19.7412 68.9665 20.4909C68.9036 21.2405 66.6424 21.8652 63.8159 21.8652H58.7281V21.178H63.8159C65.1977 21.178 66.3912 20.8657 66.3912 20.4909C66.3912 20.116 65.2605 19.8037 63.8787 19.8037L52.1328 19.7412C50.751 19.7412 49.5576 20.0536 49.5576 20.4284C49.5576 20.8032 50.6882 21.1156 52.07 21.1156H53.766V21.8027L53.7031 23.1771L53.6403 24.8013C53.6403 25.1761 54.7709 25.4885 56.1528 25.4885C57.5347 25.4885 58.7281 25.1761 58.7281 24.8013L58.7909 23.1771H63.8787C69.5318 23.1771 74.117 21.9901 74.1798 20.4909C74.2427 18.9916 69.783 17.7422 64.1299 17.7422Z" fill="url(#paint17_linear)"/>
<path d="M90.3225 8.18359V18.8036C90.1341 23.3014 76.3783 26.8623 59.6075 26.7998C43.8417 26.6748 30.9652 23.4264 29.709 19.3658V8.18359H90.3225Z" fill="#0F5454"/>
<path d="M90.3232 18.6787V18.7412C90.1347 23.2391 76.3789 26.7999 59.6081 26.7374C43.8423 26.6749 30.9658 23.4265 29.7096 19.3659C29.6468 19.116 29.584 18.8661 29.584 18.6162C29.584 18.4288 29.6468 18.2414 29.7096 17.9915C31.0287 13.806 44.282 10.5576 60.299 10.62C76.9442 10.62 90.3232 14.2433 90.3232 18.6787Z" fill="#0F5454"/>
<path d="M90.3232 18.6787V18.7412C90.1347 23.2391 76.3789 26.7999 59.6081 26.7374C43.8423 26.6749 30.9658 23.4265 29.7096 19.3659C29.6468 19.116 29.584 18.8661 29.584 18.6162C29.584 18.4288 29.6468 18.2414 29.7096 17.9915C31.0287 13.806 44.282 10.5576 60.299 10.62C76.9442 10.62 90.3232 14.2433 90.3232 18.6787Z" fill="#0F5454"/>
<path d="M59.9851 16.3048C76.5669 16.3048 90.0092 12.6688 90.0092 8.18365C90.0092 3.69846 76.5669 0.0625 59.9851 0.0625C43.4032 0.0625 29.9609 3.69846 29.9609 8.18365C29.9609 12.6688 43.4032 16.3048 59.9851 16.3048Z" fill="#00757A"/>
<path d="M59.9851 16.3048C76.5669 16.3048 90.0092 12.6688 90.0092 8.18365C90.0092 3.69846 76.5669 0.0625 59.9851 0.0625C43.4032 0.0625 29.9609 3.69846 29.9609 8.18365C29.9609 12.6688 43.4032 16.3048 59.9851 16.3048Z" fill="#00757A"/>
<path d="M59.9856 14.4306C72.7169 14.4306 83.0376 11.6337 83.0376 8.18357C83.0376 4.73342 72.7169 1.93652 59.9856 1.93652C47.2543 1.93652 36.9336 4.73342 36.9336 8.18357C36.9336 11.6337 47.2543 14.4306 59.9856 14.4306Z" fill="#073837"/>
<path d="M59.9856 14.4306C72.7169 14.4306 83.0376 11.6337 83.0376 8.18357C83.0376 4.73342 72.7169 1.93652 59.9856 1.93652C47.2543 1.93652 36.9336 4.73342 36.9336 8.18357C36.9336 11.6337 47.2543 14.4306 59.9856 14.4306Z" fill="#073837"/>
<path d="M59.985 13.9311C71.7796 13.9311 81.3411 11.3579 81.3411 8.1838C81.3411 5.00967 71.7796 2.43652 59.985 2.43652C48.1903 2.43652 38.6289 5.00967 38.6289 8.1838C38.6289 11.3579 48.1903 13.9311 59.985 13.9311Z" fill="#0A5959"/>
<path d="M59.985 13.9311C71.7796 13.9311 81.3411 11.3579 81.3411 8.1838C81.3411 5.00967 71.7796 2.43652 59.985 2.43652C48.1903 2.43652 38.6289 5.00967 38.6289 8.1838C38.6289 11.3579 48.1903 13.9311 59.985 13.9311Z" fill="#0A5959"/>
<path d="M71.1666 15.8048C67.5864 16.1797 63.692 16.3671 59.6092 16.3671C51.5065 16.3671 43.969 15.4925 38.316 13.9307C32.6629 12.369 29.5851 10.3074 29.7107 8.12097C29.8992 3.56063 43.655 -0.0626512 60.363 -0.000180766C77.071 0.0622897 90.5127 3.74804 90.2615 8.24591C90.1358 11.6818 82.2844 14.5554 71.1666 15.8048ZM49.0568 0.749464C38.1903 1.87393 30.4645 4.74757 30.276 8.0585C30.1504 10.1825 33.1654 12.244 38.6928 13.7433C44.2203 15.2426 51.6321 16.1172 59.6092 16.1797C76.0032 16.2421 89.5077 12.6813 89.6962 8.24591C89.8846 3.81051 76.7569 0.18723 60.363 0.12476C56.4058 0.12476 52.5743 0.374642 49.0568 0.749464Z" fill="url(#paint18_linear)"/>
<path d="M71.1666 15.8048C67.5864 16.1797 63.692 16.3671 59.6092 16.3671C51.5065 16.3671 43.969 15.4925 38.316 13.9307C32.6629 12.369 29.5851 10.3074 29.7107 8.12097C29.8992 3.56063 43.655 -0.0626512 60.363 -0.000180766C77.071 0.0622897 90.5127 3.74804 90.2615 8.24591C90.1358 11.6818 82.2844 14.5554 71.1666 15.8048ZM49.0568 0.749464C38.1903 1.87393 30.4645 4.74757 30.276 8.0585C30.1504 10.1825 33.1654 12.244 38.6928 13.7433C44.2203 15.2426 51.6321 16.1172 59.6092 16.1797C76.0032 16.2421 89.5077 12.6813 89.6962 8.24591C89.8846 3.81051 76.7569 0.18723 60.363 0.12476C56.4058 0.12476 52.5743 0.374642 49.0568 0.749464Z" fill="url(#paint19_linear)"/>
<path d="M65.1983 4.80954H65.1355H65.0727C65.0727 4.80954 65.0727 4.80954 65.0098 4.80954C65.0098 4.80954 65.0098 4.80954 64.947 4.80954H64.8842C64.8214 4.80954 64.7586 4.80954 64.6958 4.80954L49.8722 4.74707C48.4903 4.74707 47.2969 5.05942 47.2969 5.43425C47.2969 5.80907 48.4275 6.12142 49.8094 6.12142L64.633 6.18389C64.6958 6.18389 64.7586 6.18389 64.8214 6.18389C64.8842 6.18389 64.947 6.18389 65.0098 6.18389C67.8364 6.18389 70.0976 6.80859 70.0348 7.55824C69.972 8.30789 67.7108 8.93259 64.8842 8.93259H59.7965V8.24541H64.8842C66.2661 8.24541 67.4595 7.93306 67.4595 7.55824C67.4595 7.18342 66.3289 6.87107 64.947 6.87107L53.0756 6.80859C51.6937 6.80859 50.5003 7.12095 50.5003 7.49577C50.5003 7.87059 51.6309 8.18294 53.0128 8.18294H54.7087V8.87012L54.6459 10.2445V11.8687C54.6459 12.2435 55.7765 12.5559 57.1584 12.5559C58.5402 12.5559 59.7336 12.2435 59.7336 11.8687L59.7965 10.2445H64.8842C70.5373 10.2445 75.1226 9.05753 75.1854 7.55824C75.2482 6.05895 70.7885 4.87201 65.1983 4.80954Z" fill="#073837"/>
<path d="M64.1299 4.49805H64.0671H64.0043C64.0043 4.49805 64.0043 4.49805 63.9415 4.49805C63.9415 4.49805 63.9415 4.49805 63.8787 4.49805H63.8159C63.7531 4.49805 63.6903 4.49805 63.6274 4.49805H48.8038C47.4219 4.49805 46.2285 4.8104 46.2285 5.18522C46.2285 5.56004 47.3591 5.8724 48.741 5.8724L63.5646 5.93487C63.6274 5.93487 63.6902 5.93487 63.7531 5.93487C63.8159 5.93487 63.8787 5.93487 63.9415 5.93487C66.768 5.93487 69.0293 6.55957 68.9665 7.30922C68.9036 8.05886 66.6424 8.68356 63.8159 8.68356H58.7281V7.99639H63.8159C65.1977 7.99639 66.3912 7.68404 66.3912 7.30922C66.3912 6.93439 65.2605 6.62204 63.8787 6.62204L52.1328 6.55957C50.751 6.55957 49.5576 6.87192 49.5576 7.24675C49.5576 7.62157 50.6882 7.93392 52.07 7.93392H53.766V8.62109L53.6403 9.99544L53.5775 11.6197C53.5775 11.9945 54.7081 12.3068 56.09 12.3068C57.4719 12.3068 58.6653 11.9945 58.6653 11.6197L58.7281 9.99544H63.8159C69.469 9.99544 74.0542 8.80851 74.117 7.30922C74.2427 5.80993 69.783 4.56052 64.1299 4.49805Z" fill="url(#paint20_linear)"/>
<path d="M151 95.1426V105.763C150.812 110.26 137.056 113.821 120.285 113.759C104.519 113.696 91.643 110.448 90.3867 106.325V95.1426H151Z" fill="#0F5454"/>
<path d="M151.001 105.638V105.763C150.812 110.261 137.057 113.821 120.286 113.759C104.52 113.696 91.6436 110.448 90.3873 106.325C90.3245 106.075 90.2617 105.825 90.2617 105.575C90.2617 105.388 90.3245 105.2 90.3873 104.951C91.7064 100.765 105.023 97.5165 121.04 97.579C137.685 97.579 151.001 101.202 151.001 105.638Z" fill="#0F5454"/>
<path d="M151.001 105.638V105.763C150.812 110.261 137.057 113.821 120.286 113.759C104.52 113.696 91.6436 110.448 90.3873 106.325C90.3245 106.075 90.2617 105.825 90.2617 105.575C90.2617 105.388 90.3245 105.2 90.3873 104.951C91.7064 100.765 105.023 97.5165 121.04 97.579C137.685 97.579 151.001 101.202 151.001 105.638Z" fill="#0F5454"/>
<path d="M120.725 103.264C137.307 103.264 150.749 99.6278 150.749 95.1426C150.749 90.6574 137.307 87.0215 120.725 87.0215C104.143 87.0215 90.7012 90.6574 90.7012 95.1426C90.7012 99.6278 104.143 103.264 120.725 103.264Z" fill="#00757A"/>
<path d="M120.725 103.264C137.307 103.264 150.749 99.6278 150.749 95.1426C150.749 90.6574 137.307 87.0215 120.725 87.0215C104.143 87.0215 90.7012 90.6574 90.7012 95.1426C90.7012 99.6278 104.143 103.264 120.725 103.264Z" fill="#00757A"/>
<path d="M120.726 101.39C133.457 101.39 143.778 98.5927 143.778 95.1426C143.778 91.6924 133.457 88.8955 120.726 88.8955C107.995 88.8955 97.6738 91.6924 97.6738 95.1426C97.6738 98.5927 107.995 101.39 120.726 101.39Z" fill="#073837"/>
<path d="M120.726 101.39C133.457 101.39 143.778 98.5927 143.778 95.1426C143.778 91.6924 133.457 88.8955 120.726 88.8955C107.995 88.8955 97.6738 91.6924 97.6738 95.1426C97.6738 98.5927 107.995 101.39 120.726 101.39Z" fill="#073837"/>
<path d="M120.725 100.89C132.52 100.89 142.081 98.3169 142.081 95.1428C142.081 91.9687 132.52 89.3955 120.725 89.3955C108.931 89.3955 99.3691 91.9687 99.3691 95.1428C99.3691 98.3169 108.931 100.89 120.725 100.89Z" fill="#0A5959"/>
<path d="M120.725 100.89C132.52 100.89 142.081 98.3169 142.081 95.1428C142.081 91.9687 132.52 89.3955 120.725 89.3955C108.931 89.3955 99.3691 91.9687 99.3691 95.1428C99.3691 98.3169 108.931 100.89 120.725 100.89Z" fill="#0A5959"/>
<path d="M131.905 102.701C128.325 103.076 124.43 103.264 120.348 103.264C112.245 103.264 104.707 102.389 99.0543 100.827C93.4012 99.2655 90.3234 97.204 90.449 95.0175C90.6374 90.5196 104.393 86.8963 121.101 86.9588C137.809 87.0213 151.251 90.707 151 95.2049C150.874 98.6408 142.96 101.514 131.905 102.701ZM109.732 87.646C98.8658 88.8329 91.1399 91.6441 91.0143 95.0175C90.8887 97.1415 93.9037 99.203 99.4311 100.702C104.959 102.264 112.37 103.076 120.348 103.139C136.741 103.201 150.246 99.6403 150.434 95.2049C150.623 90.7695 137.495 87.1462 121.101 87.0837C117.081 87.0837 113.25 87.2712 109.732 87.646Z" fill="url(#paint21_linear)"/>
<path d="M131.905 102.701C128.325 103.076 124.43 103.264 120.348 103.264C112.245 103.264 104.707 102.389 99.0543 100.827C93.4012 99.2655 90.3234 97.204 90.449 95.0175C90.6374 90.5196 104.393 86.8963 121.101 86.9588C137.809 87.0213 151.251 90.707 151 95.2049C150.874 98.6408 142.96 101.514 131.905 102.701ZM109.732 87.646C98.8658 88.8329 91.1399 91.6441 91.0143 95.0175C90.8887 97.1415 93.9037 99.203 99.4311 100.702C104.959 102.264 112.37 103.076 120.348 103.139C136.741 103.201 150.246 99.6403 150.434 95.2049C150.623 90.7695 137.495 87.1462 121.101 87.0837C117.081 87.0837 113.25 87.2712 109.732 87.646Z" fill="url(#paint22_linear)"/>
<path d="M125.939 91.7685H125.876H125.813C125.813 91.7685 125.813 91.7685 125.75 91.7685C125.75 91.7685 125.75 91.7685 125.687 91.7685H125.624C125.562 91.7685 125.499 91.7685 125.436 91.7685L110.612 91.7061C109.231 91.7061 108.037 92.0184 108.037 92.3932C108.037 92.768 109.168 93.0804 110.55 93.0804L125.373 93.1429C125.436 93.1429 125.499 93.1429 125.562 93.1429C125.624 93.1429 125.687 93.1429 125.75 93.1429C128.577 93.1429 130.838 93.7676 130.775 94.5172C130.712 95.2669 128.451 95.8916 125.624 95.8916H120.537V95.2044H125.624C127.006 95.2044 128.2 94.892 128.2 94.5172C128.2 94.1424 127.069 93.83 125.687 93.83L113.816 93.7676C112.434 93.7676 111.241 94.0799 111.241 94.4548C111.241 94.8296 112.371 95.1419 113.753 95.1419H115.449V95.8291L115.386 97.2035L115.323 98.8277C115.323 99.2025 116.454 99.5149 117.836 99.5149C119.218 99.5149 120.411 99.2025 120.411 98.8277L120.474 97.2035H125.562C131.215 97.2035 135.8 96.0165 135.863 94.5172C135.988 93.0179 131.529 91.7685 125.939 91.7685Z" fill="#073837"/>
<path d="M124.872 91.457H124.809H124.746C124.746 91.457 124.746 91.457 124.684 91.457C124.684 91.457 124.684 91.457 124.621 91.457H124.558C124.495 91.457 124.432 91.457 124.37 91.457L109.546 91.3945C108.164 91.3945 106.971 91.7069 106.971 92.0817C106.971 92.4565 108.101 92.7689 109.483 92.7689L124.307 92.8314C124.37 92.8314 124.432 92.8314 124.495 92.8314C124.558 92.8314 124.621 92.8314 124.684 92.8314C127.51 92.8314 129.771 93.4561 129.709 94.2057C129.646 94.9553 127.385 95.58 124.558 95.58H119.47V94.8929H124.558C125.94 94.8929 127.133 94.5805 127.133 94.2057C127.133 93.8309 126.003 93.5185 124.621 93.5185L112.749 93.4561C111.368 93.4561 110.174 93.7684 110.174 94.1432C110.174 94.518 111.305 94.8304 112.687 94.8304H114.383V95.5176L114.32 96.8919L114.257 98.5162C114.257 98.891 115.388 99.2033 116.769 99.2033C118.151 99.2033 119.345 98.891 119.345 98.5162L119.407 96.8919H124.495C130.148 96.8919 134.734 95.705 134.796 94.2057C134.922 92.7689 130.462 91.5195 124.872 91.457Z" fill="url(#paint23_linear)"/>
<path d="M151 81.8984V92.5184C150.812 97.0163 137.056 100.577 120.285 100.515C104.519 100.452 91.643 97.2037 90.3867 93.0806V81.8984H151Z" fill="#0F5454"/>
<path d="M151.001 92.3936V92.5185C150.812 97.0164 137.057 100.577 120.286 100.515C104.52 100.452 91.6436 97.2038 90.3873 93.0807C90.3245 92.8308 90.2617 92.581 90.2617 92.3311C90.2617 92.1437 90.3245 91.9563 90.3873 91.7064C91.7064 87.5209 105.023 84.2724 121.04 84.3349C137.685 84.3349 151.001 87.9582 151.001 92.3936Z" fill="#0F5454"/>
<path d="M151.001 92.3936V92.5185C150.812 97.0164 137.057 100.577 120.286 100.515C104.52 100.452 91.6436 97.2038 90.3873 93.0807C90.3245 92.8308 90.2617 92.581 90.2617 92.3311C90.2617 92.1437 90.3245 91.9563 90.3873 91.7064C91.7064 87.5209 105.023 84.2724 121.04 84.3349C137.685 84.3349 151.001 87.9582 151.001 92.3936Z" fill="#0F5454"/>
<path d="M120.725 90.0197C137.307 90.0197 150.749 86.3837 150.749 81.8985C150.749 77.4133 137.307 73.7773 120.725 73.7773C104.143 73.7773 90.7012 77.4133 90.7012 81.8985C90.7012 86.3837 104.143 90.0197 120.725 90.0197Z" fill="#00757A"/>
<path d="M120.725 90.0197C137.307 90.0197 150.749 86.3837 150.749 81.8985C150.749 77.4133 137.307 73.7773 120.725 73.7773C104.143 73.7773 90.7012 77.4133 90.7012 81.8985C90.7012 86.3837 104.143 90.0197 120.725 90.0197Z" fill="#00757A"/>
<path d="M120.726 88.1455C133.457 88.1455 143.778 85.3486 143.778 81.8984C143.778 78.4483 133.457 75.6514 120.726 75.6514C107.995 75.6514 97.6738 78.4483 97.6738 81.8984C97.6738 85.3486 107.995 88.1455 120.726 88.1455Z" fill="#073837"/>
<path d="M120.726 88.1455C133.457 88.1455 143.778 85.3486 143.778 81.8984C143.778 78.4483 133.457 75.6514 120.726 75.6514C107.995 75.6514 97.6738 78.4483 97.6738 81.8984C97.6738 85.3486 107.995 88.1455 120.726 88.1455Z" fill="#073837"/>
<path d="M120.725 87.6459C132.52 87.6459 142.081 85.0728 142.081 81.8987C142.081 78.7245 132.52 76.1514 120.725 76.1514C108.931 76.1514 99.3691 78.7245 99.3691 81.8987C99.3691 85.0728 108.931 87.6459 120.725 87.6459Z" fill="#0A5959"/>
<path d="M120.725 87.6459C132.52 87.6459 142.081 85.0728 142.081 81.8987C142.081 78.7245 132.52 76.1514 120.725 76.1514C108.931 76.1514 99.3691 78.7245 99.3691 81.8987C99.3691 85.0728 108.931 87.6459 120.725 87.6459Z" fill="#0A5959"/>
<path d="M131.905 89.5197C128.325 89.8945 124.43 90.0819 120.348 90.0819C112.245 90.0819 104.707 89.2074 99.0543 87.6456C93.4012 86.0838 90.3234 84.0223 90.449 81.8358C90.6374 77.338 104.393 73.7147 121.101 73.7772C137.809 73.8396 151.251 77.5254 151 82.0233C150.874 85.3967 142.96 88.3328 131.905 89.5197ZM109.732 74.4643C98.8658 75.6513 91.1399 78.4624 91.0143 81.8358C90.8887 83.9598 93.9037 86.0214 99.4311 87.5207C104.959 89.0824 112.37 89.8945 120.348 89.957C136.741 90.0195 150.246 86.4587 150.434 82.0233C150.623 77.5879 137.495 73.9646 121.101 73.9021C117.081 73.9021 113.25 74.0895 109.732 74.4643Z" fill="url(#paint24_linear)"/>
<path d="M131.905 89.5197C128.325 89.8945 124.43 90.0819 120.348 90.0819C112.245 90.0819 104.707 89.2074 99.0543 87.6456C93.4012 86.0838 90.3234 84.0223 90.449 81.8358C90.6374 77.338 104.393 73.7147 121.101 73.7772C137.809 73.8396 151.251 77.5254 151 82.0233C150.874 85.3967 142.96 88.3328 131.905 89.5197ZM109.732 74.4643C98.8658 75.6513 91.1399 78.4624 91.0143 81.8358C90.8887 83.9598 93.9037 86.0214 99.4311 87.5207C104.959 89.0824 112.37 89.8945 120.348 89.957C136.741 90.0195 150.246 86.4587 150.434 82.0233C150.623 77.5879 137.495 73.9646 121.101 73.9021C117.081 73.9021 113.25 74.0895 109.732 74.4643Z" fill="url(#paint25_linear)"/>
<path d="M125.939 78.5254H125.876H125.813C125.813 78.5254 125.813 78.5254 125.75 78.5254C125.75 78.5254 125.75 78.5254 125.687 78.5254H125.624C125.562 78.5254 125.499 78.5254 125.436 78.5254L110.612 78.4629C109.231 78.4629 108.037 78.7752 108.037 79.1501C108.037 79.5249 109.168 79.8372 110.55 79.8372L125.373 79.8997C125.436 79.8997 125.499 79.8997 125.562 79.8997C125.624 79.8997 125.687 79.8997 125.75 79.8997C128.577 79.8997 130.838 80.5244 130.775 81.2741C130.712 82.0237 128.451 82.6484 125.624 82.6484H120.537V81.9612H125.624C127.006 81.9612 128.2 81.6489 128.2 81.2741C128.2 80.8992 127.069 80.5869 125.687 80.5869L113.816 80.5244C112.434 80.5244 111.241 80.8368 111.241 81.2116C111.241 81.5864 112.371 81.8988 113.753 81.8988H115.449V82.5859L115.386 83.9603L115.323 85.5845C115.323 85.9593 116.454 86.2717 117.836 86.2717C119.218 86.2717 120.411 85.9593 120.411 85.5845L120.474 83.9603H125.562C131.215 83.9603 135.8 82.7734 135.863 81.2741C135.988 79.8372 131.529 78.5878 125.939 78.5254Z" fill="#073837"/>
<path d="M124.872 78.2754H124.809H124.746C124.746 78.2754 124.746 78.2754 124.684 78.2754C124.684 78.2754 124.684 78.2754 124.621 78.2754H124.558C124.495 78.2754 124.432 78.2754 124.37 78.2754L109.546 78.2129C108.164 78.2129 106.971 78.5252 106.971 78.9001C106.971 79.2749 108.101 79.5872 109.483 79.5872L124.307 79.6497C124.37 79.6497 124.432 79.6497 124.495 79.6497C124.558 79.6497 124.621 79.6497 124.684 79.6497C127.51 79.6497 129.771 80.2744 129.709 81.0241C129.646 81.7737 127.385 82.3984 124.558 82.3984H119.47V81.7112H124.558C125.94 81.7112 127.133 81.3989 127.133 81.0241C127.133 80.6492 126.003 80.3369 124.621 80.3369L112.749 80.2744C111.368 80.2744 110.174 80.5868 110.174 80.9616C110.174 81.3364 111.305 81.6488 112.687 81.6488H114.383V82.3359L114.32 83.7103L114.257 85.3345C114.257 85.7093 115.388 86.0217 116.769 86.0217C118.151 86.0217 119.345 85.7093 119.345 85.3345L119.407 83.7103H124.495C130.148 83.7103 134.734 82.5233 134.796 81.0241C134.922 79.5248 130.462 78.2754 124.872 78.2754Z" fill="url(#paint26_linear)"/>
<path d="M151 68.7178V79.3377C150.812 83.8356 137.056 87.3964 120.285 87.334C104.519 87.2715 91.643 84.023 90.3867 79.9V68.7178H151Z" fill="#0F5454"/>
<path d="M151.001 79.1504V79.2753C150.812 83.7732 137.057 87.334 120.286 87.2715C104.52 87.2091 91.6436 83.9606 90.3873 79.8376C90.3245 79.5877 90.2617 79.3378 90.2617 79.0879C90.2617 78.9005 90.3245 78.7131 90.3873 78.4632C91.7064 74.2777 105.023 71.0292 121.04 71.0917C137.685 71.1542 151.001 74.7775 151.001 79.1504Z" fill="#0F5454"/>
<path d="M151.001 79.1504V79.2753C150.812 83.7732 137.057 87.334 120.286 87.2715C104.52 87.2091 91.6436 83.9606 90.3873 79.8376C90.3245 79.5877 90.2617 79.3378 90.2617 79.0879C90.2617 78.9005 90.3245 78.7131 90.3873 78.4632C91.7064 74.2777 105.023 71.0292 121.04 71.0917C137.685 71.1542 151.001 74.7775 151.001 79.1504Z" fill="#0F5454"/>
<path d="M120.725 76.7765C137.307 76.7765 150.749 73.1405 150.749 68.6553C150.749 64.1701 137.307 60.5342 120.725 60.5342C104.143 60.5342 90.7012 64.1701 90.7012 68.6553C90.7012 73.1405 104.143 76.7765 120.725 76.7765Z" fill="#00757A"/>
<path d="M120.725 76.7765C137.307 76.7765 150.749 73.1405 150.749 68.6553C150.749 64.1701 137.307 60.5342 120.725 60.5342C104.143 60.5342 90.7012 64.1701 90.7012 68.6553C90.7012 73.1405 104.143 76.7765 120.725 76.7765Z" fill="#00757A"/>
<path d="M120.726 74.9023C133.457 74.9023 143.778 72.1054 143.778 68.6552C143.778 65.2051 133.457 62.4082 120.726 62.4082C107.995 62.4082 97.6738 65.2051 97.6738 68.6552C97.6738 72.1054 107.995 74.9023 120.726 74.9023Z" fill="#073837"/>
<path d="M120.726 74.9023C133.457 74.9023 143.778 72.1054 143.778 68.6552C143.778 65.2051 133.457 62.4082 120.726 62.4082C107.995 62.4082 97.6738 65.2051 97.6738 68.6552C97.6738 72.1054 107.995 74.9023 120.726 74.9023Z" fill="#073837"/>
<path d="M120.725 74.4028C132.52 74.4028 142.081 71.8296 142.081 68.6555C142.081 65.4814 132.52 62.9082 120.725 62.9082C108.931 62.9082 99.3691 65.4814 99.3691 68.6555C99.3691 71.8296 108.931 74.4028 120.725 74.4028Z" fill="#0A5959"/>
<path d="M120.725 74.4028C132.52 74.4028 142.081 71.8296 142.081 68.6555C142.081 65.4814 132.52 62.9082 120.725 62.9082C108.931 62.9082 99.3691 65.4814 99.3691 68.6555C99.3691 71.8296 108.931 74.4028 120.725 74.4028Z" fill="#0A5959"/>
<path d="M131.905 76.2765C128.325 76.6514 124.43 76.8388 120.348 76.8388C112.245 76.8388 104.707 75.9642 99.0543 74.4024C93.4012 72.8407 90.3234 70.7791 90.449 68.5927C90.6374 64.0948 104.393 60.4715 121.101 60.534C137.809 60.5965 151.251 64.2822 151 68.7801C150.874 72.216 142.96 75.0896 131.905 76.2765ZM109.732 61.2212C98.8658 62.4081 91.1399 65.2193 91.0143 68.5927C90.8887 70.7167 93.9037 72.7782 99.4311 74.2775C104.959 75.7768 112.37 76.6514 120.348 76.7138C136.741 76.7763 150.246 73.2155 150.434 68.7801C150.623 64.3447 137.495 60.7214 121.101 60.6589C117.081 60.6589 113.25 60.8464 109.732 61.2212Z" fill="url(#paint27_linear)"/>
<path d="M131.905 76.2765C128.325 76.6514 124.43 76.8388 120.348 76.8388C112.245 76.8388 104.707 75.9642 99.0543 74.4024C93.4012 72.8407 90.3234 70.7791 90.449 68.5927C90.6374 64.0948 104.393 60.4715 121.101 60.534C137.809 60.5965 151.251 64.2822 151 68.7801C150.874 72.216 142.96 75.0896 131.905 76.2765ZM109.732 61.2212C98.8658 62.4081 91.1399 65.2193 91.0143 68.5927C90.8887 70.7167 93.9037 72.7782 99.4311 74.2775C104.959 75.7768 112.37 76.6514 120.348 76.7138C136.741 76.7763 150.246 73.2155 150.434 68.7801C150.623 64.3447 137.495 60.7214 121.101 60.6589C117.081 60.6589 113.25 60.8464 109.732 61.2212Z" fill="url(#paint28_linear)"/>
<path d="M125.939 65.3437H125.876H125.813C125.813 65.3437 125.813 65.3437 125.75 65.3437C125.75 65.3437 125.75 65.3437 125.687 65.3437H125.624C125.562 65.3437 125.499 65.3437 125.436 65.3437L110.612 65.2812C109.231 65.2812 108.037 65.5936 108.037 65.9684C108.037 66.3432 109.168 66.6556 110.55 66.6556L125.373 66.7181C125.436 66.7181 125.499 66.7181 125.562 66.7181C125.624 66.7181 125.687 66.7181 125.75 66.7181C128.577 66.7181 130.838 67.3428 130.775 68.0924C130.712 68.8421 128.451 69.4668 125.624 69.4668H120.537V68.7796H125.624C127.006 68.7796 128.2 68.4672 128.2 68.0924C128.2 67.7176 127.069 67.4052 125.687 67.4052L113.816 67.3428C112.434 67.3428 111.241 67.6551 111.241 68.03C111.241 68.4048 112.371 68.7171 113.753 68.7171H115.449V69.4043L115.386 70.7787L115.323 72.4029C115.323 72.7777 116.454 73.0901 117.836 73.0901C119.218 73.0901 120.411 72.7777 120.411 72.4029L120.474 70.7787H125.562C131.215 70.7787 135.8 69.5917 135.863 68.0924C135.988 66.5931 131.529 65.3437 125.939 65.3437Z" fill="#073837"/>
<path d="M124.872 65.0322H124.809H124.746C124.746 65.0322 124.746 65.0322 124.684 65.0322C124.684 65.0322 124.684 65.0322 124.621 65.0322H124.558C124.495 65.0322 124.432 65.0322 124.37 65.0322L109.546 64.9697C108.164 64.9697 106.971 65.2821 106.971 65.6569C106.971 66.0317 108.101 66.3441 109.483 66.3441L124.307 66.4065C124.37 66.4065 124.432 66.4065 124.495 66.4065C124.558 66.4065 124.621 66.4065 124.684 66.4065C127.51 66.4065 129.771 67.0313 129.709 67.7809C129.646 68.5305 127.385 69.1552 124.558 69.1552H119.47V68.4681H124.558C125.94 68.4681 127.133 68.1557 127.133 67.7809C127.133 67.4061 126.003 67.0937 124.621 67.0937L112.749 67.0313C111.368 67.0313 110.174 67.3436 110.174 67.7184C110.174 68.0933 111.305 68.4056 112.687 68.4056H114.383V69.0928L114.32 70.4671L114.257 72.0914C114.257 72.4662 115.388 72.7785 116.769 72.7785C118.151 72.7785 119.345 72.4662 119.345 72.0914L119.407 70.4671H124.495C130.148 70.4671 134.734 69.2802 134.796 67.7809C134.922 66.2816 130.462 65.0322 124.872 65.0322Z" fill="url(#paint29_linear)"/>
<path d="M151 55.4736V66.0936C150.812 70.5915 137.056 74.1523 120.285 74.0898C104.519 74.0273 91.643 70.7789 90.3867 66.6558V55.4736H151Z" fill="#0F5454"/>
<path d="M151.001 65.9688V66.0937C150.812 70.5916 137.057 74.1524 120.286 74.0899C104.52 74.0274 91.6436 70.779 90.3873 66.6559C90.3245 66.406 90.2617 66.1562 90.2617 65.9063C90.2617 65.7189 90.3245 65.5315 90.3873 65.2816C91.7064 61.0961 105.023 57.8476 121.04 57.9101C137.685 57.9101 151.001 61.5334 151.001 65.9688Z" fill="#0F5454"/>
<path d="M151.001 65.9688V66.0937C150.812 70.5916 137.057 74.1524 120.286 74.0899C104.52 74.0274 91.6436 70.779 90.3873 66.6559C90.3245 66.406 90.2617 66.1562 90.2617 65.9063C90.2617 65.7189 90.3245 65.5315 90.3873 65.2816C91.7064 61.0961 105.023 57.8476 121.04 57.9101C137.685 57.9101 151.001 61.5334 151.001 65.9688Z" fill="#0F5454"/>
<path d="M120.725 63.5948C137.307 63.5948 150.749 59.9589 150.749 55.4737C150.749 50.9885 137.307 47.3525 120.725 47.3525C104.143 47.3525 90.7012 50.9885 90.7012 55.4737C90.7012 59.9589 104.143 63.5948 120.725 63.5948Z" fill="#00757A"/>
<path d="M120.725 63.5948C137.307 63.5948 150.749 59.9589 150.749 55.4737C150.749 50.9885 137.307 47.3525 120.725 47.3525C104.143 47.3525 90.7012 50.9885 90.7012 55.4737C90.7012 59.9589 104.143 63.5948 120.725 63.5948Z" fill="#00757A"/>
<path d="M120.726 61.7206C133.457 61.7206 143.778 58.9237 143.778 55.4736C143.778 52.0235 133.457 49.2266 120.726 49.2266C107.995 49.2266 97.6738 52.0235 97.6738 55.4736C97.6738 58.9237 107.995 61.7206 120.726 61.7206Z" fill="#073837"/>
<path d="M120.726 61.7206C133.457 61.7206 143.778 58.9237 143.778 55.4736C143.778 52.0235 133.457 49.2266 120.726 49.2266C107.995 49.2266 97.6738 52.0235 97.6738 55.4736C97.6738 58.9237 107.995 61.7206 120.726 61.7206Z" fill="#073837"/>
<path d="M120.725 61.2211C132.52 61.2211 142.081 58.648 142.081 55.4738C142.081 52.2997 132.52 49.7266 120.725 49.7266C108.931 49.7266 99.3691 52.2997 99.3691 55.4738C99.3691 58.648 108.931 61.2211 120.725 61.2211Z" fill="#0A5959"/>
<path d="M120.725 61.2211C132.52 61.2211 142.081 58.648 142.081 55.4738C142.081 52.2997 132.52 49.7266 120.725 49.7266C108.931 49.7266 99.3691 52.2997 99.3691 55.4738C99.3691 58.648 108.931 61.2211 120.725 61.2211Z" fill="#0A5959"/>
<path d="M131.905 63.0324C128.325 63.4072 124.43 63.5946 120.348 63.5946C112.245 63.5946 104.707 62.7201 99.0543 61.1583C93.4012 59.5965 90.3234 57.535 90.449 55.3485C90.6374 50.8507 104.393 47.2274 121.101 47.2899C137.809 47.3523 151.251 51.0381 151 55.536C150.874 58.9718 142.96 61.8455 131.905 63.0324ZM109.732 48.0395C98.8658 49.2264 91.1399 52.0376 91.0143 55.411C90.8887 57.535 93.9037 59.5965 99.4311 61.0958C104.959 62.5951 112.37 63.4697 120.348 63.5322C136.741 63.5946 150.246 60.0338 150.434 55.5984C150.623 51.163 137.495 47.5397 121.101 47.4773C117.081 47.4148 113.25 47.6647 109.732 48.0395Z" fill="url(#paint30_linear)"/>
<path d="M131.905 63.0324C128.325 63.4072 124.43 63.5946 120.348 63.5946C112.245 63.5946 104.707 62.7201 99.0543 61.1583C93.4012 59.5965 90.3234 57.535 90.449 55.3485C90.6374 50.8507 104.393 47.2274 121.101 47.2899C137.809 47.3523 151.251 51.0381 151 55.536C150.874 58.9718 142.96 61.8455 131.905 63.0324ZM109.732 48.0395C98.8658 49.2264 91.1399 52.0376 91.0143 55.411C90.8887 57.535 93.9037 59.5965 99.4311 61.0958C104.959 62.5951 112.37 63.4697 120.348 63.5322C136.741 63.5946 150.246 60.0338 150.434 55.5984C150.623 51.163 137.495 47.5397 121.101 47.4773C117.081 47.4148 113.25 47.6647 109.732 48.0395Z" fill="url(#paint31_linear)"/>
<path d="M125.939 52.0996H125.876H125.813C125.813 52.0996 125.813 52.0996 125.75 52.0996C125.75 52.0996 125.75 52.0996 125.688 52.0996H125.625C125.562 52.0996 125.499 52.0996 125.436 52.0996L110.55 52.0371C109.168 52.0371 107.975 52.3495 107.975 52.7243C107.975 53.0991 109.105 53.4115 110.487 53.4115L125.311 53.4739C125.374 53.4739 125.436 53.4739 125.499 53.4739C125.562 53.4739 125.625 53.4739 125.688 53.4739C128.514 53.4739 130.775 54.0986 130.713 54.8483C130.65 55.5979 128.389 56.2226 125.562 56.2226H120.474V55.5355H125.562C126.944 55.5355 128.137 55.2231 128.137 54.8483C128.137 54.4735 127.007 54.1611 125.625 54.1611L113.753 54.0986C112.371 54.0986 111.178 54.411 111.178 54.7858C111.178 55.1606 112.309 55.473 113.691 55.473H115.386V56.1602L115.324 57.5345L115.261 59.1587C115.261 59.5336 116.391 59.8459 117.773 59.8459C119.155 59.8459 120.349 59.5336 120.349 59.1587L120.411 57.5345H125.499C131.152 57.5345 135.738 56.3476 135.8 54.8483C135.989 53.349 131.529 52.0996 125.939 52.0996Z" fill="#073837"/>
<path d="M124.872 51.7881H124.809H124.746C124.746 51.7881 124.746 51.7881 124.684 51.7881C124.684 51.7881 124.684 51.7881 124.621 51.7881H124.558C124.495 51.7881 124.432 51.7881 124.37 51.7881L109.546 51.7256C108.164 51.7256 106.971 52.0379 106.971 52.4128C106.971 52.7876 108.101 53.0999 109.483 53.0999L124.307 53.1624C124.37 53.1624 124.432 53.1624 124.495 53.1624C124.558 53.1624 124.621 53.1624 124.684 53.1624C127.51 53.1624 129.771 53.7871 129.709 54.5368C129.646 55.2864 127.385 55.9111 124.558 55.9111H119.47V55.2239H124.558C125.94 55.2239 127.133 54.9116 127.133 54.5368C127.133 54.1619 126.003 53.8496 124.621 53.8496L112.749 53.7871C111.368 53.7871 110.174 54.0995 110.174 54.4743C110.174 54.8491 111.305 55.1615 112.687 55.1615H114.383V55.8486L114.32 57.223L114.257 58.8472C114.257 59.222 115.388 59.5344 116.769 59.5344C118.151 59.5344 119.345 59.222 119.345 58.8472L119.407 57.223H124.495C130.148 57.223 134.734 56.036 134.796 54.5368C134.922 53.0999 130.462 51.8505 124.872 51.7881Z" fill="url(#paint32_linear)"/>
<path d="M92.5216 132C109.693 132 123.614 118.155 123.614 101.077C123.614 83.9989 109.693 70.1543 92.5216 70.1543C75.35 70.1543 61.4297 83.9989 61.4297 101.077C61.4297 118.155 75.35 132 92.5216 132Z" fill="#0F5454"/>
<path d="M92.5216 132C109.693 132 123.614 118.155 123.614 101.077C123.614 83.9989 109.693 70.1543 92.5216 70.1543C75.35 70.1543 61.4297 83.9989 61.4297 101.077C61.4297 118.155 75.35 132 92.5216 132Z" fill="#0F5454"/>
<path d="M89.8204 128.626C106.992 128.626 120.912 114.781 120.912 97.7031C120.912 80.6249 106.992 66.7803 89.8204 66.7803C72.6488 66.7803 58.7285 80.6249 58.7285 97.7031C58.7285 114.781 72.6488 128.626 89.8204 128.626Z" fill="#00757A"/>
<path d="M89.8204 128.626C106.992 128.626 120.912 114.781 120.912 97.7031C120.912 80.6249 106.992 66.7803 89.8204 66.7803C72.6488 66.7803 58.7285 80.6249 58.7285 97.7031C58.7285 114.781 72.6488 128.626 89.8204 128.626Z" fill="#00757A"/>
<path d="M89.8217 121.442C103.004 121.442 113.69 110.814 113.69 97.7036C113.69 84.593 103.004 73.9648 89.8217 73.9648C76.6394 73.9648 65.9531 84.593 65.9531 97.7036C65.9531 110.814 76.6394 121.442 89.8217 121.442Z" fill="#073837"/>
<path d="M89.8217 121.442C103.004 121.442 113.69 110.814 113.69 97.7036C113.69 84.593 103.004 73.9648 89.8217 73.9648C76.6394 73.9648 65.9531 84.593 65.9531 97.7036C65.9531 110.814 76.6394 121.442 89.8217 121.442Z" fill="#073837"/>
<path d="M89.8208 119.693C102.032 119.693 111.931 109.848 111.931 97.7035C111.931 85.5589 102.032 75.7139 89.8208 75.7139C77.6098 75.7139 67.7109 85.5589 67.7109 97.7035C67.7109 109.848 77.6098 119.693 89.8208 119.693Z" fill="#0A5959"/>
<path d="M89.8208 119.693C102.032 119.693 111.931 109.848 111.931 97.7035C111.931 85.5589 102.032 75.7139 89.8208 75.7139C77.6098 75.7139 67.7109 85.5589 67.7109 97.7035C67.7109 109.848 77.6098 119.693 89.8208 119.693Z" fill="#0A5959"/>
<path d="M89.8213 128.876C80.588 128.876 71.4802 124.878 65.2619 117.194C60.0485 110.697 57.6616 102.514 58.6038 94.2674C59.546 85.9589 63.6287 78.5874 70.1612 73.3398C83.6658 62.5949 103.452 64.7814 114.255 78.2125C125.059 91.6437 122.86 111.322 109.356 122.067C103.64 126.627 96.6678 128.876 89.8213 128.876ZM89.7585 67.0303C82.7864 67.0303 76.1283 69.3417 70.6009 73.7147C64.194 78.8372 60.1113 86.0838 59.2319 94.2674C58.3525 102.389 60.6766 110.385 65.7643 116.757C70.9149 123.129 78.2011 127.189 86.4295 128.064C94.595 128.939 102.635 126.627 109.042 121.567C122.295 111.01 124.431 91.7061 113.878 78.5249C108.728 72.1529 101.442 68.0923 93.2132 67.2177C92.0197 67.0928 90.8891 67.0303 89.7585 67.0303Z" fill="url(#paint33_linear)"/>
<path d="M89.8213 128.876C80.588 128.876 71.4802 124.878 65.2619 117.194C60.0485 110.697 57.6616 102.514 58.6038 94.2674C59.546 85.9589 63.6287 78.5874 70.1612 73.3398C83.6658 62.5949 103.452 64.7814 114.255 78.2125C125.059 91.6437 122.86 111.322 109.356 122.067C103.64 126.627 96.6678 128.876 89.8213 128.876ZM89.7585 67.0303C82.7864 67.0303 76.1283 69.3417 70.6009 73.7147C64.194 78.8372 60.1113 86.0838 59.2319 94.2674C58.3525 102.389 60.6766 110.385 65.7643 116.757C70.9149 123.129 78.2011 127.189 86.4295 128.064C94.595 128.939 102.635 126.627 109.042 121.567C122.295 111.01 124.431 91.7061 113.878 78.5249C108.728 72.1529 101.442 68.0923 93.2132 67.2177C92.0197 67.0928 90.8891 67.0303 89.7585 67.0303Z" fill="url(#paint34_linear)"/>
<path d="M85.7396 84.397C85.6767 84.4595 85.6767 84.4595 85.6139 84.4595C85.6139 84.4595 85.6139 84.4595 85.5511 84.4595C85.5511 84.4595 85.5511 84.4595 85.4883 84.4595L85.4255 84.5219C85.3627 84.5844 85.2999 84.5844 85.2371 84.6469L73.24 94.2049C72.1094 95.0794 71.9209 96.7661 72.8003 97.8906C73.6797 99.0151 75.3756 99.2025 76.5062 98.3279L88.5033 88.7699C88.5661 88.7075 88.6289 88.645 88.6917 88.645C88.7545 88.5825 88.8173 88.5825 88.8802 88.52C91.1414 86.7084 94.4704 87.0832 96.292 89.3322C98.1135 91.5811 97.7366 94.892 95.4754 96.7037L91.3298 99.9521L89.6967 97.8906L93.7795 94.6421C94.9101 93.7676 95.0985 92.0809 94.2192 90.9564C93.3398 89.8319 91.6439 89.6445 90.5133 90.5191L81.0287 98.203C79.898 99.0775 79.7096 100.764 80.589 101.889C81.4683 103.013 83.1643 103.201 84.2949 102.326L85.6767 101.264L87.3099 103.326L90.5761 107.449L94.4076 112.259C95.287 113.383 96.9829 113.571 98.1135 112.696C99.2441 111.822 99.4326 110.135 98.5532 109.01L94.7217 104.2L98.8673 100.952C103.39 97.3284 104.143 90.7065 100.5 86.2086C96.9201 81.5234 90.3248 80.7737 85.7396 84.397Z" fill="#073837"/>
<path d="M84.2318 84.2094C84.2318 84.2094 84.1689 84.2094 84.2318 84.2094C84.1689 84.2718 84.1689 84.2718 84.1061 84.2718C84.1061 84.2718 84.1061 84.2718 84.0433 84.2718C84.0433 84.2718 84.0433 84.2718 83.9805 84.2718L83.9177 84.3343C83.8549 84.3968 83.7921 84.3968 83.7293 84.4592L71.7322 94.0172C70.6015 94.8918 70.4131 96.5785 71.2925 97.703C72.1718 98.8274 73.8678 99.0149 74.9984 98.1403L86.9955 88.5823C87.0583 88.5198 87.1211 88.4574 87.1839 88.4574C87.2467 88.3949 87.3095 88.3949 87.3723 88.3324C89.6336 86.5208 92.9626 86.8956 94.7842 89.1445C96.6057 91.3935 96.2288 94.7044 93.9676 96.516L89.822 99.7645L88.1889 97.703L92.2717 94.4545C93.4023 93.5799 93.5907 91.8932 92.7114 90.7688C91.832 89.6443 90.1361 89.4569 89.0055 90.3315L79.3952 97.9529C78.2646 98.8275 78.0762 100.514 78.9555 101.639C79.8349 102.763 81.5308 102.95 82.6615 102.076L84.0433 101.014L85.6764 103.075L88.9426 107.198L92.7742 112.009C93.6535 113.133 95.3495 113.321 96.4801 112.446C97.6107 111.571 97.7991 109.885 96.9198 108.76L93.0882 103.95L97.2338 100.702C101.756 97.0783 102.51 90.4564 98.8669 85.9585C95.3495 81.3357 88.7542 80.5861 84.2318 84.2094Z" fill="url(#paint35_linear)"/>
<path d="M30.2741 119.755C46.856 119.755 60.2983 106.386 60.2983 89.8941C60.2983 73.4024 46.856 60.0332 30.2741 60.0332C13.6923 60.0332 0.25 73.4024 0.25 89.8941C0.25 106.386 13.6923 119.755 30.2741 119.755Z" fill="#0F5454"/>
<path d="M30.2741 119.755C46.856 119.755 60.2983 106.386 60.2983 89.8941C60.2983 73.4024 46.856 60.0332 30.2741 60.0332C13.6923 60.0332 0.25 73.4024 0.25 89.8941C0.25 106.386 13.6923 119.755 30.2741 119.755Z" fill="#0F5454"/>
<path d="M30.2741 115.569C46.856 115.569 60.2983 102.2 60.2983 85.7085C60.2983 69.2168 46.856 55.8477 30.2741 55.8477C13.6923 55.8477 0.25 69.2168 0.25 85.7085C0.25 102.2 13.6923 115.569 30.2741 115.569Z" fill="#00757A"/>
<path d="M30.2741 115.569C46.856 115.569 60.2983 102.2 60.2983 85.7085C60.2983 69.2168 46.856 55.8477 30.2741 55.8477C13.6923 55.8477 0.25 69.2168 0.25 85.7085C0.25 102.2 13.6923 115.569 30.2741 115.569Z" fill="#00757A"/>
<path d="M30.2747 108.636C43.0059 108.636 53.3267 98.3709 53.3267 85.7089C53.3267 73.0468 43.0059 62.7822 30.2747 62.7822C17.5434 62.7822 7.22266 73.0468 7.22266 85.7089C7.22266 98.3709 17.5434 108.636 30.2747 108.636Z" fill="#073837"/>
<path d="M30.2747 108.636C43.0059 108.636 53.3267 98.3709 53.3267 85.7089C53.3267 73.0468 43.0059 62.7822 30.2747 62.7822C17.5434 62.7822 7.22266 73.0468 7.22266 85.7089C7.22266 98.3709 17.5434 108.636 30.2747 108.636Z" fill="#073837"/>
<path d="M30.276 106.949C42.0706 106.949 51.6321 97.4392 51.6321 85.7087C51.6321 73.9782 42.0706 64.4688 30.276 64.4688C18.4814 64.4688 8.91992 73.9782 8.91992 85.7087C8.91992 97.4392 18.4814 106.949 30.276 106.949Z" fill="#0A5959"/>
<path d="M30.276 106.949C42.0706 106.949 51.6321 97.4392 51.6321 85.7087C51.6321 73.9782 42.0706 64.4688 30.276 64.4688C18.4814 64.4688 8.91992 73.9782 8.91992 85.7087C8.91992 97.4392 18.4814 106.949 30.276 106.949Z" fill="#0A5959"/>
<path d="M41.4557 113.696C37.8754 115.132 33.9811 115.882 29.8983 115.82C21.7956 115.695 14.2581 112.509 8.60503 106.761C2.95196 101.014 -0.125831 93.3928 -0.000206679 85.3341C0.188229 68.717 13.9441 55.3483 30.652 55.5982C47.36 55.7856 60.8018 69.4666 60.5505 86.0837C60.4249 98.6403 52.5734 109.323 41.4557 113.696ZM19.3459 58.2219C8.47941 62.5324 0.753537 73.0274 0.627913 85.3341C0.502289 93.2054 3.51726 100.702 9.04472 106.324C14.5722 111.946 21.984 115.132 29.9611 115.257C46.355 115.445 59.8596 102.389 60.048 86.0837C60.2365 69.779 47.1088 56.3478 30.7149 56.1604C26.6949 56.0979 22.8634 56.8476 19.3459 58.2219Z" fill="url(#paint36_linear)"/>
<path d="M41.4557 113.696C37.8754 115.132 33.9811 115.882 29.8983 115.82C21.7956 115.695 14.2581 112.509 8.60503 106.761C2.95196 101.014 -0.125831 93.3928 -0.000206679 85.3341C0.188229 68.717 13.9441 55.3483 30.652 55.5982C47.36 55.7856 60.8018 69.4666 60.5505 86.0837C60.4249 98.6403 52.5734 109.323 41.4557 113.696ZM19.3459 58.2219C8.47941 62.5324 0.753537 73.0274 0.627913 85.3341C0.502289 93.2054 3.51726 100.702 9.04472 106.324C14.5722 111.946 21.984 115.132 29.9611 115.257C46.355 115.445 59.8596 102.389 60.048 86.0837C60.2365 69.779 47.1088 56.3478 30.7149 56.1604C26.6949 56.0979 22.8634 56.8476 19.3459 58.2219Z" fill="url(#paint37_linear)"/>
<path d="M35.4893 73.3398H35.4265H35.3637C35.3637 73.3398 35.3637 73.3398 35.3009 73.3398C35.3009 73.3398 35.3009 73.3398 35.2381 73.3398H35.1752C35.1124 73.3398 35.0496 73.3398 34.9868 73.3398L20.1632 73.1523C18.7813 73.1523 17.5879 74.2768 17.5879 75.6512C17.5879 77.0255 18.7185 78.2124 20.1004 78.2124L34.924 78.3999C34.9868 78.3999 35.0496 78.3999 35.1124 78.3999C35.1752 78.3999 35.2381 78.3999 35.3009 78.3999C38.1274 78.4623 40.3886 80.7113 40.3258 83.5224C40.263 86.3336 38.0018 88.5825 35.1752 88.5201L30.0875 88.4576V85.8963L35.1752 85.9588C36.5571 85.9588 37.7505 84.8343 37.7505 83.46C37.7505 82.0856 36.6199 80.8987 35.2381 80.8987L23.3666 80.7737C21.9847 80.7737 20.7913 81.8982 20.7913 83.2726C20.7913 84.6469 21.9219 85.8338 23.3038 85.8338H24.9997V88.3951L24.9369 93.4552L24.8741 99.3899C24.8741 100.764 26.0047 101.951 27.3866 101.951C28.7684 101.951 29.9619 100.827 29.9619 99.4524L30.0247 93.5177L35.1124 93.5802C40.7655 93.6427 45.3508 89.1448 45.4136 83.5849C45.5392 78.025 41.0796 73.4022 35.4893 73.3398Z" fill="#073837"/>
<path d="M34.4209 72.2157H34.3581H34.2953C34.2953 72.2157 34.2953 72.2157 34.2325 72.2157C34.2325 72.2157 34.2325 72.2157 34.1697 72.2157H34.1069C34.0441 72.2157 33.9813 72.2157 33.9184 72.2157L19.0948 72.0283C17.713 72.0283 16.5195 73.1528 16.5195 74.5271C16.5195 75.9015 17.6501 77.0884 19.032 77.0884L33.8556 77.2758C33.9184 77.2758 33.9813 77.2758 34.0441 77.2758C34.1069 77.2758 34.1697 77.2758 34.2325 77.2758C37.059 77.3383 39.3203 79.5872 39.2575 82.3984C39.1947 85.2096 36.9334 87.4585 34.1069 87.396L29.0191 87.3336V84.7723L34.1069 84.8348C35.4887 84.8348 36.6822 83.7103 36.6822 82.3359C36.6822 80.9616 35.5516 79.7746 34.1697 79.7746L22.2982 79.6497C20.9164 79.6497 19.7229 80.7742 19.7229 82.1485C19.7229 83.5229 20.8536 84.7098 22.2354 84.7098H23.9313V87.2711L23.8685 92.3312L23.8057 98.2659C23.8057 99.6402 24.9363 100.827 26.3182 100.827C27.7001 100.827 28.8935 99.7027 28.8935 98.3284L28.9563 92.3937L34.0441 92.4561C39.6972 92.5186 44.2824 88.0207 44.3452 82.4609C44.5337 76.901 40.074 72.3407 34.4209 72.2157Z" fill="url(#paint38_linear)"/>
</g>
<defs>
<linearGradient id="paint0_linear" x1="29.7239" y1="87.3043" x2="90.3178" y2="88.0507" gradientUnits="userSpaceOnUse">
<stop offset="0.00121702" stop-color="#00FFED"/>
<stop offset="0.3575" stop-color="#00FFEB" stop-opacity="0.8571"/>
<stop offset="0.5109" stop-color="#00FEE4" stop-opacity="0.7956"/>
<stop offset="0.6253" stop-color="#00FCD7" stop-opacity="0.7497"/>
<stop offset="0.7205" stop-color="#00F9C5" stop-opacity="0.7116"/>
<stop offset="0.8036" stop-color="#00F6AE" stop-opacity="0.6783"/>
<stop offset="0.8783" stop-color="#00F292" stop-opacity="0.6483"/>
<stop offset="0.9452" stop-color="#00EE71" stop-opacity="0.6215"/>
<stop offset="0.9988" stop-color="#00E950" stop-opacity="0.6"/>
</linearGradient>
<linearGradient id="paint1_linear" x1="29.7239" y1="87.3043" x2="90.3178" y2="88.0507" gradientUnits="userSpaceOnUse">
<stop offset="0.00121702" stop-color="#00FFED"/>
<stop offset="0.3575" stop-color="#00FFEB" stop-opacity="0.8571"/>
<stop offset="0.5109" stop-color="#00FEE4" stop-opacity="0.7956"/>
<stop offset="0.6253" stop-color="#00FCD7" stop-opacity="0.7497"/>
<stop offset="0.7205" stop-color="#00F9C5" stop-opacity="0.7116"/>
<stop offset="0.8036" stop-color="#00F6AE" stop-opacity="0.6783"/>
<stop offset="0.8783" stop-color="#00F292" stop-opacity="0.6483"/>
<stop offset="0.9452" stop-color="#00EE71" stop-opacity="0.6215"/>
<stop offset="0.9988" stop-color="#00E950" stop-opacity="0.6"/>
</linearGradient>
<linearGradient id="paint2_linear" x1="72.9771" y1="73.5736" x2="41.1335" y2="104.519" gradientUnits="userSpaceOnUse">
<stop stop-color="#00A8A1"/>
<stop offset="1" stop-color="#41FF7A"/>
</linearGradient>
<linearGradient id="paint3_linear" x1="29.724" y1="73.9253" x2="90.3178" y2="74.6717" gradientUnits="userSpaceOnUse">
<stop offset="0.00121702" stop-color="#00FFED"/>
<stop offset="0.3575" stop-color="#00FFEB" stop-opacity="0.8571"/>
<stop offset="0.5109" stop-color="#00FEE4" stop-opacity="0.7956"/>
<stop offset="0.6253" stop-color="#00FCD7" stop-opacity="0.7497"/>
<stop offset="0.7205" stop-color="#00F9C5" stop-opacity="0.7116"/>
<stop offset="0.8036" stop-color="#00F6AE" stop-opacity="0.6783"/>
<stop offset="0.8783" stop-color="#00F292" stop-opacity="0.6483"/>
<stop offset="0.9452" stop-color="#00EE71" stop-opacity="0.6215"/>
<stop offset="0.9988" stop-color="#00E950" stop-opacity="0.6"/>
</linearGradient>
<linearGradient id="paint4_linear" x1="29.724" y1="73.9253" x2="90.3178" y2="74.6717" gradientUnits="userSpaceOnUse">
<stop offset="0.00121702" stop-color="#00FFED"/>
<stop offset="0.3575" stop-color="#00FFEB" stop-opacity="0.8571"/>
<stop offset="0.5109" stop-color="#00FEE4" stop-opacity="0.7956"/>
<stop offset="0.6253" stop-color="#00FCD7" stop-opacity="0.7497"/>
<stop offset="0.7205" stop-color="#00F9C5" stop-opacity="0.7116"/>
<stop offset="0.8036" stop-color="#00F6AE" stop-opacity="0.6783"/>
<stop offset="0.8783" stop-color="#00F292" stop-opacity="0.6483"/>
<stop offset="0.9452" stop-color="#00EE71" stop-opacity="0.6215"/>
<stop offset="0.9988" stop-color="#00E950" stop-opacity="0.6"/>
</linearGradient>
<linearGradient id="paint5_linear" x1="72.9771" y1="60.1945" x2="41.1336" y2="91.1395" gradientUnits="userSpaceOnUse">
<stop stop-color="#00A8A1"/>
<stop offset="1" stop-color="#41FF7A"/>
</linearGradient>
<linearGradient id="paint6_linear" x1="29.724" y1="60.7052" x2="90.3178" y2="61.4515" gradientUnits="userSpaceOnUse">
<stop offset="0.00121702" stop-color="#00FFED"/>
<stop offset="0.3575" stop-color="#00FFEB" stop-opacity="0.8571"/>
<stop offset="0.5109" stop-color="#00FEE4" stop-opacity="0.7956"/>
<stop offset="0.6253" stop-color="#00FCD7" stop-opacity="0.7497"/>
<stop offset="0.7205" stop-color="#00F9C5" stop-opacity="0.7116"/>
<stop offset="0.8036" stop-color="#00F6AE" stop-opacity="0.6783"/>
<stop offset="0.8783" stop-color="#00F292" stop-opacity="0.6483"/>
<stop offset="0.9452" stop-color="#00EE71" stop-opacity="0.6215"/>
<stop offset="0.9988" stop-color="#00E950" stop-opacity="0.6"/>
</linearGradient>
<linearGradient id="paint7_linear" x1="29.724" y1="60.7052" x2="90.3178" y2="61.4515" gradientUnits="userSpaceOnUse">
<stop offset="0.00121702" stop-color="#00FFED"/>
<stop offset="0.3575" stop-color="#00FFEB" stop-opacity="0.8571"/>
<stop offset="0.5109" stop-color="#00FEE4" stop-opacity="0.7956"/>
<stop offset="0.6253" stop-color="#00FCD7" stop-opacity="0.7497"/>
<stop offset="0.7205" stop-color="#00F9C5" stop-opacity="0.7116"/>
<stop offset="0.8036" stop-color="#00F6AE" stop-opacity="0.6783"/>
<stop offset="0.8783" stop-color="#00F292" stop-opacity="0.6483"/>
<stop offset="0.9452" stop-color="#00EE71" stop-opacity="0.6215"/>
<stop offset="0.9988" stop-color="#00E950" stop-opacity="0.6"/>
</linearGradient>
<linearGradient id="paint8_linear" x1="72.9771" y1="46.9743" x2="41.1336" y2="77.9194" gradientUnits="userSpaceOnUse">
<stop stop-color="#00A8A1"/>
<stop offset="1" stop-color="#41FF7A"/>
</linearGradient>
<linearGradient id="paint9_linear" x1="29.724" y1="47.486" x2="90.3178" y2="48.2323" gradientUnits="userSpaceOnUse">
<stop offset="0.00121702" stop-color="#00FFED"/>
<stop offset="0.3575" stop-color="#00FFEB" stop-opacity="0.8571"/>
<stop offset="0.5109" stop-color="#00FEE4" stop-opacity="0.7956"/>
<stop offset="0.6253" stop-color="#00FCD7" stop-opacity="0.7497"/>
<stop offset="0.7205" stop-color="#00F9C5" stop-opacity="0.7116"/>
<stop offset="0.8036" stop-color="#00F6AE" stop-opacity="0.6783"/>
<stop offset="0.8783" stop-color="#00F292" stop-opacity="0.6483"/>
<stop offset="0.9452" stop-color="#00EE71" stop-opacity="0.6215"/>
<stop offset="0.9988" stop-color="#00E950" stop-opacity="0.6"/>
</linearGradient>
<linearGradient id="paint10_linear" x1="29.724" y1="47.486" x2="90.3178" y2="48.2323" gradientUnits="userSpaceOnUse">
<stop offset="0.00121702" stop-color="#00FFED"/>
<stop offset="0.3575" stop-color="#00FFEB" stop-opacity="0.8571"/>
<stop offset="0.5109" stop-color="#00FEE4" stop-opacity="0.7956"/>
<stop offset="0.6253" stop-color="#00FCD7" stop-opacity="0.7497"/>
<stop offset="0.7205" stop-color="#00F9C5" stop-opacity="0.7116"/>
<stop offset="0.8036" stop-color="#00F6AE" stop-opacity="0.6783"/>
<stop offset="0.8783" stop-color="#00F292" stop-opacity="0.6483"/>
<stop offset="0.9452" stop-color="#00EE71" stop-opacity="0.6215"/>
<stop offset="0.9988" stop-color="#00E950" stop-opacity="0.6"/>
</linearGradient>
<linearGradient id="paint11_linear" x1="72.9771" y1="33.7551" x2="41.1335" y2="64.7001" gradientUnits="userSpaceOnUse">
<stop stop-color="#00A8A1"/>
<stop offset="1" stop-color="#41FF7A"/>
</linearGradient>
<linearGradient id="paint12_linear" x1="29.724" y1="34.2658" x2="90.3178" y2="35.0122" gradientUnits="userSpaceOnUse">
<stop offset="0.00121702" stop-color="#00FFED"/>
<stop offset="0.3575" stop-color="#00FFEB" stop-opacity="0.8571"/>
<stop offset="0.5109" stop-color="#00FEE4" stop-opacity="0.7956"/>
<stop offset="0.6253" stop-color="#00FCD7" stop-opacity="0.7497"/>
<stop offset="0.7205" stop-color="#00F9C5" stop-opacity="0.7116"/>
<stop offset="0.8036" stop-color="#00F6AE" stop-opacity="0.6783"/>
<stop offset="0.8783" stop-color="#00F292" stop-opacity="0.6483"/>
<stop offset="0.9452" stop-color="#00EE71" stop-opacity="0.6215"/>
<stop offset="0.9988" stop-color="#00E950" stop-opacity="0.6"/>
</linearGradient>
<linearGradient id="paint13_linear" x1="29.724" y1="34.2658" x2="90.3178" y2="35.0122" gradientUnits="userSpaceOnUse">
<stop offset="0.00121702" stop-color="#00FFED"/>
<stop offset="0.3575" stop-color="#00FFEB" stop-opacity="0.8571"/>
<stop offset="0.5109" stop-color="#00FEE4" stop-opacity="0.7956"/>
<stop offset="0.6253" stop-color="#00FCD7" stop-opacity="0.7497"/>
<stop offset="0.7205" stop-color="#00F9C5" stop-opacity="0.7116"/>
<stop offset="0.8036" stop-color="#00F6AE" stop-opacity="0.6783"/>
<stop offset="0.8783" stop-color="#00F292" stop-opacity="0.6483"/>
<stop offset="0.9452" stop-color="#00EE71" stop-opacity="0.6215"/>
<stop offset="0.9988" stop-color="#00E950" stop-opacity="0.6"/>
</linearGradient>
<linearGradient id="paint14_linear" x1="72.9771" y1="20.535" x2="41.1336" y2="51.48" gradientUnits="userSpaceOnUse">
<stop stop-color="#00A8A1"/>
<stop offset="1" stop-color="#41FF7A"/>
</linearGradient>
<linearGradient id="paint15_linear" x1="29.724" y1="21.0466" x2="90.3178" y2="21.793" gradientUnits="userSpaceOnUse">
<stop offset="0.00121702" stop-color="#00FFED"/>
<stop offset="0.3575" stop-color="#00FFEB" stop-opacity="0.8571"/>
<stop offset="0.5109" stop-color="#00FEE4" stop-opacity="0.7956"/>
<stop offset="0.6253" stop-color="#00FCD7" stop-opacity="0.7497"/>
<stop offset="0.7205" stop-color="#00F9C5" stop-opacity="0.7116"/>
<stop offset="0.8036" stop-color="#00F6AE" stop-opacity="0.6783"/>
<stop offset="0.8783" stop-color="#00F292" stop-opacity="0.6483"/>
<stop offset="0.9452" stop-color="#00EE71" stop-opacity="0.6215"/>
<stop offset="0.9988" stop-color="#00E950" stop-opacity="0.6"/>
</linearGradient>
<linearGradient id="paint16_linear" x1="29.724" y1="21.0466" x2="90.3178" y2="21.793" gradientUnits="userSpaceOnUse">
<stop offset="0.00121702" stop-color="#00FFED"/>
<stop offset="0.3575" stop-color="#00FFEB" stop-opacity="0.8571"/>
<stop offset="0.5109" stop-color="#00FEE4" stop-opacity="0.7956"/>
<stop offset="0.6253" stop-color="#00FCD7" stop-opacity="0.7497"/>
<stop offset="0.7205" stop-color="#00F9C5" stop-opacity="0.7116"/>
<stop offset="0.8036" stop-color="#00F6AE" stop-opacity="0.6783"/>
<stop offset="0.8783" stop-color="#00F292" stop-opacity="0.6483"/>
<stop offset="0.9452" stop-color="#00EE71" stop-opacity="0.6215"/>
<stop offset="0.9988" stop-color="#00E950" stop-opacity="0.6"/>
</linearGradient>
<linearGradient id="paint17_linear" x1="72.9771" y1="7.31573" x2="41.1336" y2="38.2608" gradientUnits="userSpaceOnUse">
<stop stop-color="#00A8A1"/>
<stop offset="1" stop-color="#41FF7A"/>
</linearGradient>
<linearGradient id="paint18_linear" x1="29.724" y1="7.8265" x2="90.3178" y2="8.57283" gradientUnits="userSpaceOnUse">
<stop offset="0.00121702" stop-color="#00FFED"/>
<stop offset="0.3575" stop-color="#00FFEB" stop-opacity="0.8571"/>
<stop offset="0.5109" stop-color="#00FEE4" stop-opacity="0.7956"/>
<stop offset="0.6253" stop-color="#00FCD7" stop-opacity="0.7497"/>
<stop offset="0.7205" stop-color="#00F9C5" stop-opacity="0.7116"/>
<stop offset="0.8036" stop-color="#00F6AE" stop-opacity="0.6783"/>
<stop offset="0.8783" stop-color="#00F292" stop-opacity="0.6483"/>
<stop offset="0.9452" stop-color="#00EE71" stop-opacity="0.6215"/>
<stop offset="0.9988" stop-color="#00E950" stop-opacity="0.6"/>
</linearGradient>
<linearGradient id="paint19_linear" x1="29.724" y1="7.8265" x2="90.3178" y2="8.57283" gradientUnits="userSpaceOnUse">
<stop offset="0.00121702" stop-color="#00FFED"/>
<stop offset="0.3575" stop-color="#00FFEB" stop-opacity="0.8571"/>
<stop offset="0.5109" stop-color="#00FEE4" stop-opacity="0.7956"/>
<stop offset="0.6253" stop-color="#00FCD7" stop-opacity="0.7497"/>
<stop offset="0.7205" stop-color="#00F9C5" stop-opacity="0.7116"/>
<stop offset="0.8036" stop-color="#00F6AE" stop-opacity="0.6783"/>
<stop offset="0.8783" stop-color="#00F292" stop-opacity="0.6483"/>
<stop offset="0.9452" stop-color="#00EE71" stop-opacity="0.6215"/>
<stop offset="0.9988" stop-color="#00E950" stop-opacity="0.6"/>
</linearGradient>
<linearGradient id="paint20_linear" x1="72.9771" y1="-5.90436" x2="41.1336" y2="25.0406" gradientUnits="userSpaceOnUse">
<stop stop-color="#00A8A1"/>
<stop offset="1" stop-color="#41FF7A"/>
</linearGradient>
<linearGradient id="paint21_linear" x1="90.4319" y1="94.7729" x2="151.026" y2="95.5192" gradientUnits="userSpaceOnUse">
<stop offset="0.00121702" stop-color="#00FFED"/>
<stop offset="0.3575" stop-color="#00FFEB" stop-opacity="0.8571"/>
<stop offset="0.5109" stop-color="#00FEE4" stop-opacity="0.7956"/>
<stop offset="0.6253" stop-color="#00FCD7" stop-opacity="0.7497"/>
<stop offset="0.7205" stop-color="#00F9C5" stop-opacity="0.7116"/>
<stop offset="0.8036" stop-color="#00F6AE" stop-opacity="0.6783"/>
<stop offset="0.8783" stop-color="#00F292" stop-opacity="0.6483"/>
<stop offset="0.9452" stop-color="#00EE71" stop-opacity="0.6215"/>
<stop offset="0.9988" stop-color="#00E950" stop-opacity="0.6"/>
</linearGradient>
<linearGradient id="paint22_linear" x1="90.4319" y1="94.7729" x2="151.026" y2="95.5192" gradientUnits="userSpaceOnUse">
<stop offset="0.00121702" stop-color="#00FFED"/>
<stop offset="0.3575" stop-color="#00FFEB" stop-opacity="0.8571"/>
<stop offset="0.5109" stop-color="#00FEE4" stop-opacity="0.7956"/>
<stop offset="0.6253" stop-color="#00FCD7" stop-opacity="0.7497"/>
<stop offset="0.7205" stop-color="#00F9C5" stop-opacity="0.7116"/>
<stop offset="0.8036" stop-color="#00F6AE" stop-opacity="0.6783"/>
<stop offset="0.8783" stop-color="#00F292" stop-opacity="0.6483"/>
<stop offset="0.9452" stop-color="#00EE71" stop-opacity="0.6215"/>
<stop offset="0.9988" stop-color="#00E950" stop-opacity="0.6"/>
</linearGradient>
<linearGradient id="paint23_linear" x1="133.689" y1="81.042" x2="101.845" y2="111.987" gradientUnits="userSpaceOnUse">
<stop stop-color="#00A8A1"/>
<stop offset="1" stop-color="#41FF7A"/>
</linearGradient>
<linearGradient id="paint24_linear" x1="90.4319" y1="81.5527" x2="151.026" y2="82.299" gradientUnits="userSpaceOnUse">
<stop offset="0.00121702" stop-color="#00FFED"/>
<stop offset="0.3575" stop-color="#00FFEB" stop-opacity="0.8571"/>
<stop offset="0.5109" stop-color="#00FEE4" stop-opacity="0.7956"/>
<stop offset="0.6253" stop-color="#00FCD7" stop-opacity="0.7497"/>
<stop offset="0.7205" stop-color="#00F9C5" stop-opacity="0.7116"/>
<stop offset="0.8036" stop-color="#00F6AE" stop-opacity="0.6783"/>
<stop offset="0.8783" stop-color="#00F292" stop-opacity="0.6483"/>
<stop offset="0.9452" stop-color="#00EE71" stop-opacity="0.6215"/>
<stop offset="0.9988" stop-color="#00E950" stop-opacity="0.6"/>
</linearGradient>
<linearGradient id="paint25_linear" x1="90.4319" y1="81.5527" x2="151.026" y2="82.299" gradientUnits="userSpaceOnUse">
<stop offset="0.00121702" stop-color="#00FFED"/>
<stop offset="0.3575" stop-color="#00FFEB" stop-opacity="0.8571"/>
<stop offset="0.5109" stop-color="#00FEE4" stop-opacity="0.7956"/>
<stop offset="0.6253" stop-color="#00FCD7" stop-opacity="0.7497"/>
<stop offset="0.7205" stop-color="#00F9C5" stop-opacity="0.7116"/>
<stop offset="0.8036" stop-color="#00F6AE" stop-opacity="0.6783"/>
<stop offset="0.8783" stop-color="#00F292" stop-opacity="0.6483"/>
<stop offset="0.9452" stop-color="#00EE71" stop-opacity="0.6215"/>
<stop offset="0.9988" stop-color="#00E950" stop-opacity="0.6"/>
</linearGradient>
<linearGradient id="paint26_linear" x1="133.689" y1="67.8219" x2="101.845" y2="98.7669" gradientUnits="userSpaceOnUse">
<stop stop-color="#00A8A1"/>
<stop offset="1" stop-color="#41FF7A"/>
</linearGradient>
<linearGradient id="paint27_linear" x1="90.432" y1="68.3335" x2="151.026" y2="69.0798" gradientUnits="userSpaceOnUse">
<stop offset="0.00121702" stop-color="#00FFED"/>
<stop offset="0.3575" stop-color="#00FFEB" stop-opacity="0.8571"/>
<stop offset="0.5109" stop-color="#00FEE4" stop-opacity="0.7956"/>
<stop offset="0.6253" stop-color="#00FCD7" stop-opacity="0.7497"/>
<stop offset="0.7205" stop-color="#00F9C5" stop-opacity="0.7116"/>
<stop offset="0.8036" stop-color="#00F6AE" stop-opacity="0.6783"/>
<stop offset="0.8783" stop-color="#00F292" stop-opacity="0.6483"/>
<stop offset="0.9452" stop-color="#00EE71" stop-opacity="0.6215"/>
<stop offset="0.9988" stop-color="#00E950" stop-opacity="0.6"/>
</linearGradient>
<linearGradient id="paint28_linear" x1="90.432" y1="68.3335" x2="151.026" y2="69.0798" gradientUnits="userSpaceOnUse">
<stop offset="0.00121702" stop-color="#00FFED"/>
<stop offset="0.3575" stop-color="#00FFEB" stop-opacity="0.8571"/>
<stop offset="0.5109" stop-color="#00FEE4" stop-opacity="0.7956"/>
<stop offset="0.6253" stop-color="#00FCD7" stop-opacity="0.7497"/>
<stop offset="0.7205" stop-color="#00F9C5" stop-opacity="0.7116"/>
<stop offset="0.8036" stop-color="#00F6AE" stop-opacity="0.6783"/>
<stop offset="0.8783" stop-color="#00F292" stop-opacity="0.6483"/>
<stop offset="0.9452" stop-color="#00EE71" stop-opacity="0.6215"/>
<stop offset="0.9988" stop-color="#00E950" stop-opacity="0.6"/>
</linearGradient>
<linearGradient id="paint29_linear" x1="133.689" y1="54.6027" x2="101.845" y2="85.5477" gradientUnits="userSpaceOnUse">
<stop stop-color="#00A8A1"/>
<stop offset="1" stop-color="#41FF7A"/>
</linearGradient>
<linearGradient id="paint30_linear" x1="90.4319" y1="55.1134" x2="151.026" y2="55.8597" gradientUnits="userSpaceOnUse">
<stop offset="0.00121702" stop-color="#00FFED"/>
<stop offset="0.3575" stop-color="#00FFEB" stop-opacity="0.8571"/>
<stop offset="0.5109" stop-color="#00FEE4" stop-opacity="0.7956"/>
<stop offset="0.6253" stop-color="#00FCD7" stop-opacity="0.7497"/>
<stop offset="0.7205" stop-color="#00F9C5" stop-opacity="0.7116"/>
<stop offset="0.8036" stop-color="#00F6AE" stop-opacity="0.6783"/>
<stop offset="0.8783" stop-color="#00F292" stop-opacity="0.6483"/>
<stop offset="0.9452" stop-color="#00EE71" stop-opacity="0.6215"/>
<stop offset="0.9988" stop-color="#00E950" stop-opacity="0.6"/>
</linearGradient>
<linearGradient id="paint31_linear" x1="90.4319" y1="55.1134" x2="151.026" y2="55.8597" gradientUnits="userSpaceOnUse">
<stop offset="0.00121702" stop-color="#00FFED"/>
<stop offset="0.3575" stop-color="#00FFEB" stop-opacity="0.8571"/>
<stop offset="0.5109" stop-color="#00FEE4" stop-opacity="0.7956"/>
<stop offset="0.6253" stop-color="#00FCD7" stop-opacity="0.7497"/>
<stop offset="0.7205" stop-color="#00F9C5" stop-opacity="0.7116"/>
<stop offset="0.8036" stop-color="#00F6AE" stop-opacity="0.6783"/>
<stop offset="0.8783" stop-color="#00F292" stop-opacity="0.6483"/>
<stop offset="0.9452" stop-color="#00EE71" stop-opacity="0.6215"/>
<stop offset="0.9988" stop-color="#00E950" stop-opacity="0.6"/>
</linearGradient>
<linearGradient id="paint32_linear" x1="133.689" y1="41.3825" x2="101.845" y2="72.3275" gradientUnits="userSpaceOnUse">
<stop stop-color="#00A8A1"/>
<stop offset="1" stop-color="#41FF7A"/>
</linearGradient>
<linearGradient id="paint33_linear" x1="65.2658" y1="117.126" x2="114.06" y2="77.8964" gradientUnits="userSpaceOnUse">
<stop offset="0.00121702" stop-color="#00FFED"/>
<stop offset="0.3575" stop-color="#00FFEB" stop-opacity="0.8571"/>
<stop offset="0.5109" stop-color="#00FEE4" stop-opacity="0.7956"/>
<stop offset="0.6253" stop-color="#00FCD7" stop-opacity="0.7497"/>
<stop offset="0.7205" stop-color="#00F9C5" stop-opacity="0.7116"/>
<stop offset="0.8036" stop-color="#00F6AE" stop-opacity="0.6783"/>
<stop offset="0.8783" stop-color="#00F292" stop-opacity="0.6483"/>
<stop offset="0.9452" stop-color="#00EE71" stop-opacity="0.6215"/>
<stop offset="0.9988" stop-color="#00E950" stop-opacity="0.6"/>
</linearGradient>
<linearGradient id="paint34_linear" x1="65.2658" y1="117.126" x2="114.06" y2="77.8964" gradientUnits="userSpaceOnUse">
<stop offset="0.00121702" stop-color="#00FFED"/>
<stop offset="0.3575" stop-color="#00FFEB" stop-opacity="0.8571"/>
<stop offset="0.5109" stop-color="#00FEE4" stop-opacity="0.7956"/>
<stop offset="0.6253" stop-color="#00FCD7" stop-opacity="0.7497"/>
<stop offset="0.7205" stop-color="#00F9C5" stop-opacity="0.7116"/>
<stop offset="0.8036" stop-color="#00F6AE" stop-opacity="0.6783"/>
<stop offset="0.8783" stop-color="#00F292" stop-opacity="0.6483"/>
<stop offset="0.9452" stop-color="#00EE71" stop-opacity="0.6215"/>
<stop offset="0.9988" stop-color="#00E950" stop-opacity="0.6"/>
</linearGradient>
<linearGradient id="paint35_linear" x1="89.0729" y1="68.4956" x2="80.858" y2="139.582" gradientUnits="userSpaceOnUse">
<stop stop-color="#00A8A1"/>
<stop offset="1" stop-color="#41FF7A"/>
</linearGradient>
<linearGradient id="paint36_linear" x1="0.00805937" y1="85.3502" x2="60.606" y2="86.0966" gradientUnits="userSpaceOnUse">
<stop offset="0.00121702" stop-color="#00FFED"/>
<stop offset="0.3575" stop-color="#00FFEB" stop-opacity="0.8571"/>
<stop offset="0.5109" stop-color="#00FEE4" stop-opacity="0.7956"/>
<stop offset="0.6253" stop-color="#00FCD7" stop-opacity="0.7497"/>
<stop offset="0.7205" stop-color="#00F9C5" stop-opacity="0.7116"/>
<stop offset="0.8036" stop-color="#00F6AE" stop-opacity="0.6783"/>
<stop offset="0.8783" stop-color="#00F292" stop-opacity="0.6483"/>
<stop offset="0.9452" stop-color="#00EE71" stop-opacity="0.6215"/>
<stop offset="0.9988" stop-color="#00E950" stop-opacity="0.6"/>
</linearGradient>
<linearGradient id="paint37_linear" x1="0.00805937" y1="85.3502" x2="60.606" y2="86.0966" gradientUnits="userSpaceOnUse">
<stop offset="0.00121702" stop-color="#00FFED"/>
<stop offset="0.3575" stop-color="#00FFEB" stop-opacity="0.8571"/>
<stop offset="0.5109" stop-color="#00FEE4" stop-opacity="0.7956"/>
<stop offset="0.6253" stop-color="#00FCD7" stop-opacity="0.7497"/>
<stop offset="0.7205" stop-color="#00F9C5" stop-opacity="0.7116"/>
<stop offset="0.8036" stop-color="#00F6AE" stop-opacity="0.6783"/>
<stop offset="0.8783" stop-color="#00F292" stop-opacity="0.6483"/>
<stop offset="0.9452" stop-color="#00EE71" stop-opacity="0.6215"/>
<stop offset="0.9988" stop-color="#00E950" stop-opacity="0.6"/>
</linearGradient>
<linearGradient id="paint38_linear" x1="47.7286" y1="63.5345" x2="-1.95925" y2="111.82" gradientUnits="userSpaceOnUse">
<stop stop-color="#00A8A1"/>
<stop offset="1" stop-color="#41FF7A"/>
</linearGradient>
<clipPath id="clip0">
<rect width="151" height="132" fill="white"/>
</clipPath>
</defs>
</svg>
