<svg className='text-white' width="28" height="29" viewBox="0 0 21 21" fill="text-white" xmlns="http://www.w3.org/2000/svg">
<path fill-rule="evenodd" clip-rule="evenodd" d="M4.3004 9.04591L10.2798 17.1996C10.6119 17.6525 11.2883 17.6525 11.6204 17.1996L17.5998 9.04591C17.8257 8.7379 17.8126 8.31561 17.5681 8.02219L15.253 5.24421C15.1256 5.09126 14.9475 4.98914 14.7511 4.95642L11.0867 4.34569C10.9963 4.3306 10.904 4.3306 10.8134 4.34569L7.14905 4.95642C6.95269 4.98914 6.77457 5.09126 6.64713 5.24421L4.33215 8.02219C4.08762 8.31561 4.07453 8.7379 4.3004 9.04591ZM2.95976 10.0291L8.93913 18.1827C9.93554 19.5415 11.9647 19.5415 12.961 18.1827L18.9405 10.0291C19.618 9.10503 19.5788 7.83815 18.8452 6.95788L16.5303 4.1799C16.1479 3.72108 15.6136 3.41472 15.0245 3.31654L11.3601 2.70581C11.0887 2.66056 10.8116 2.66056 10.5401 2.70581L6.87575 3.31654C6.28662 3.41472 5.75231 3.72108 5.36996 4.1799L3.05497 6.95788C2.32142 7.83815 2.28214 9.10503 2.95976 10.0291Z" fill="#777E91"/>
<path fill-rule="evenodd" clip-rule="evenodd" d="M14.8742 9.28765H17.6C18.0591 9.28765 18.4313 8.91548 18.4313 8.4564C18.4313 7.99732 18.0591 7.62515 17.6 7.62515H15.3924L16.0792 5.3354C16.2111 4.89567 15.9617 4.43227 15.522 4.30035C15.0822 4.16843 14.6188 4.41795 14.4869 4.85768L13.9866 6.52526L12.0253 3.5833C11.7856 3.22376 11.3821 3.00781 10.95 3.00781C10.5179 3.00781 10.1144 3.22376 9.8747 3.5833L7.91347 6.52516L7.41323 4.85768C7.28131 4.41795 6.81791 4.16843 6.37818 4.30035C5.93845 4.43227 5.68893 4.89567 5.82084 5.3354L6.50777 7.62515H4.3C3.84092 7.62515 3.46875 7.99732 3.46875 8.4564C3.46875 8.91548 3.84092 9.28765 4.3 9.28765H7.02587L9.91202 17.9461C10.061 18.3929 10.4791 18.6942 10.95 18.6942C11.4209 18.6942 11.839 18.3929 11.988 17.9461L14.8742 9.28765ZM12.7218 7.62515L10.95 4.96747L9.17822 7.62515H12.7218ZM8.7783 9.28765L10.95 15.8027L13.1217 9.28765H8.7783Z" fill="#777E91"/>
</svg>
