<svg width="482" height="360" viewBox="0 0 482 360" fill="none" xmlns="http://www.w3.org/2000/svg">
<g clip-path="url(#clip0)">
<path d="M269.812 182.015C276.037 198.173 272.511 214.607 261.825 218.743C251.193 222.879 237.477 213.118 231.252 196.96C225.027 180.802 228.553 164.368 239.24 160.232C249.871 156.096 263.587 165.857 269.812 182.015Z" fill="url(#paint0_linear)"/>
<path d="M256.756 219.956C247.061 219.956 236.374 210.802 231.031 197.07C228.001 189.184 227.175 181.022 228.662 174.074C230.205 167.07 233.895 162.052 239.128 160.066C249.87 155.875 263.752 165.747 270.032 182.015C276.311 198.283 272.676 214.883 261.934 219.074C260.281 219.625 258.519 219.956 256.756 219.956ZM244.362 159.57C242.654 159.57 240.946 159.846 239.349 160.508C234.281 162.493 230.7 167.346 229.213 174.184C227.726 181.077 228.552 189.129 231.527 196.905C237.696 212.897 251.247 222.603 261.769 218.522C272.235 214.441 275.76 198.118 269.591 182.125C264.358 168.559 253.836 159.57 244.362 159.57Z" fill="url(#paint1_linear)"/>
<path d="M356.57 48.3936L240.505 166.133C240.505 166.133 233.564 175.397 240.835 194.313C248.107 213.173 260.666 212.18 260.666 212.18L427.025 232.309L395.681 113.136L356.57 48.3936Z" fill="#323A51"/>
<path d="M471.203 109.441C491.53 161.996 479.907 215.544 445.258 228.945C410.609 242.345 366.1 210.636 345.773 158.026C325.446 105.47 337.069 51.9226 371.718 38.5219C406.367 25.1212 450.932 56.8859 471.203 109.441Z" fill="url(#paint2_linear)"/>
<path d="M428.623 232.805C425.097 232.805 421.517 232.419 417.826 231.703C408.407 229.772 398.932 225.471 389.732 218.908C370.838 205.453 354.973 183.945 345.058 158.357C335.198 132.769 332.443 106.188 337.401 83.4673C339.825 72.3827 343.901 62.8423 349.575 55.0665C355.469 46.9599 362.851 41.2246 371.444 37.8606C380.037 34.5518 389.402 33.8349 399.207 35.8753C408.627 37.8055 418.102 42.107 427.301 48.6695C446.195 62.1253 462.06 83.6327 471.975 109.221C481.836 134.809 484.59 161.39 479.632 184.111C477.209 195.195 473.132 204.736 467.458 212.511C461.564 220.618 454.183 226.353 445.589 229.717C440.191 231.758 434.517 232.805 428.623 232.805ZM388.355 36.2614C382.737 36.2614 377.228 37.254 371.995 39.2945C337.787 52.5298 326.384 105.692 346.49 157.805C366.596 209.919 410.83 241.519 444.983 228.283C479.192 215.048 490.594 161.886 470.488 109.772C453.467 65.6548 419.203 36.2614 388.355 36.2614Z" fill="url(#paint3_linear)"/>
<path d="M469.016 112.022C486.864 158.235 476.673 205.22 446.21 217.022C415.803 228.823 376.637 200.919 358.789 154.706C340.941 108.492 351.132 61.507 381.595 49.7056C412.057 37.9041 451.168 65.8085 469.016 112.022Z" fill="url(#paint4_linear)"/>
<path d="M220.176 256.574C215.329 269.147 218.083 281.997 226.401 285.195C234.719 288.394 245.35 280.783 250.198 268.21C255.045 255.636 252.291 242.787 243.973 239.588C235.655 236.39 225.024 244 220.176 256.574Z" fill="url(#paint5_linear)"/>
<path d="M230.312 286.188C228.935 286.188 227.558 285.967 226.236 285.416C222.16 283.817 219.24 279.956 218.028 274.442C216.872 268.982 217.477 262.585 219.846 256.464C222.215 250.342 226.016 245.159 230.588 241.905C235.16 238.651 239.952 237.714 244.029 239.313C248.105 240.912 251.025 244.773 252.237 250.287C253.393 255.747 252.787 262.144 250.419 268.265C246.287 279.019 237.914 286.188 230.312 286.188ZM220.177 256.574L220.397 256.684C218.083 262.751 217.422 268.982 218.579 274.331C219.736 279.626 222.545 283.431 226.456 284.92C227.723 285.416 229.045 285.637 230.368 285.637C237.694 285.637 245.902 278.633 249.978 268.1C252.292 262.034 252.953 255.802 251.796 250.453C250.639 245.159 247.83 241.353 243.919 239.865C240.008 238.32 235.38 239.258 230.973 242.401C226.512 245.6 222.766 250.673 220.452 256.684L220.177 256.574Z" fill="url(#paint6_linear)"/>
<path d="M162.006 167.787L242.982 244.221C242.982 244.221 248.381 251.445 242.707 266.169C237.033 280.894 227.228 280.122 227.228 280.122L99.8145 294.846L122.014 202.916L162.006 167.787Z" fill="#323A51"/>
<path d="M63.2385 200.048C47.4289 241.023 56.4629 282.714 83.4549 293.137C110.447 303.559 145.151 278.853 160.961 237.879C176.77 196.905 167.736 155.214 140.744 144.791C113.752 134.313 79.0481 159.074 63.2385 200.048Z" fill="url(#paint7_linear)"/>
<path d="M96.4557 296.335C91.8285 296.335 87.3666 295.508 83.125 293.853C69.8493 288.725 60.3746 276.041 56.5186 258.173C52.6626 240.416 54.8109 219.681 62.5229 199.717C70.2349 179.754 82.6292 162.989 97.3922 152.456C112.265 141.868 127.744 138.89 141.075 144.019C154.351 149.147 163.826 161.831 167.682 179.699C171.538 197.456 169.389 218.192 161.677 238.155C153.965 258.118 141.571 274.883 126.808 285.416C116.727 292.64 106.316 296.335 96.4557 296.335ZM63.239 200.048L63.9552 200.324C48.3108 240.857 57.1796 282.162 83.7309 292.42C87.8073 294.019 92.104 294.736 96.4557 294.736C120.418 294.736 147.024 271.85 160.3 237.603C175.944 197.07 167.076 155.765 140.524 145.508C127.744 140.545 112.706 143.467 98.3286 153.78C83.786 164.147 71.6121 180.692 64.0102 200.324L63.239 200.048Z" fill="url(#paint8_linear)"/>
<path d="M69.1326 202.365C55.196 238.376 63.1834 274.993 86.8702 284.148C110.557 293.302 141.075 271.574 155.011 235.618C168.948 199.663 160.96 162.99 137.274 153.835C113.587 144.626 83.0693 166.354 69.1326 202.365Z" fill="url(#paint9_linear)"/>
<path d="M372.703 273.77L372.704 273.77C380.754 275.691 385.763 283.859 383.792 291.859L383.791 291.862L372.995 336.972C372.995 336.972 372.995 336.972 372.995 336.972C371.076 344.977 362.917 349.994 354.924 348.073L354.923 348.073L290.638 332.687L290.422 332.635L290.239 332.761L269.145 347.207C269.144 347.207 269.144 347.208 269.143 347.208C263.458 351.035 256.026 345.911 257.626 339.246L257.626 339.246L264.287 311.416C264.32 311.313 264.337 311.226 264.35 311.163L264.351 311.157C264.364 311.088 264.373 311.047 264.39 310.997L264.397 310.976L264.402 310.955L275.198 265.845C277.117 257.84 285.276 252.824 293.269 254.744L293.27 254.744L372.703 273.77Z" fill="#323A51" stroke="black"/>
<path opacity="0.8" d="M368.523 259.662L289.089 240.637C280.827 238.651 272.398 243.835 270.415 252.107L259.619 297.218C259.563 297.383 259.563 297.493 259.508 297.659L252.843 325.508C251.135 332.622 259.068 338.082 265.127 334.001L286.225 319.552L350.51 334.938C358.773 336.924 367.201 331.74 369.184 323.468L379.981 278.357C382.019 270.085 376.841 261.648 368.523 259.662Z" fill="url(#paint10_linear)"/>
<path d="M260.611 336.206C258.903 336.206 257.196 335.655 255.653 334.607C252.624 332.511 251.247 328.927 252.128 325.342L258.793 297.438C258.793 297.328 258.848 297.162 258.903 296.997L269.7 251.886C271.793 243.173 280.607 237.769 289.311 239.864L368.744 258.89C372.931 259.883 376.511 262.53 378.825 266.225C381.139 269.92 381.8 274.331 380.808 278.522L370.011 323.633C369.02 327.824 366.376 331.409 362.685 333.725C358.994 335.986 354.587 336.703 350.401 335.71L286.391 320.379L265.569 334.662C264.026 335.655 262.319 336.206 260.611 336.206ZM285.455 240.967C278.789 240.967 272.73 245.545 271.132 252.272L260.336 297.383C260.281 297.548 260.281 297.658 260.225 297.824L253.56 325.728C252.734 329.258 254.497 332.015 256.48 333.339C258.463 334.717 261.658 335.434 264.632 333.339L286.006 318.67L350.731 334.166C354.532 335.103 358.498 334.442 361.859 332.401C365.219 330.361 367.588 327.107 368.469 323.302L379.266 278.192C380.202 274.386 379.541 270.416 377.503 267.052C375.465 263.688 372.215 261.317 368.414 260.434L288.98 241.409C287.768 241.078 286.612 240.967 285.455 240.967Z" fill="url(#paint11_linear)"/>
<path d="M187.621 146.721C184.977 146.721 182.388 145.728 180.35 143.743L158.095 122.567L76.0176 128.798C70.7294 129.184 65.5514 127.475 61.475 124C57.3987 120.526 54.9749 115.673 54.5342 110.324L50.1824 52.8607C49.7968 47.5665 51.5045 42.3827 54.9749 38.3018C58.4453 34.221 63.2928 31.7945 68.6362 31.3533L169.829 23.6879C180.846 22.8607 190.486 31.1327 191.312 42.1621L194.562 85.232C194.617 85.5077 194.617 85.7835 194.672 86.0041L198.363 135.085C198.694 139.607 196.38 143.633 192.304 145.563C190.761 146.39 189.164 146.721 187.621 146.721ZM158.646 120.967L181.397 142.585C184.206 145.232 188.117 145.894 191.643 144.239C195.113 142.585 197.151 139.166 196.821 135.25L193.13 86.1695C193.13 85.9489 193.075 85.7283 193.02 85.4526V85.3974L189.77 42.2724C188.998 32.1254 180.13 24.4599 169.939 25.232L68.7463 32.9526C63.8437 33.3386 59.3818 35.5996 56.1317 39.3496C52.8816 43.0996 51.3392 47.8974 51.7248 52.8055L56.0766 110.269C56.4622 115.177 58.7207 119.644 62.4666 122.897C66.2124 126.151 71.0048 127.695 75.9075 127.309L158.646 120.967Z" fill="url(#paint12_linear)"/>
<path opacity="0.7" d="M180.902 72.4929L177.652 29.3679C176.826 18.7797 167.571 10.7834 156.995 11.6106L55.8022 19.2209C45.2258 19.9929 37.2383 29.3128 38.0646 39.901L42.4164 97.3643C43.1876 107.952 52.4971 115.949 63.0735 115.122L145.427 108.89L167.957 130.287C174.567 136.519 185.364 131.39 184.703 122.346L181.012 73.265C180.957 72.9892 180.957 72.7135 180.902 72.4929Z" fill="url(#paint13_linear)"/>
<path d="M295.811 66.7577C292.065 54.4599 272.124 49.6621 251.247 56.0591C230.424 62.4562 216.543 77.6216 220.344 89.9194C224.089 102.217 244.03 107.015 264.908 100.618C285.73 94.2209 299.612 79.0554 295.811 66.7577Z" fill="#0F5454"/>
<path d="M293.057 58.6512C289.311 46.3534 269.37 41.5556 248.493 47.9527C227.67 54.3497 213.789 69.5152 217.59 81.813C221.336 94.1108 241.277 98.9086 262.154 92.5115C282.976 86.1144 296.858 70.949 293.057 58.6512Z" fill="#00757A"/>
<path d="M244.086 95.5995C230.7 95.5995 220.013 90.5811 217.369 81.8679C215.496 75.8017 217.755 68.9635 223.649 62.4561C229.543 56.0039 238.302 50.7649 248.438 47.6767C258.573 44.5885 268.819 43.9818 277.247 46.0223C285.731 48.0627 291.46 52.5296 293.277 58.5407C297.078 70.9488 283.142 86.2796 262.209 92.7318C255.984 94.662 249.76 95.5995 244.086 95.5995ZM266.671 45.3605C260.887 45.3605 254.717 46.298 248.603 48.173C238.577 51.2613 229.819 56.4451 224.035 62.787C218.251 69.1289 216.047 75.8017 217.865 81.7024C220.454 90.1951 230.92 95.048 244.031 95.048C249.705 95.048 255.819 94.1657 262.099 92.2355C282.756 85.8936 296.582 70.8385 292.837 58.7061C291.019 52.8605 285.455 48.5039 277.137 46.5186C273.887 45.7466 270.362 45.3605 266.671 45.3605Z" fill="url(#paint14_linear)"/>
<path d="M287.218 60.4705C284.023 50.1029 267.166 46.022 249.594 51.4264C231.967 56.8308 220.288 69.6249 223.483 80.0477C226.678 90.4154 243.535 94.4963 261.107 89.0919C278.734 83.6323 290.413 70.8382 287.218 60.4705Z" fill="#073837"/>
<path d="M285.73 61.9601C282.7 52.0888 266.78 48.2836 250.145 53.3572C233.509 58.4859 222.436 70.5631 225.466 80.4344C228.496 90.3057 244.416 94.1109 261.052 89.0373C277.742 83.9638 288.76 71.8314 285.73 61.9601Z" fill="#0A5959"/>
<path d="M268.709 60.0851C268.599 60.0299 268.599 60.0299 268.544 60.0851C268.544 60.0851 268.544 60.0851 268.489 60.0851C268.489 60.0851 268.489 60.0851 268.434 60.0851H268.379C268.269 60.0299 268.213 60.0851 268.213 60.0851L253.891 57.6035C252.569 57.3277 250.531 58.2101 249.374 59.4233C248.217 60.6366 248.438 61.9049 249.815 62.1255L264.137 64.6071C264.192 64.6071 264.302 64.6071 264.357 64.6071C264.468 64.6623 264.523 64.6071 264.523 64.6071C267.222 65.1035 267.608 67.5299 265.349 70.0116C263.091 72.5483 259.069 74.1476 256.37 73.7064L251.412 72.8792L253.451 70.6182L258.298 71.5005C259.62 71.7763 261.658 70.8939 262.815 69.6807C263.972 68.4674 263.752 67.1991 262.374 66.9785L255.048 65.7101L250.917 64.9932C249.595 64.7174 247.556 65.5998 246.4 66.813C245.243 68.0263 245.463 69.2946 246.84 69.5152L248.493 69.791L246.455 72.052L242.378 76.6292L237.586 81.9785C236.429 83.1917 236.649 84.4601 238.027 84.6807C239.349 84.9564 241.387 84.0741 242.544 82.8608L247.336 77.5116L252.294 78.3388C257.747 79.3314 265.79 75.9674 270.307 70.9491C274.769 65.9307 274.108 61.0777 268.709 60.0851Z" fill="#073837"/>
<path d="M268.047 58.9816C267.992 58.9264 267.992 58.9264 268.047 58.9816C267.937 58.9264 267.937 58.9264 267.882 58.9816C267.882 58.9816 267.882 58.9816 267.827 58.9816C267.827 58.9816 267.827 58.9816 267.772 58.9816H267.717C267.606 58.9264 267.551 58.9816 267.551 58.9816L253.229 56.5C251.907 56.2242 249.869 57.1066 248.712 58.3198C247.555 59.533 247.776 60.8014 249.153 61.022L263.475 63.5036C263.53 63.5036 263.64 63.5036 263.695 63.5036C263.806 63.5588 263.861 63.5036 263.861 63.5036C266.56 63.9999 266.945 66.4264 264.687 68.908C262.428 71.4448 258.407 73.0441 255.708 72.6029L250.75 71.7757L252.788 69.5147L257.636 70.397C258.958 70.6727 260.996 69.7904 262.153 68.5772C263.31 67.3639 263.089 66.0955 261.712 65.875L254.386 64.6066L250.254 63.8897C248.932 63.6139 246.894 64.4963 245.737 65.7095C244.581 66.9227 244.801 68.1911 246.178 68.4117L247.831 68.6875L245.793 70.9485L241.716 75.5257L236.924 80.875C235.767 82.0882 235.987 83.3566 237.364 83.5772C238.686 83.8529 240.725 82.9705 241.881 81.7573L246.674 76.408L251.632 77.2353C257.085 78.2279 265.128 74.8639 269.645 69.8455C274.162 64.772 273.39 59.9191 268.047 58.9816Z" fill="url(#paint15_linear)"/>
<path d="M37.0179 159.626C28.7551 155.71 16.6913 163.872 10.081 177.88C3.41563 191.887 4.73769 206.391 13.0005 210.306C21.2634 214.222 33.3272 206.06 39.9375 192.052C46.5478 178.1 45.2808 163.541 37.0179 159.626Z" fill="#0F5454"/>
<path d="M31.4554 157.199C23.1926 153.284 11.1288 161.445 4.51851 175.453C-2.14687 189.46 -0.824809 203.964 7.43805 207.879C15.7009 211.795 27.7647 203.633 34.375 189.626C40.9852 175.618 39.7183 161.115 31.4554 157.199Z" fill="#00757A"/>
<path d="M11.8438 209.093C10.2463 209.093 8.70391 208.762 7.27168 208.1C3.19534 206.17 0.661394 201.648 0.110536 195.471C-0.440321 189.295 1.04699 182.126 4.24196 175.343C10.9073 161.225 23.1915 153.008 31.5645 156.979C39.9375 160.949 41.2596 175.674 34.5942 189.791C29.0305 201.427 19.666 209.093 11.8438 209.093ZM26.9924 156.482C19.3905 156.482 10.1912 164.038 4.73774 175.563C1.54277 182.291 0.110536 189.35 0.606308 195.416C1.15716 201.427 3.58094 205.784 7.49202 207.659C8.86917 208.321 10.3014 208.596 11.8438 208.596C19.4456 208.596 28.6449 201.041 34.0984 189.515C40.6536 175.674 39.4417 161.28 31.289 157.42C29.967 156.758 28.5348 156.482 26.9924 156.482Z" fill="url(#paint16_linear)"/>
<path d="M29.5806 161.115C22.6398 157.806 12.3938 164.699 6.83018 176.556C1.21144 188.413 2.31316 200.655 9.30904 203.964C16.2498 207.273 26.4958 200.38 32.0594 188.523C37.6782 176.721 36.5765 164.424 29.5806 161.115Z" fill="#073837"/>
<path d="M29.6909 162.603C23.0807 159.46 13.4407 165.967 8.15243 177.162C2.8642 188.357 3.91083 199.938 10.5211 203.081C17.1314 206.225 26.7714 199.717 32.0596 188.522C37.3479 177.383 36.3012 165.747 29.6909 162.603Z" fill="#0A5959"/>
<path d="M20.5466 170.655C20.4915 170.655 20.4915 170.655 20.4364 170.71C20.4364 170.71 20.4364 170.71 20.4364 170.766C20.4364 170.766 20.4364 170.766 20.4364 170.821V170.876C20.3814 170.876 20.3263 170.931 20.3263 170.931L12.1185 177.273C11.3473 177.824 10.7964 179.313 10.9066 180.527C11.0168 181.74 11.7329 182.236 12.5592 181.574L20.767 175.233C20.767 175.177 20.8771 175.177 20.8771 175.122C20.9322 175.122 20.9873 175.067 20.9873 175.067C22.5297 173.854 24.017 174.846 24.1823 177.218C24.4577 179.644 23.356 182.512 21.8136 183.725L19.0042 185.931L18.839 183.78L21.5932 181.63C22.3644 181.078 22.9153 179.589 22.8051 178.376C22.695 177.163 21.9788 176.666 21.1526 177.328L16.966 180.582L14.5974 182.402C13.8262 182.953 13.2753 184.442 13.3855 185.655C13.4956 186.869 14.2118 187.365 15.038 186.703L15.9745 185.986L16.1948 188.137L16.6355 192.438L17.1313 197.512C17.2415 198.725 17.9576 199.221 18.7839 198.56C19.5551 198.008 20.1059 196.519 19.9958 195.306L19.5 190.233L22.3094 188.027C25.4492 185.655 27.5425 179.81 27.1018 175.012C26.4959 170.269 23.6314 168.284 20.5466 170.655Z" fill="#073837"/>
<path d="M19.6111 170.49C19.556 170.49 19.556 170.49 19.6111 170.49C19.556 170.49 19.556 170.49 19.5009 170.545C19.5009 170.545 19.5009 170.545 19.5009 170.6C19.5009 170.6 19.5009 170.6 19.5009 170.655V170.711C19.4458 170.711 19.3907 170.766 19.3907 170.766L11.183 177.108C10.4118 177.659 9.8609 179.148 9.97107 180.361C10.0812 181.574 10.7974 182.071 11.6236 181.409L19.8314 175.122C19.8314 175.067 19.9416 175.067 19.9416 175.012C19.9967 175.012 20.0518 174.957 20.0518 174.957C21.5942 173.744 23.0815 174.736 23.2467 177.108C23.5222 179.534 22.4204 182.402 20.878 183.615L18.0687 185.821L17.8483 183.67L20.6026 181.519C21.3738 180.968 21.9247 179.479 21.8145 178.266C21.7043 177.052 20.9882 176.556 20.1619 177.218L15.9754 180.472L13.6067 182.291C12.8355 182.843 12.2847 184.332 12.3948 185.545C12.505 186.758 13.2211 187.255 14.0474 186.593L14.9839 185.876L15.2042 188.027L15.6449 192.328L16.1407 197.402C16.2508 198.615 16.967 199.111 17.7932 198.449C18.5644 197.898 19.1153 196.409 19.0051 195.196L18.5094 190.122L21.3187 187.916C24.4586 185.545 26.5519 179.699 26.1112 174.902C25.6154 170.049 22.6959 168.119 19.6111 170.49Z" fill="url(#paint17_linear)"/>
<path d="M337.466 28.9978C341.116 24.1544 337.466 15.1899 329.276 8.98699C321.085 2.78407 311.494 1.63695 307.802 6.48033C304.152 11.3237 307.802 20.2882 315.992 26.4911C324.183 32.6941 333.774 33.8412 337.466 28.9978Z" fill="#0F5454"/>
<path d="M339.8 25.6843C343.45 20.8409 339.8 11.8764 331.61 5.67351C323.419 -0.529412 313.828 -1.67653 310.136 3.16685C306.486 8.01023 310.136 16.9747 318.326 23.1777C326.517 29.4231 336.151 30.5277 339.8 25.6843Z" fill="#00757A"/>
<path d="M332.627 28.8707C328.298 28.8707 323.036 26.9589 318.24 23.3476C309.965 17.0597 306.273 7.96774 309.965 3.08187C311.79 0.70267 315.058 -0.359474 319.174 0.107869C323.248 0.575213 327.704 2.52956 331.693 5.54605C339.969 11.8339 343.661 20.9259 339.927 25.8542C338.399 27.8936 335.768 28.8707 332.627 28.8707ZM317.307 0.362784C314.209 0.362784 311.747 1.38244 310.304 3.2943C306.697 8.05271 310.389 16.8898 318.453 23.0077C326.558 29.1681 336.022 30.2728 339.629 25.5569C343.237 20.7984 339.545 11.9614 331.481 5.84345C327.535 2.86945 323.163 0.957585 319.174 0.490241C318.495 0.40527 317.901 0.362784 317.307 0.362784Z" fill="url(#paint18_linear)"/>
<path d="M337.508 23.9421C340.606 19.8635 337.508 12.301 330.591 7.03278C323.673 1.76454 315.567 0.829854 312.469 4.90849C309.371 8.98712 312.469 16.5496 319.387 21.8178C326.304 27.0861 334.41 28.0208 337.508 23.9421Z" fill="#073837"/>
<path d="M336.491 23.8151C339.419 19.9489 336.491 12.7688 329.955 7.79795C323.419 2.82711 315.738 1.93491 312.81 5.80111C309.882 9.66732 312.81 16.8474 319.345 21.8183C325.881 26.7891 333.562 27.6813 336.491 23.8151Z" fill="#0A5959"/>
<path d="M332.543 16.7627C332.543 16.7203 332.543 16.7203 332.501 16.6778C332.501 16.6778 332.501 16.6778 332.458 16.6778C332.458 16.6778 332.458 16.6778 332.416 16.6778H332.373C332.373 16.6353 332.331 16.5928 332.331 16.5928L329.318 10.4324C329.063 9.83757 328.172 9.28525 327.366 9.20028C326.559 9.11531 326.135 9.54017 326.432 10.135L329.445 16.2954C329.487 16.2954 329.487 16.3804 329.53 16.3804C329.53 16.4229 329.572 16.4653 329.572 16.4653C330.124 17.655 329.318 18.4622 327.747 18.2498C326.135 18.0798 324.437 16.9752 323.843 15.8281L322.782 13.7038L324.183 13.8737L325.201 15.9555C325.456 16.5503 326.347 17.1026 327.153 17.1876C327.96 17.2726 328.384 16.8477 328.087 16.2529L326.559 13.109L325.71 11.3246C325.456 10.7298 324.565 10.1775 323.758 10.0925C322.952 10.0075 322.528 10.4324 322.825 11.0272L323.164 11.7494L321.764 11.5795L318.92 11.2821L315.568 10.8997C314.761 10.8147 314.337 11.2396 314.634 11.8344C314.889 12.4292 315.78 12.9815 316.586 13.0665L319.939 13.4489L321 15.5731C322.146 17.9099 325.626 20.0766 328.808 20.459C331.991 20.7139 333.646 19.0995 332.543 16.7627Z" fill="#073837"/>
<path d="M332.757 16.2095C332.799 16.167 332.799 16.167 332.757 16.2095C332.757 16.167 332.757 16.167 332.715 16.1246C332.715 16.1246 332.715 16.1246 332.672 16.1246C332.672 16.1246 332.672 16.1246 332.63 16.1246H332.587C332.587 16.0821 332.545 16.0396 332.545 16.0396L329.617 9.83666C329.362 9.24186 328.471 8.68955 327.664 8.60458C326.858 8.51961 326.434 8.94446 326.731 9.53926L329.744 15.7422C329.786 15.7422 329.786 15.8272 329.829 15.8272C329.829 15.8696 329.871 15.9121 329.871 15.9121C330.423 17.1017 329.617 17.909 328.046 17.6965C326.434 17.5266 324.736 16.422 324.142 15.2748L323.081 13.1506L324.481 13.3205L325.5 15.4023C325.755 15.9971 326.646 16.5494 327.452 16.6344C328.259 16.7194 328.683 16.2945 328.386 15.6997L326.858 12.5558L326.009 10.7714C325.755 10.1766 324.863 9.62424 324.057 9.53926C323.251 9.45429 322.826 9.87915 323.123 10.474L323.463 11.1962L322.062 11.0263L319.219 10.7289L315.866 10.3465C315.06 10.2615 314.636 10.6864 314.933 11.2812C315.187 11.876 316.079 12.4283 316.885 12.5133L320.238 12.8956L321.299 15.0199C322.444 17.3566 325.924 19.5234 329.107 19.9058C332.248 20.1607 333.903 18.5038 332.757 16.2095Z" fill="url(#paint19_linear)"/>
<path d="M147.134 46.1326L74.5308 51.0959C72.0519 51.2613 69.8485 49.3863 69.6832 46.8495L69.518 44.5334C69.3527 42.0517 71.2256 39.8459 73.7596 39.6804L146.363 34.7172C148.841 34.5517 151.045 36.4267 151.21 38.9635L151.375 41.2797C151.541 43.7613 149.613 45.9672 147.134 46.1326Z" fill="url(#paint20_linear)"/>
<path d="M148.786 67.8055L76.1831 72.7687C73.7042 72.9342 71.5008 71.0592 71.3356 68.5224L71.1703 66.2062C71.005 63.7246 72.878 61.5187 75.4119 61.3533L148.015 56.39C150.494 56.2246 152.697 58.0996 152.862 60.6364L153.028 62.9525C153.193 65.4342 151.265 67.64 148.786 67.8055Z" fill="url(#paint21_linear)"/>
<path d="M148.786 89.4783L76.1831 94.4416C73.7042 94.607 71.5008 92.732 71.3356 90.1952L71.1703 87.8791C71.005 85.3974 72.878 83.1916 75.4119 83.0261L148.015 78.0629C150.494 77.8974 152.697 79.7724 152.862 82.3092L153.028 84.6254C153.193 87.1622 151.265 89.3129 148.786 89.4783Z" fill="url(#paint22_linear)"/>
<path d="M354.697 283.43L294.819 269.147C292.725 268.651 291.403 266.5 291.899 264.404L292.395 262.254C292.891 260.158 295.039 258.835 297.132 259.331L357.01 273.614C359.104 274.11 360.426 276.261 359.93 278.357L359.434 280.507C358.938 282.603 356.79 283.926 354.697 283.43Z" fill="url(#paint23_linear)"/>
<path d="M350.566 300.361L290.688 286.078C288.595 285.581 287.273 283.431 287.768 281.335L288.264 279.184C288.76 277.089 290.908 275.765 293.001 276.262L352.88 290.545C354.973 291.041 356.295 293.192 355.799 295.287L355.303 297.438C354.863 299.534 352.714 300.857 350.566 300.361Z" fill="url(#paint24_linear)"/>
<path d="M346.16 317.457L286.282 303.173C284.188 302.677 282.866 300.526 283.362 298.431L283.858 296.28C284.354 294.184 286.502 292.861 288.595 293.357L348.473 307.64C350.567 308.137 351.889 310.287 351.393 312.383L350.897 314.534C350.401 316.629 348.253 317.953 346.16 317.457Z" fill="url(#paint25_linear)"/>
<path d="M432.809 316.794C447.352 316.794 459.14 304.992 459.14 290.434C459.14 275.875 447.352 264.073 432.809 264.073C418.267 264.073 406.479 275.875 406.479 290.434C406.479 304.992 418.267 316.794 432.809 316.794Z" fill="#0F5454"/>
<path d="M432.809 316.794C447.352 316.794 459.14 304.992 459.14 290.434C459.14 275.875 447.352 264.073 432.809 264.073C418.267 264.073 406.479 275.875 406.479 290.434C406.479 304.992 418.267 316.794 432.809 316.794Z" fill="#0F5454"/>
<path d="M434.241 313.375C448.783 313.375 460.572 301.573 460.572 287.015C460.572 272.456 448.783 260.654 434.241 260.654C419.699 260.654 407.91 272.456 407.91 287.015C407.91 301.573 419.699 313.375 434.241 313.375Z" fill="#00757A"/>
<path d="M434.241 313.375C448.783 313.375 460.572 301.573 460.572 287.015C460.572 272.456 448.783 260.654 434.241 260.654C419.699 260.654 407.91 272.456 407.91 287.015C407.91 301.573 419.699 313.375 434.241 313.375Z" fill="#00757A"/>
<path d="M434.242 307.253C445.407 307.253 454.458 298.192 454.458 287.014C454.458 275.837 445.407 266.775 434.242 266.775C423.077 266.775 414.025 275.837 414.025 287.014C414.025 298.192 423.077 307.253 434.242 307.253Z" fill="#073837"/>
<path d="M434.242 307.253C445.407 307.253 454.458 298.192 454.458 287.014C454.458 275.837 445.407 266.775 434.242 266.775C423.077 266.775 414.025 275.837 414.025 287.014C414.025 298.192 423.077 307.253 434.242 307.253Z" fill="#073837"/>
<path d="M434.241 305.765C444.585 305.765 452.97 297.37 452.97 287.015C452.97 276.659 444.585 268.265 434.241 268.265C423.897 268.265 415.512 276.659 415.512 287.015C415.512 297.37 423.897 305.765 434.241 305.765Z" fill="#0A5959"/>
<path d="M434.241 305.765C444.585 305.765 452.97 297.37 452.97 287.015C452.97 276.659 444.585 268.265 434.241 268.265C423.897 268.265 415.512 276.659 415.512 287.015C415.512 297.37 423.897 305.765 434.241 305.765Z" fill="#0A5959"/>
<path d="M434.187 313.596C430.827 313.596 427.411 312.934 424.106 311.61C417.551 308.908 412.428 303.779 409.729 297.217C407.03 290.654 406.974 283.43 409.729 276.868C415.292 263.302 430.882 256.849 444.433 262.419C457.984 267.989 464.429 283.596 458.865 297.162C454.568 307.364 444.653 313.596 434.187 313.596ZM434.242 260.875C423.996 260.875 414.246 266.941 410.114 277.033C407.47 283.485 407.47 290.544 410.114 296.996C412.814 303.449 417.826 308.412 424.216 311.114C437.492 316.629 452.751 310.232 458.259 296.941C463.768 283.651 457.378 268.375 444.102 262.86C440.907 261.537 437.547 260.875 434.242 260.875Z" fill="url(#paint26_linear)"/>
<path d="M434.187 313.596C430.827 313.596 427.411 312.934 424.106 311.61C417.551 308.908 412.428 303.779 409.729 297.217C407.03 290.654 406.974 283.43 409.729 276.868C415.292 263.302 430.882 256.849 444.433 262.419C457.984 267.989 464.429 283.596 458.865 297.162C454.568 307.364 444.653 313.596 434.187 313.596ZM434.242 260.875C423.996 260.875 414.246 266.941 410.114 277.033C407.47 283.485 407.47 290.544 410.114 296.996C412.814 303.449 417.826 308.412 424.216 311.114C437.492 316.629 452.751 310.232 458.259 296.941C463.768 283.651 457.378 268.375 444.102 262.86C440.907 261.537 437.547 260.875 434.242 260.875Z" fill="url(#paint27_linear)"/>
<path d="M442.504 278.522C442.449 278.522 442.449 278.522 442.504 278.522C442.449 278.467 442.394 278.467 442.394 278.467C442.394 278.467 442.394 278.467 442.339 278.467C442.339 278.467 442.339 278.467 442.284 278.467H442.229C442.173 278.412 442.118 278.412 442.063 278.412L430.055 273.448C428.898 272.952 427.631 273.503 427.135 274.662C426.639 275.82 427.19 277.088 428.347 277.584L440.356 282.548C440.411 282.548 440.466 282.603 440.521 282.603C440.576 282.658 440.631 282.658 440.686 282.658C442.945 283.595 444.046 286.242 443.11 288.503C442.173 290.764 439.529 291.867 437.271 290.93L433.139 289.22L433.966 287.18L438.097 288.889C439.254 289.386 440.521 288.834 441.017 287.676C441.512 286.518 440.962 285.25 439.805 284.753L430.165 280.783C429.008 280.287 427.741 280.838 427.245 281.996C426.749 283.154 427.3 284.423 428.457 284.919L429.834 285.47L429.008 287.511L427.3 291.647L425.317 296.445C424.821 297.603 425.372 298.871 426.529 299.367C427.686 299.864 428.953 299.312 429.449 298.154L431.432 293.356L435.563 295.066C440.135 296.941 445.368 294.79 447.241 290.213C449.169 285.636 447.021 280.397 442.504 278.522Z" fill="#073837"/>
<path d="M442.008 277.309C441.953 277.309 441.953 277.254 442.008 277.309C441.953 277.254 441.898 277.254 441.898 277.254C441.898 277.254 441.898 277.254 441.843 277.254C441.843 277.254 441.843 277.254 441.788 277.254H441.732C441.677 277.199 441.622 277.199 441.567 277.199L429.558 272.235C428.402 271.739 427.135 272.291 426.639 273.449C426.143 274.607 426.694 275.875 427.851 276.371L439.86 281.335C439.915 281.335 439.97 281.39 440.025 281.39C440.08 281.445 440.135 281.445 440.19 281.445C442.449 282.382 443.55 285.03 442.614 287.291C441.677 289.552 439.033 290.655 436.775 289.717L432.643 288.007L433.47 285.967L437.601 287.677C438.758 288.173 440.025 287.621 440.521 286.463C441.016 285.305 440.465 284.037 439.309 283.541L429.669 279.57C428.512 279.074 427.245 279.625 426.749 280.783C426.253 281.941 426.804 283.21 427.961 283.706L429.338 284.257L428.512 286.298L426.804 290.434L424.821 295.232C424.325 296.39 424.876 297.658 426.033 298.155C427.19 298.651 428.457 298.099 428.953 296.941L430.936 292.143L435.067 293.853C439.639 295.728 444.872 293.577 446.745 289C448.673 284.423 446.525 279.184 442.008 277.309Z" fill="url(#paint28_linear)"/>
<path d="M169.775 359.974C184.835 359.974 197.043 347.753 197.043 332.677C197.043 317.601 184.835 305.379 169.775 305.379C154.716 305.379 142.508 317.601 142.508 332.677C142.508 347.753 154.716 359.974 169.775 359.974Z" fill="#0F5454"/>
<path d="M169.775 359.974C184.835 359.974 197.043 347.753 197.043 332.677C197.043 317.601 184.835 305.379 169.775 305.379C154.716 305.379 142.508 317.601 142.508 332.677C142.508 347.753 154.716 359.974 169.775 359.974Z" fill="#0F5454"/>
<path d="M167.406 356.941C182.465 356.941 194.674 344.72 194.674 329.643C194.674 314.567 182.465 302.346 167.406 302.346C152.347 302.346 140.139 314.567 140.139 329.643C140.139 344.72 152.347 356.941 167.406 356.941Z" fill="#00757A"/>
<path d="M167.406 356.941C182.465 356.941 194.674 344.72 194.674 329.643C194.674 314.567 182.465 302.346 167.406 302.346C152.347 302.346 140.139 314.567 140.139 329.643C140.139 344.72 152.347 356.941 167.406 356.941Z" fill="#00757A"/>
<path d="M167.405 350.599C178.966 350.599 188.338 341.217 188.338 329.643C188.338 318.07 178.966 308.688 167.405 308.688C155.844 308.688 146.473 318.07 146.473 329.643C146.473 341.217 155.844 350.599 167.405 350.599Z" fill="#073837"/>
<path d="M167.405 350.599C178.966 350.599 188.338 341.217 188.338 329.643C188.338 318.07 178.966 308.688 167.405 308.688C155.844 308.688 146.473 318.07 146.473 329.643C146.473 341.217 155.844 350.599 167.405 350.599Z" fill="#073837"/>
<path d="M167.406 349.055C178.115 349.055 186.796 340.364 186.796 329.643C186.796 318.922 178.115 310.231 167.406 310.231C156.697 310.231 148.016 318.922 148.016 329.643C148.016 340.364 156.697 349.055 167.406 349.055Z" fill="#0A5959"/>
<path d="M167.406 349.055C178.115 349.055 186.796 340.364 186.796 329.643C186.796 318.922 178.115 310.231 167.406 310.231C156.697 310.231 148.016 318.922 148.016 329.643C148.016 340.364 156.697 349.055 167.406 349.055Z" fill="#0A5959"/>
<path d="M167.406 357.217C159.308 357.217 151.321 353.688 145.867 346.905C141.295 341.169 139.202 333.945 140.028 326.666C140.855 319.331 144.435 312.824 150.164 308.191C162.007 298.706 179.359 300.636 188.834 312.493C198.309 324.35 196.381 341.721 184.537 351.206C179.525 355.232 173.465 357.217 167.406 357.217ZM167.351 302.622C161.236 302.622 155.397 304.662 150.55 308.522C144.931 313.044 141.35 319.441 140.579 326.666C139.808 333.835 141.846 340.894 146.308 346.519C150.825 352.144 157.215 355.728 164.431 356.5C171.592 357.272 178.643 355.232 184.262 350.765C195.885 341.445 197.758 324.405 188.504 312.769C183.987 307.144 177.597 303.559 170.38 302.787C169.389 302.677 168.342 302.622 167.351 302.622Z" fill="url(#paint29_linear)"/>
<path d="M167.406 357.217C159.308 357.217 151.321 353.688 145.867 346.905C141.295 341.169 139.202 333.945 140.028 326.666C140.855 319.331 144.435 312.824 150.164 308.191C162.007 298.706 179.359 300.636 188.834 312.493C198.309 324.35 196.381 341.721 184.537 351.206C179.525 355.232 173.465 357.217 167.406 357.217ZM167.351 302.622C161.236 302.622 155.397 304.662 150.55 308.522C144.931 313.044 141.35 319.441 140.579 326.666C139.808 333.835 141.846 340.894 146.308 346.519C150.825 352.144 157.215 355.728 164.431 356.5C171.592 357.272 178.643 355.232 184.262 350.765C195.885 341.445 197.758 324.405 188.504 312.769C183.987 307.144 177.597 303.559 170.38 302.787C169.389 302.677 168.342 302.622 167.351 302.622Z" fill="url(#paint30_linear)"/>
<path d="M163.881 317.897C163.881 317.952 163.826 317.952 163.881 317.897C163.826 317.952 163.826 317.952 163.771 317.952C163.771 317.952 163.771 317.952 163.716 317.952C163.716 317.952 163.716 317.952 163.66 317.952L163.605 318.008C163.55 318.063 163.495 318.063 163.44 318.118L152.919 326.555C151.927 327.327 151.762 328.816 152.533 329.809C153.304 330.802 154.792 330.967 155.783 330.195L166.305 321.758C166.36 321.702 166.415 321.647 166.47 321.647C166.525 321.592 166.58 321.592 166.635 321.537C168.618 319.938 171.538 320.269 173.135 322.254C174.733 324.239 174.402 327.162 172.419 328.761L168.783 331.629L167.351 329.809L170.932 326.941C171.923 326.169 172.089 324.68 171.317 323.688C170.546 322.695 169.059 322.53 168.067 323.302L159.749 330.14C158.758 330.912 158.593 332.401 159.364 333.394C160.135 334.386 161.622 334.552 162.614 333.78L163.826 332.842L165.258 334.662L168.122 338.302L171.483 342.548C172.254 343.541 173.741 343.706 174.733 342.934C175.724 342.162 175.889 340.673 175.118 339.68L171.758 335.434L175.394 332.566C179.36 329.368 180.021 323.522 176.826 319.552C173.631 315.416 167.847 314.754 163.881 317.897Z" fill="#073837"/>
<path d="M162.504 317.732C162.504 317.787 162.504 317.787 162.504 317.732C162.449 317.787 162.449 317.787 162.394 317.787C162.394 317.787 162.394 317.787 162.339 317.787C162.339 317.787 162.339 317.787 162.284 317.787L162.228 317.842C162.173 317.897 162.118 317.897 162.063 317.952L151.542 326.39C150.55 327.162 150.385 328.651 151.156 329.643C151.927 330.636 153.415 330.802 154.406 330.03L164.928 321.592C164.983 321.537 165.038 321.482 165.093 321.482C165.148 321.427 165.203 321.427 165.258 321.371C167.241 319.772 170.161 320.103 171.758 322.088C173.356 324.074 173.025 326.996 171.042 328.596L167.406 331.463L165.974 329.643L169.555 326.776C170.546 326.004 170.712 324.515 169.94 323.522C169.169 322.53 167.682 322.364 166.69 323.136L158.262 329.864C157.271 330.636 157.105 332.125 157.877 333.118C158.648 334.11 160.135 334.276 161.127 333.504L162.339 332.566L163.771 334.386L166.635 338.026L169.995 342.272C170.767 343.265 172.254 343.43 173.246 342.658C174.237 341.886 174.402 340.397 173.631 339.405L170.271 335.158L173.907 332.291C177.873 329.092 178.534 323.246 175.339 319.276C172.309 315.25 166.525 314.588 162.504 317.732Z" fill="url(#paint31_linear)"/>
</g>
<defs>
<linearGradient id="paint0_linear" x1="228.208" y1="189.488" x2="272.899" y2="189.488" gradientUnits="userSpaceOnUse">
<stop offset="0.00510364" stop-color="#00FFED" stop-opacity="0.3"/>
<stop offset="0.36" stop-color="#00FFEB" stop-opacity="0.4071"/>
<stop offset="0.5128" stop-color="#00FEE4" stop-opacity="0.4533"/>
<stop offset="0.6268" stop-color="#00FCD7" stop-opacity="0.4877"/>
<stop offset="0.7215" stop-color="#00F9C5" stop-opacity="0.5163"/>
<stop offset="0.8043" stop-color="#00F6AE" stop-opacity="0.5413"/>
<stop offset="0.8787" stop-color="#00F292" stop-opacity="0.5638"/>
<stop offset="0.9454" stop-color="#00EE71" stop-opacity="0.5839"/>
<stop offset="0.9988" stop-color="#00E950" stop-opacity="0.6"/>
</linearGradient>
<linearGradient id="paint1_linear" x1="227.944" y1="189.489" x2="273.144" y2="189.489" gradientUnits="userSpaceOnUse">
<stop offset="0.00121702" stop-color="#00FFED"/>
<stop offset="0.3575" stop-color="#00FFEB" stop-opacity="0.8571"/>
<stop offset="0.5109" stop-color="#00FEE4" stop-opacity="0.7956"/>
<stop offset="0.6253" stop-color="#00FCD7" stop-opacity="0.7497"/>
<stop offset="0.7205" stop-color="#00F9C5" stop-opacity="0.7116"/>
<stop offset="0.8036" stop-color="#00F6AE" stop-opacity="0.6783"/>
<stop offset="0.8783" stop-color="#00F292" stop-opacity="0.6483"/>
<stop offset="0.9452" stop-color="#00EE71" stop-opacity="0.6215"/>
<stop offset="0.9988" stop-color="#00E950" stop-opacity="0.6"/>
</linearGradient>
<linearGradient id="paint2_linear" x1="335.79" y1="133.753" x2="481.229" y2="133.753" gradientUnits="userSpaceOnUse">
<stop offset="0.00510364" stop-color="#176465"/>
<stop offset="0.1673" stop-color="#177165"/>
<stop offset="0.467" stop-color="#179366"/>
<stop offset="0.868" stop-color="#18CA67"/>
<stop offset="0.9988" stop-color="#18DD67"/>
</linearGradient>
<linearGradient id="paint3_linear" x1="334.999" y1="133.753" x2="482.022" y2="133.753" gradientUnits="userSpaceOnUse">
<stop offset="0.00121702" stop-color="#00FFED"/>
<stop offset="0.3575" stop-color="#00FFEB" stop-opacity="0.8571"/>
<stop offset="0.5109" stop-color="#00FEE4" stop-opacity="0.7956"/>
<stop offset="0.6253" stop-color="#00FCD7" stop-opacity="0.7497"/>
<stop offset="0.7205" stop-color="#00F9C5" stop-opacity="0.7116"/>
<stop offset="0.8036" stop-color="#00F6AE" stop-opacity="0.6783"/>
<stop offset="0.8783" stop-color="#00F292" stop-opacity="0.6483"/>
<stop offset="0.9452" stop-color="#00EE71" stop-opacity="0.6215"/>
<stop offset="0.9988" stop-color="#00E950" stop-opacity="0.6"/>
</linearGradient>
<linearGradient id="paint4_linear" x1="456.917" y1="103.663" x2="282.722" y2="223.702" gradientUnits="userSpaceOnUse">
<stop stop-color="#161C2B"/>
<stop offset="0.4255" stop-color="#163739"/>
<stop offset="0.9934" stop-color="#16614F"/>
</linearGradient>
<linearGradient id="paint5_linear" x1="217.753" y1="262.392" x2="252.575" y2="262.392" gradientUnits="userSpaceOnUse">
<stop offset="0.00510364" stop-color="#00FFED" stop-opacity="0.3"/>
<stop offset="0.36" stop-color="#00FFEB" stop-opacity="0.4071"/>
<stop offset="0.5128" stop-color="#00FEE4" stop-opacity="0.4533"/>
<stop offset="0.6268" stop-color="#00FCD7" stop-opacity="0.4877"/>
<stop offset="0.7215" stop-color="#00F9C5" stop-opacity="0.5163"/>
<stop offset="0.8043" stop-color="#00F6AE" stop-opacity="0.5413"/>
<stop offset="0.8787" stop-color="#00F292" stop-opacity="0.5638"/>
<stop offset="0.9454" stop-color="#00EE71" stop-opacity="0.5839"/>
<stop offset="0.9988" stop-color="#00E950" stop-opacity="0.6"/>
</linearGradient>
<linearGradient id="paint6_linear" x1="217.492" y1="262.388" x2="252.838" y2="262.388" gradientUnits="userSpaceOnUse">
<stop offset="0.00121702" stop-color="#00FFED"/>
<stop offset="0.3575" stop-color="#00FFEB" stop-opacity="0.8571"/>
<stop offset="0.5109" stop-color="#00FEE4" stop-opacity="0.7956"/>
<stop offset="0.6253" stop-color="#00FCD7" stop-opacity="0.7497"/>
<stop offset="0.7205" stop-color="#00F9C5" stop-opacity="0.7116"/>
<stop offset="0.8036" stop-color="#00F6AE" stop-opacity="0.6783"/>
<stop offset="0.8783" stop-color="#00F292" stop-opacity="0.6483"/>
<stop offset="0.9452" stop-color="#00EE71" stop-opacity="0.6215"/>
<stop offset="0.9988" stop-color="#00E950" stop-opacity="0.6"/>
</linearGradient>
<linearGradient id="paint7_linear" x1="141.667" y1="166.576" x2="81.2154" y2="273.41" gradientUnits="userSpaceOnUse">
<stop offset="0.00510364" stop-color="#176465"/>
<stop offset="0.1673" stop-color="#177165"/>
<stop offset="0.467" stop-color="#179366"/>
<stop offset="0.868" stop-color="#18CA67"/>
<stop offset="0.9988" stop-color="#18DD67"/>
</linearGradient>
<linearGradient id="paint8_linear" x1="54.6401" y1="218.965" x2="169.538" y2="218.965" gradientUnits="userSpaceOnUse">
<stop offset="0.00121702" stop-color="#00FFED"/>
<stop offset="0.3575" stop-color="#00FFEB" stop-opacity="0.8571"/>
<stop offset="0.5109" stop-color="#00FEE4" stop-opacity="0.7956"/>
<stop offset="0.6253" stop-color="#00FCD7" stop-opacity="0.7497"/>
<stop offset="0.7205" stop-color="#00F9C5" stop-opacity="0.7116"/>
<stop offset="0.8036" stop-color="#00F6AE" stop-opacity="0.6783"/>
<stop offset="0.8783" stop-color="#00F292" stop-opacity="0.6483"/>
<stop offset="0.9452" stop-color="#00EE71" stop-opacity="0.6215"/>
<stop offset="0.9988" stop-color="#00E950" stop-opacity="0.6"/>
</linearGradient>
<linearGradient id="paint9_linear" x1="91.8002" y1="208.652" x2="166.486" y2="246.533" gradientUnits="userSpaceOnUse">
<stop stop-color="#161C2B"/>
<stop offset="0.4255" stop-color="#163739"/>
<stop offset="0.9934" stop-color="#16614F"/>
</linearGradient>
<linearGradient id="paint10_linear" x1="252.62" y1="287.796" x2="380.433" y2="287.796" gradientUnits="userSpaceOnUse">
<stop offset="0.00510364" stop-color="#00FFED" stop-opacity="0.3"/>
<stop offset="0.36" stop-color="#00FFEB" stop-opacity="0.4071"/>
<stop offset="0.5128" stop-color="#00FEE4" stop-opacity="0.4533"/>
<stop offset="0.6268" stop-color="#00FCD7" stop-opacity="0.4877"/>
<stop offset="0.7215" stop-color="#00F9C5" stop-opacity="0.5163"/>
<stop offset="0.8043" stop-color="#00F6AE" stop-opacity="0.5413"/>
<stop offset="0.8787" stop-color="#00F292" stop-opacity="0.5638"/>
<stop offset="0.9454" stop-color="#00EE71" stop-opacity="0.5839"/>
<stop offset="0.9988" stop-color="#00E950" stop-opacity="0.6"/>
</linearGradient>
<linearGradient id="paint11_linear" x1="251.847" y1="287.798" x2="381.211" y2="287.798" gradientUnits="userSpaceOnUse">
<stop offset="0.00121702" stop-color="#00FFED"/>
<stop offset="0.3575" stop-color="#00FFEB" stop-opacity="0.8571"/>
<stop offset="0.5109" stop-color="#00FEE4" stop-opacity="0.7956"/>
<stop offset="0.6253" stop-color="#00FCD7" stop-opacity="0.7497"/>
<stop offset="0.7205" stop-color="#00F9C5" stop-opacity="0.7116"/>
<stop offset="0.8036" stop-color="#00F6AE" stop-opacity="0.6783"/>
<stop offset="0.8783" stop-color="#00F292" stop-opacity="0.6483"/>
<stop offset="0.9452" stop-color="#00EE71" stop-opacity="0.6215"/>
<stop offset="0.9988" stop-color="#00E950" stop-opacity="0.6"/>
</linearGradient>
<linearGradient id="paint12_linear" x1="50.1369" y1="85.2048" x2="198.395" y2="85.2048" gradientUnits="userSpaceOnUse">
<stop offset="0.00121702" stop-color="#00FFED"/>
<stop offset="0.3575" stop-color="#00FFEB" stop-opacity="0.8571"/>
<stop offset="0.5109" stop-color="#00FEE4" stop-opacity="0.7956"/>
<stop offset="0.6253" stop-color="#00FCD7" stop-opacity="0.7497"/>
<stop offset="0.7205" stop-color="#00F9C5" stop-opacity="0.7116"/>
<stop offset="0.8036" stop-color="#00F6AE" stop-opacity="0.6783"/>
<stop offset="0.8783" stop-color="#00F292" stop-opacity="0.6483"/>
<stop offset="0.9452" stop-color="#00EE71" stop-opacity="0.6215"/>
<stop offset="0.9988" stop-color="#00E950" stop-opacity="0.6"/>
</linearGradient>
<linearGradient id="paint13_linear" x1="183.622" y1="155.449" x2="58.639" y2="-0.605175" gradientUnits="userSpaceOnUse">
<stop offset="0.00510364" stop-color="#00FFED" stop-opacity="0.3"/>
<stop offset="0.36" stop-color="#00FFEB" stop-opacity="0.4071"/>
<stop offset="0.5128" stop-color="#00FEE4" stop-opacity="0.4533"/>
<stop offset="0.6268" stop-color="#00FCD7" stop-opacity="0.4877"/>
<stop offset="0.7215" stop-color="#00F9C5" stop-opacity="0.5163"/>
<stop offset="0.8043" stop-color="#00F6AE" stop-opacity="0.5413"/>
<stop offset="0.8787" stop-color="#00F292" stop-opacity="0.5638"/>
<stop offset="0.9454" stop-color="#00EE71" stop-opacity="0.5839"/>
<stop offset="0.9988" stop-color="#00E950" stop-opacity="0.6"/>
</linearGradient>
<linearGradient id="paint14_linear" x1="266.384" y1="106.358" x2="244.233" y2="34.1018" gradientUnits="userSpaceOnUse">
<stop offset="0.00121702" stop-color="#00FFED"/>
<stop offset="0.3575" stop-color="#00FFEB" stop-opacity="0.8571"/>
<stop offset="0.5109" stop-color="#00FEE4" stop-opacity="0.7956"/>
<stop offset="0.6253" stop-color="#00FCD7" stop-opacity="0.7497"/>
<stop offset="0.7205" stop-color="#00F9C5" stop-opacity="0.7116"/>
<stop offset="0.8036" stop-color="#00F6AE" stop-opacity="0.6783"/>
<stop offset="0.8783" stop-color="#00F292" stop-opacity="0.6483"/>
<stop offset="0.9452" stop-color="#00EE71" stop-opacity="0.6215"/>
<stop offset="0.9988" stop-color="#00E950" stop-opacity="0.6"/>
</linearGradient>
<linearGradient id="paint15_linear" x1="253.19" y1="62.5625" x2="255.081" y2="79.3385" gradientUnits="userSpaceOnUse">
<stop stop-color="#00A8A1"/>
<stop offset="1" stop-color="#41FF7A"/>
</linearGradient>
<linearGradient id="paint16_linear" x1="43.5876" y1="194.092" x2="-5.0785" y2="171.001" gradientUnits="userSpaceOnUse">
<stop offset="0.00121702" stop-color="#00FFED"/>
<stop offset="0.3575" stop-color="#00FFEB" stop-opacity="0.8571"/>
<stop offset="0.5109" stop-color="#00FEE4" stop-opacity="0.7956"/>
<stop offset="0.6253" stop-color="#00FCD7" stop-opacity="0.7497"/>
<stop offset="0.7205" stop-color="#00F9C5" stop-opacity="0.7116"/>
<stop offset="0.8036" stop-color="#00F6AE" stop-opacity="0.6783"/>
<stop offset="0.8783" stop-color="#00F292" stop-opacity="0.6483"/>
<stop offset="0.9452" stop-color="#00EE71" stop-opacity="0.6215"/>
<stop offset="0.9988" stop-color="#00E950" stop-opacity="0.6"/>
</linearGradient>
<linearGradient id="paint17_linear" x1="14.2285" y1="179.978" x2="23.924" y2="187.016" gradientUnits="userSpaceOnUse">
<stop stop-color="#00A8A1"/>
<stop offset="1" stop-color="#41FF7A"/>
</linearGradient>
<linearGradient id="paint18_linear" x1="314.127" y1="28.686" x2="335.822" y2="0.120286" gradientUnits="userSpaceOnUse">
<stop offset="0.00121702" stop-color="#00FFED"/>
<stop offset="0.3575" stop-color="#00FFEB" stop-opacity="0.8571"/>
<stop offset="0.5109" stop-color="#00FEE4" stop-opacity="0.7956"/>
<stop offset="0.6253" stop-color="#00FCD7" stop-opacity="0.7497"/>
<stop offset="0.7205" stop-color="#00F9C5" stop-opacity="0.7116"/>
<stop offset="0.8036" stop-color="#00F6AE" stop-opacity="0.6783"/>
<stop offset="0.8783" stop-color="#00F292" stop-opacity="0.6483"/>
<stop offset="0.9452" stop-color="#00EE71" stop-opacity="0.6215"/>
<stop offset="0.9988" stop-color="#00E950" stop-opacity="0.6"/>
</linearGradient>
<linearGradient id="paint19_linear" x1="327.298" y1="11.4593" x2="321.404" y2="16.8014" gradientUnits="userSpaceOnUse">
<stop stop-color="#00A8A1"/>
<stop offset="1" stop-color="#41FF7A"/>
</linearGradient>
<linearGradient id="paint20_linear" x1="147.151" y1="19.7396" x2="-26.4158" y2="98.2121" gradientUnits="userSpaceOnUse">
<stop offset="0.00510364" stop-color="#00FFED"/>
<stop offset="0.36" stop-color="#00FFEB" stop-opacity="0.8571"/>
<stop offset="0.5128" stop-color="#00FEE4" stop-opacity="0.7956"/>
<stop offset="0.6268" stop-color="#00FCD7" stop-opacity="0.7497"/>
<stop offset="0.7215" stop-color="#00F9C5" stop-opacity="0.7116"/>
<stop offset="0.8043" stop-color="#00F6AE" stop-opacity="0.6783"/>
<stop offset="0.8787" stop-color="#00F292" stop-opacity="0.6483"/>
<stop offset="0.9454" stop-color="#00EE71" stop-opacity="0.6215"/>
<stop offset="0.9988" stop-color="#00E950" stop-opacity="0.6"/>
</linearGradient>
<linearGradient id="paint21_linear" x1="148.83" y1="41.4292" x2="-24.7361" y2="119.902" gradientUnits="userSpaceOnUse">
<stop offset="0.00510364" stop-color="#00FFED"/>
<stop offset="0.36" stop-color="#00FFEB" stop-opacity="0.8571"/>
<stop offset="0.5128" stop-color="#00FEE4" stop-opacity="0.7956"/>
<stop offset="0.6268" stop-color="#00FCD7" stop-opacity="0.7497"/>
<stop offset="0.7215" stop-color="#00F9C5" stop-opacity="0.7116"/>
<stop offset="0.8043" stop-color="#00F6AE" stop-opacity="0.6783"/>
<stop offset="0.8787" stop-color="#00F292" stop-opacity="0.6483"/>
<stop offset="0.9454" stop-color="#00EE71" stop-opacity="0.6215"/>
<stop offset="0.9988" stop-color="#00E950" stop-opacity="0.6"/>
</linearGradient>
<linearGradient id="paint22_linear" x1="148.83" y1="63.1161" x2="-24.736" y2="141.589" gradientUnits="userSpaceOnUse">
<stop offset="0.00510364" stop-color="#00FFED"/>
<stop offset="0.36" stop-color="#00FFEB" stop-opacity="0.8571"/>
<stop offset="0.5128" stop-color="#00FEE4" stop-opacity="0.7956"/>
<stop offset="0.6268" stop-color="#00FCD7" stop-opacity="0.7497"/>
<stop offset="0.7215" stop-color="#00F9C5" stop-opacity="0.7116"/>
<stop offset="0.8043" stop-color="#00F6AE" stop-opacity="0.6783"/>
<stop offset="0.8787" stop-color="#00F292" stop-opacity="0.6483"/>
<stop offset="0.9454" stop-color="#00EE71" stop-opacity="0.6215"/>
<stop offset="0.9988" stop-color="#00E950" stop-opacity="0.6"/>
</linearGradient>
<linearGradient id="paint23_linear" x1="361.714" y1="261.127" x2="200.18" y2="278.64" gradientUnits="userSpaceOnUse">
<stop offset="0.00510364" stop-color="#00FFED"/>
<stop offset="0.36" stop-color="#00FFEB" stop-opacity="0.8571"/>
<stop offset="0.5128" stop-color="#00FEE4" stop-opacity="0.7956"/>
<stop offset="0.6268" stop-color="#00FCD7" stop-opacity="0.7497"/>
<stop offset="0.7215" stop-color="#00F9C5" stop-opacity="0.7116"/>
<stop offset="0.8043" stop-color="#00F6AE" stop-opacity="0.6783"/>
<stop offset="0.8787" stop-color="#00F292" stop-opacity="0.6483"/>
<stop offset="0.9454" stop-color="#00EE71" stop-opacity="0.6215"/>
<stop offset="0.9988" stop-color="#00E950" stop-opacity="0.6"/>
</linearGradient>
<linearGradient id="paint24_linear" x1="357.598" y1="278.069" x2="196.063" y2="295.582" gradientUnits="userSpaceOnUse">
<stop offset="0.00510364" stop-color="#00FFED"/>
<stop offset="0.36" stop-color="#00FFEB" stop-opacity="0.8571"/>
<stop offset="0.5128" stop-color="#00FEE4" stop-opacity="0.7956"/>
<stop offset="0.6268" stop-color="#00FCD7" stop-opacity="0.7497"/>
<stop offset="0.7215" stop-color="#00F9C5" stop-opacity="0.7116"/>
<stop offset="0.8043" stop-color="#00F6AE" stop-opacity="0.6783"/>
<stop offset="0.8787" stop-color="#00F292" stop-opacity="0.6483"/>
<stop offset="0.9454" stop-color="#00EE71" stop-opacity="0.6215"/>
<stop offset="0.9988" stop-color="#00E950" stop-opacity="0.6"/>
</linearGradient>
<linearGradient id="paint25_linear" x1="353.177" y1="295.162" x2="191.642" y2="312.675" gradientUnits="userSpaceOnUse">
<stop offset="0.00510364" stop-color="#00FFED"/>
<stop offset="0.36" stop-color="#00FFEB" stop-opacity="0.8571"/>
<stop offset="0.5128" stop-color="#00FEE4" stop-opacity="0.7956"/>
<stop offset="0.6268" stop-color="#00FCD7" stop-opacity="0.7497"/>
<stop offset="0.7215" stop-color="#00F9C5" stop-opacity="0.7116"/>
<stop offset="0.8043" stop-color="#00F6AE" stop-opacity="0.6783"/>
<stop offset="0.8787" stop-color="#00F292" stop-opacity="0.6483"/>
<stop offset="0.9454" stop-color="#00EE71" stop-opacity="0.6215"/>
<stop offset="0.9988" stop-color="#00E950" stop-opacity="0.6"/>
</linearGradient>
<linearGradient id="paint26_linear" x1="409.671" y1="276.826" x2="458.818" y2="297.086" gradientUnits="userSpaceOnUse">
<stop offset="0.00121702" stop-color="#00FFED"/>
<stop offset="0.3575" stop-color="#00FFEB" stop-opacity="0.8571"/>
<stop offset="0.5109" stop-color="#00FEE4" stop-opacity="0.7956"/>
<stop offset="0.6253" stop-color="#00FCD7" stop-opacity="0.7497"/>
<stop offset="0.7205" stop-color="#00F9C5" stop-opacity="0.7116"/>
<stop offset="0.8036" stop-color="#00F6AE" stop-opacity="0.6783"/>
<stop offset="0.8783" stop-color="#00F292" stop-opacity="0.6483"/>
<stop offset="0.9452" stop-color="#00EE71" stop-opacity="0.6215"/>
<stop offset="0.9988" stop-color="#00E950" stop-opacity="0.6"/>
</linearGradient>
<linearGradient id="paint27_linear" x1="409.671" y1="276.826" x2="458.818" y2="297.086" gradientUnits="userSpaceOnUse">
<stop offset="0.00121702" stop-color="#00FFED"/>
<stop offset="0.3575" stop-color="#00FFEB" stop-opacity="0.8571"/>
<stop offset="0.5109" stop-color="#00FEE4" stop-opacity="0.7956"/>
<stop offset="0.6253" stop-color="#00FCD7" stop-opacity="0.7497"/>
<stop offset="0.7205" stop-color="#00F9C5" stop-opacity="0.7116"/>
<stop offset="0.8036" stop-color="#00F6AE" stop-opacity="0.6783"/>
<stop offset="0.8783" stop-color="#00F292" stop-opacity="0.6483"/>
<stop offset="0.9452" stop-color="#00EE71" stop-opacity="0.6215"/>
<stop offset="0.9988" stop-color="#00E950" stop-opacity="0.6"/>
</linearGradient>
<linearGradient id="paint28_linear" x1="455.671" y1="274.443" x2="399.283" y2="297.543" gradientUnits="userSpaceOnUse">
<stop stop-color="#00A8A1"/>
<stop offset="1" stop-color="#41FF7A"/>
</linearGradient>
<linearGradient id="paint29_linear" x1="145.888" y1="346.831" x2="188.901" y2="312.475" gradientUnits="userSpaceOnUse">
<stop offset="0.00121702" stop-color="#00FFED"/>
<stop offset="0.3575" stop-color="#00FFEB" stop-opacity="0.8571"/>
<stop offset="0.5109" stop-color="#00FEE4" stop-opacity="0.7956"/>
<stop offset="0.6253" stop-color="#00FCD7" stop-opacity="0.7497"/>
<stop offset="0.7205" stop-color="#00F9C5" stop-opacity="0.7116"/>
<stop offset="0.8036" stop-color="#00F6AE" stop-opacity="0.6783"/>
<stop offset="0.8783" stop-color="#00F292" stop-opacity="0.6483"/>
<stop offset="0.9452" stop-color="#00EE71" stop-opacity="0.6215"/>
<stop offset="0.9988" stop-color="#00E950" stop-opacity="0.6"/>
</linearGradient>
<linearGradient id="paint30_linear" x1="145.888" y1="346.831" x2="188.901" y2="312.475" gradientUnits="userSpaceOnUse">
<stop offset="0.00121702" stop-color="#00FFED"/>
<stop offset="0.3575" stop-color="#00FFEB" stop-opacity="0.8571"/>
<stop offset="0.5109" stop-color="#00FEE4" stop-opacity="0.7956"/>
<stop offset="0.6253" stop-color="#00FCD7" stop-opacity="0.7497"/>
<stop offset="0.7205" stop-color="#00F9C5" stop-opacity="0.7116"/>
<stop offset="0.8036" stop-color="#00F6AE" stop-opacity="0.6783"/>
<stop offset="0.8783" stop-color="#00F292" stop-opacity="0.6483"/>
<stop offset="0.9452" stop-color="#00EE71" stop-opacity="0.6215"/>
<stop offset="0.9988" stop-color="#00E950" stop-opacity="0.6"/>
</linearGradient>
<linearGradient id="paint31_linear" x1="166.767" y1="303.901" x2="159.469" y2="366.643" gradientUnits="userSpaceOnUse">
<stop stop-color="#00A8A1"/>
<stop offset="1" stop-color="#41FF7A"/>
</linearGradient>
<clipPath id="clip0">
<rect width="482" height="360" fill="white"/>
</clipPath>
</defs>
</svg>
