<svg width="192" height="122" viewBox="0 0 192 122" fill="none" xmlns="http://www.w3.org/2000/svg">
<path d="M172.163 98.5413C169.224 105.96 170.894 113.541 175.937 115.428C180.98 117.316 187.425 112.825 190.364 105.407C193.303 97.9881 191.633 90.4068 186.591 88.5196C181.581 86.6324 175.102 91.1226 172.163 98.5413Z" fill="url(#paint0_linear)"/>
<path d="M178.306 116.014C177.471 116.014 176.636 115.884 175.835 115.558C173.364 114.615 171.594 112.337 170.859 109.083C170.158 105.862 170.525 102.088 171.961 98.4758C173.397 94.8641 175.701 91.8056 178.473 89.8858C181.245 87.9661 184.151 87.413 186.622 88.3566C189.093 89.3002 190.863 91.5778 191.598 94.8316C192.299 98.0528 191.932 101.827 190.496 105.439C187.991 111.784 182.915 116.014 178.306 116.014ZM172.161 98.5409L172.295 98.606C170.892 102.185 170.491 105.862 171.193 109.018C171.894 112.142 173.597 114.387 175.969 115.265C176.737 115.558 177.538 115.688 178.34 115.688C182.781 115.688 187.758 111.556 190.229 105.341C191.632 101.762 192.032 98.0854 191.331 94.9292C190.63 91.8056 188.926 89.5605 186.555 88.6819C184.184 87.7709 181.379 88.324 178.707 90.1787C176.002 92.0659 173.731 95.0594 172.328 98.606L172.161 98.5409Z" fill="url(#paint1_linear)"/>
<path d="M136.896 46.1543L185.989 91.2517C185.989 91.2517 189.262 95.5141 185.822 104.202C182.382 112.889 176.437 112.434 176.437 112.434L99.2246 121.089L112.683 66.8483L136.896 46.1543Z" fill="#323A51"/>
<path d="M77.0157 65.1897C67.4309 89.3653 72.9079 113.964 89.2722 120.113C105.637 126.263 126.676 111.686 136.261 87.5106C145.846 63.3351 140.369 38.7365 124.005 32.5868C107.64 26.4372 86.6005 41.0141 77.0157 65.1897Z" fill="url(#paint2_linear)"/>
<path d="M97.1873 122C94.382 122 91.6769 121.512 89.1054 120.536C81.0568 117.51 75.3126 110.026 72.9748 99.484C70.6371 89.0068 71.9395 76.7726 76.6151 64.9939C81.2906 53.2153 88.8048 43.3238 97.7551 37.109C106.772 30.8618 116.157 29.1048 124.239 32.1308C132.287 35.1568 138.031 42.6405 140.369 53.1827C142.707 63.6599 141.404 75.8941 136.729 87.6728C132.053 99.4514 124.539 109.343 115.589 115.558C109.444 119.82 103.132 122 97.1873 122ZM77.0158 65.1892L77.45 65.3518C67.9654 89.2671 73.3422 113.638 89.4393 119.69C91.9107 120.634 94.5156 121.057 97.1539 121.057C111.681 121.057 127.812 107.553 135.861 87.3474C145.345 63.4321 139.968 39.0613 123.871 33.0093C116.123 30.0809 107.006 31.8054 98.2894 37.89C89.4727 44.0071 82.0921 53.7684 77.4834 65.3518L77.0158 65.1892Z" fill="url(#paint3_linear)"/>
<path d="M80.5897 66.5224C72.1737 87.7696 76.9828 109.375 91.3768 114.809C105.771 120.242 124.239 107.39 132.688 86.1753C141.138 64.9606 136.295 43.2905 121.901 37.8892C107.507 32.4879 89.039 45.3078 80.5897 66.5224Z" fill="url(#paint4_linear)"/>
<g clip-path="url(#clip0)">
<path d="M102.436 48.9639L100.959 23.0305C100.579 16.6628 94.8834 11.7396 88.3215 12.0978L25.2139 15.3686C18.6184 15.6929 13.5265 21.1831 13.9067 27.5508L15.8883 62.0737C16.2342 68.4407 21.9296 73.3638 28.5258 73.0064L79.8843 70.3486L93.6419 83.491C97.6789 87.3192 104.467 84.3822 104.17 78.9438L102.494 49.4289C102.464 49.2626 102.433 49.0963 102.436 48.9639Z" fill="#323A51"/>
<path d="M93.2025 83.149C91.5561 83.1143 89.9566 82.4842 88.7126 81.2655L75.1238 68.2592L23.9374 70.8875C20.6396 71.0496 17.4371 69.9552 14.9429 67.8157C12.4487 65.6763 10.9667 62.7301 10.7945 59.5135L8.81295 24.9906C8.64 21.8071 9.76908 18.7174 11.9818 16.3131C14.1945 13.9087 17.2787 12.4834 20.5765 12.3212L83.6841 9.05045C90.5547 8.69877 96.4524 13.7918 96.827 20.4244L98.3044 46.3247C98.3352 46.4909 98.3317 46.6565 98.3632 46.7896L100.039 76.3045C100.187 79.0238 98.6955 81.4102 96.1328 82.5154C95.1626 82.9586 94.163 83.1693 93.2025 83.149ZM75.4528 67.3056L89.3447 80.5833C91.0605 82.2095 93.4874 82.6582 95.7037 81.7114C97.8856 80.7638 99.1981 78.7379 99.042 76.3828L97.3664 46.8679C97.3692 46.7355 97.3377 46.6023 97.3069 46.4361L97.3076 46.403L95.8309 20.4696C95.4794 14.3675 90.0542 9.64877 83.6988 9.97821L20.6255 13.2496C17.5679 13.4169 14.7608 14.7156 12.6895 16.9242C10.6182 19.1328 9.59692 21.993 9.77477 24.9447L11.7556 59.5007C11.9334 62.4524 13.2831 65.1639 15.5743 67.1666C17.8655 69.1693 20.83 70.1593 23.8877 69.9921L75.4528 67.3056Z" fill="url(#paint5_linear)"/>
<path fill-rule="evenodd" clip-rule="evenodd" d="M52.2146 26.9186C51.252 26.9751 50.3517 27.3939 49.7118 28.0829C49.0719 28.7718 48.7448 29.6746 48.8024 30.5924C48.86 31.5103 49.2977 32.3682 50.0191 32.9773C50.7405 33.5864 51.6866 33.8968 52.6492 33.8404C53.6118 33.7839 54.5121 33.3651 55.152 32.6761C55.7919 31.9872 56.119 31.0844 56.0614 30.1666C56.0038 29.2487 55.5661 28.3908 54.8447 27.7817C54.1233 27.1726 53.1772 26.8622 52.2146 26.9186ZM46.9917 25.7862C48.2716 24.4083 50.0721 23.5707 51.9973 23.4578C53.9225 23.3448 55.8147 23.9657 57.2575 25.184C58.7003 26.4022 59.5756 28.1179 59.6909 29.9536C59.8061 31.7894 59.1519 33.5948 57.8721 34.9728C56.5922 36.3507 54.7917 37.1883 52.8665 37.3012C50.9413 37.4142 49.0491 36.7933 47.6063 35.5751C46.1635 34.3568 45.2882 32.6411 45.1729 30.8054C45.0577 28.9696 45.7119 27.1642 46.9917 25.7862ZM39.946 34.5856C39.4647 34.6139 39.0145 34.8233 38.6946 35.1678C38.3746 35.5123 38.2111 35.9636 38.2399 36.4226C38.2687 36.8815 38.4875 37.3104 38.8482 37.615C39.2089 37.9195 39.682 38.0748 40.1633 38.0465C40.6446 38.0183 41.0947 37.8089 41.4147 37.4644C41.7346 37.1199 41.8982 36.6686 41.8694 36.2096C41.8406 35.7507 41.6217 35.3218 41.261 35.0172C40.9003 34.7126 40.4273 34.5574 39.946 34.5856ZM35.9745 32.8711C36.9344 31.8377 38.2848 31.2095 39.7287 31.1248C41.1726 31.0401 42.5917 31.5058 43.6738 32.4194C44.7559 33.3331 45.4124 34.6199 45.4989 35.9967C45.5853 37.3735 45.0946 38.7276 44.1347 39.761C43.1749 40.7945 41.8245 41.4227 40.3806 41.5074C38.9367 41.5921 37.5176 41.1264 36.4354 40.2127C35.3533 39.2991 34.6968 38.0123 34.6104 36.6355C34.524 35.2587 35.0146 33.9046 35.9745 32.8711ZM65.3524 33.0951C64.8711 33.1233 64.421 33.3327 64.101 33.6772C63.781 34.0217 63.6175 34.4731 63.6463 34.932C63.6751 35.3909 63.8939 35.8199 64.2546 36.1244C64.6153 36.429 65.0884 36.5842 65.5697 36.556C66.051 36.5277 66.5011 36.3183 66.8211 35.9739C67.141 35.6294 67.3046 35.178 67.2758 34.7191C67.247 34.2601 67.0281 33.8312 66.6674 33.5266C66.3067 33.2221 65.8337 33.0669 65.3524 33.0951ZM61.3809 31.3806C62.3408 30.3471 63.6912 29.7189 65.1351 29.6342C66.579 29.5495 67.9981 30.0152 69.0802 30.9289C70.1623 31.8425 70.8188 33.1293 70.9053 34.5061C70.9917 35.883 70.501 37.237 69.5412 38.2705C68.5813 39.3039 67.2309 39.9321 65.787 40.0168C64.3431 40.1016 62.924 39.6359 61.8418 38.7222C60.7597 37.8085 60.1032 36.5218 60.0168 35.1449C59.9304 33.7681 60.4211 32.414 61.3809 31.3806ZM53.1923 42.4913C51.741 42.5765 50.349 43.0743 49.1958 43.9206C48.0427 44.7669 47.1813 45.9228 46.7228 47.2393C46.44 48.0499 46.3107 48.9281 46.368 49.8402L46.4766 51.5706L60.9946 50.7189L60.8859 48.9884C60.8287 48.0763 60.5908 47.2204 60.2088 46.4489C59.5889 45.1957 58.5889 44.1482 57.3383 43.4429C56.0877 42.7376 54.6437 42.4062 53.1923 42.4913ZM64.6241 50.5059L70.0683 50.1865L69.9597 48.4562C69.9597 48.4562 69.9597 48.4563 69.9597 48.4562C69.9144 47.737 69.6353 47.0494 69.1612 46.4891C68.687 45.9288 68.0413 45.5235 67.3139 45.3297C66.5864 45.1359 65.8133 45.1632 65.1021 45.4077C64.68 45.5528 64.2921 45.7702 63.9562 46.0468C64.2638 46.9102 64.4558 47.8254 64.5154 48.7755L64.6241 50.5059ZM62.2014 42.9672C61.3739 41.966 60.3558 41.1134 59.193 40.4576C57.3174 39.3998 55.1517 38.9028 52.975 39.0305C50.7984 39.1582 48.7107 39.9048 46.9813 41.174C45.9091 41.9609 45.005 42.9263 44.3089 44.017C43.7551 43.7401 43.1629 43.531 42.5459 43.3973C41.0727 43.0781 39.531 43.2048 38.1353 43.7596C36.7395 44.3145 35.559 45.27 34.7578 46.4932C33.9566 47.7165 33.5746 49.1468 33.6648 50.5853L33.8821 54.0463C33.9421 55.002 34.8032 55.7291 35.8055 55.6703L72.1003 53.5409C73.1026 53.4821 73.8664 52.6597 73.8064 51.704L73.5891 48.2431C73.4987 46.8047 72.9405 45.4294 71.9922 44.3088C71.0438 43.1881 69.7524 42.3777 68.2975 41.9901C66.8426 41.6025 65.2964 41.657 63.874 42.146C63.2782 42.3508 62.7165 42.6277 62.2014 42.9672ZM42.9522 47.2791C42.5843 47.0438 42.172 46.8733 41.7348 46.7786C40.9982 46.619 40.2274 46.6824 39.5295 46.9598C38.8317 47.2372 38.2414 47.715 37.8408 48.3266C37.4402 48.9382 37.2492 49.6533 37.2943 50.3725C37.2943 50.3726 37.2943 50.3725 37.2943 50.3725L37.4029 52.1029L42.8472 51.7835L42.7385 50.0531C42.6789 49.1031 42.7549 48.1721 42.9522 47.2791Z" fill="white"/>
</g>
<defs>
<linearGradient id="paint0_linear" x1="170.698" y1="101.971" x2="191.809" y2="101.971" gradientUnits="userSpaceOnUse">
<stop offset="0.00510364" stop-color="#00FFED" stop-opacity="0.3"/>
<stop offset="0.36" stop-color="#00FFEB" stop-opacity="0.4071"/>
<stop offset="0.5128" stop-color="#00FEE4" stop-opacity="0.4533"/>
<stop offset="0.6268" stop-color="#00FCD7" stop-opacity="0.4877"/>
<stop offset="0.7215" stop-color="#00F9C5" stop-opacity="0.5163"/>
<stop offset="0.8043" stop-color="#00F6AE" stop-opacity="0.5413"/>
<stop offset="0.8787" stop-color="#00F292" stop-opacity="0.5638"/>
<stop offset="0.9454" stop-color="#00EE71" stop-opacity="0.5839"/>
<stop offset="0.9988" stop-color="#00E950" stop-opacity="0.6"/>
</linearGradient>
<linearGradient id="paint1_linear" x1="170.537" y1="101.968" x2="191.966" y2="101.968" gradientUnits="userSpaceOnUse">
<stop offset="0.00121702" stop-color="#00FFED"/>
<stop offset="0.3575" stop-color="#00FFEB" stop-opacity="0.8571"/>
<stop offset="0.5109" stop-color="#00FEE4" stop-opacity="0.7956"/>
<stop offset="0.6253" stop-color="#00FCD7" stop-opacity="0.7497"/>
<stop offset="0.7205" stop-color="#00F9C5" stop-opacity="0.7116"/>
<stop offset="0.8036" stop-color="#00F6AE" stop-opacity="0.6783"/>
<stop offset="0.8783" stop-color="#00F292" stop-opacity="0.6483"/>
<stop offset="0.9452" stop-color="#00EE71" stop-opacity="0.6215"/>
<stop offset="0.9988" stop-color="#00E950" stop-opacity="0.6"/>
</linearGradient>
<linearGradient id="paint2_linear" x1="124.567" y1="45.4367" x2="89.4048" y2="109.289" gradientUnits="userSpaceOnUse">
<stop offset="0.00510364" stop-color="#176465"/>
<stop offset="0.1673" stop-color="#177165"/>
<stop offset="0.467" stop-color="#179366"/>
<stop offset="0.868" stop-color="#18CA67"/>
<stop offset="0.9988" stop-color="#18DD67"/>
</linearGradient>
<linearGradient id="paint3_linear" x1="71.806" y1="76.3467" x2="141.464" y2="76.3467" gradientUnits="userSpaceOnUse">
<stop offset="0.00121702" stop-color="#00FFED"/>
<stop offset="0.3575" stop-color="#00FFEB" stop-opacity="0.8571"/>
<stop offset="0.5109" stop-color="#00FEE4" stop-opacity="0.7956"/>
<stop offset="0.6253" stop-color="#00FCD7" stop-opacity="0.7497"/>
<stop offset="0.7205" stop-color="#00F9C5" stop-opacity="0.7116"/>
<stop offset="0.8036" stop-color="#00F6AE" stop-opacity="0.6783"/>
<stop offset="0.8783" stop-color="#00F292" stop-opacity="0.6483"/>
<stop offset="0.9452" stop-color="#00EE71" stop-opacity="0.6215"/>
<stop offset="0.9988" stop-color="#00E950" stop-opacity="0.6"/>
</linearGradient>
<linearGradient id="paint4_linear" x1="94.3356" y1="70.2609" x2="139.104" y2="93.5928" gradientUnits="userSpaceOnUse">
<stop stop-color="#161C2B"/>
<stop offset="0.4255" stop-color="#163739"/>
<stop offset="0.9934" stop-color="#16614F"/>
</linearGradient>
<linearGradient id="paint5_linear" x1="8.36935" y1="44.3859" x2="100.687" y2="46.3364" gradientUnits="userSpaceOnUse">
<stop offset="0.00121702" stop-color="#00FFED"/>
<stop offset="0.3575" stop-color="#00FFEB" stop-opacity="0.8571"/>
<stop offset="0.5109" stop-color="#00FEE4" stop-opacity="0.7956"/>
<stop offset="0.6253" stop-color="#00FCD7" stop-opacity="0.7497"/>
<stop offset="0.7205" stop-color="#00F9C5" stop-opacity="0.7116"/>
<stop offset="0.8036" stop-color="#00F6AE" stop-opacity="0.6783"/>
<stop offset="0.8783" stop-color="#00F292" stop-opacity="0.6483"/>
<stop offset="0.9452" stop-color="#00EE71" stop-opacity="0.6215"/>
<stop offset="0.9988" stop-color="#00E950" stop-opacity="0.6"/>
</linearGradient>
<clipPath id="clip0">
<rect width="104.057" height="83.1865" fill="white" transform="translate(1.75781) rotate(1.21041)"/>
</clipPath>
</defs>
</svg>
