<svg width="48" height="48" viewBox="0 0 48 48" fill="none" xmlns="http://www.w3.org/2000/svg">
<path d="M31.5 24V34.5C31.5 38.6421 28.1423 42 24 42C19.8577 42 16.5 38.6421 16.5 34.5V24H10.5V34.5C10.5 41.9558 16.5442 48 24 48C31.4558 48 37.5 41.9558 37.5 34.5V24H31.5Z" fill="#01DE81"/>
<path d="M24 9C23.1724 9 22.5 8.32763 22.5 7.5C22.5 6.67238 23.1724 6 24 6C24.8276 6 25.5 6.67238 25.5 7.5H28.5C28.5 5.54353 27.2438 3.89522 25.5 3.27534V0H22.5V3.27544C20.7562 3.89522 19.5 5.54353 19.5 7.5C19.5 9.98531 21.5147 12 24 12C24.8276 12 25.5 12.6724 25.5 13.5C25.5 14.3276 24.8276 15 24 15C23.1724 15 22.5 14.3276 22.5 13.5H19.5C19.5 15.4565 20.7562 17.1048 22.5 17.7247V21H25.5V17.7246C27.2438 17.1048 28.5 15.4565 28.5 13.4999C28.5 11.0147 26.4853 9 24 9Z" fill="#01DE81"/>
<path d="M31.5 18H37.5V24H31.5V18Z" fill="#06AA65"/>
<path d="M10.5 18H16.5V24H10.5V18Z" fill="#06AA65"/>
<path d="M10.5 24H16.5V27H10.5V24Z" fill="#06AA65"/>
<path d="M31.5 24H37.5V27H31.5V24Z" fill="#06AA65"/>
<path d="M13.5 6H16.5V15H13.5V6Z" fill="#06AA65"/>
<path d="M31.5 6H34.5V15H31.5V6Z" fill="#06AA65"/>
<path d="M37.5 0H40.5V9H37.5V0Z" fill="#06AA65"/>
<path d="M7.5 0H10.5V9H7.5V0Z" fill="#06AA65"/>
</svg>
