<svg width="14" height="14" viewBox="0 0 14 14" fill="none" xmlns="http://www.w3.org/2000/svg">
<path d="M13 7.54054C12.8949 8.67776 12.4681 9.76152 11.7696 10.665C11.071 11.5685 10.1296 12.2544 9.05544 12.6424C7.9813 13.0304 6.81888 13.1044 5.70419 12.8559C4.5895 12.6073 3.56866 12.0465 2.7611 11.2389C1.95354 10.4313 1.39267 9.4105 1.14412 8.29581C0.895572 7.18112 0.969623 6.0187 1.35761 4.94457C1.74559 3.87043 2.43147 2.929 3.33497 2.23045C4.23848 1.53189 5.32224 1.10509 6.45946 1C5.79366 1.90076 5.47327 3.01056 5.55656 4.12758C5.63986 5.24459 6.12132 6.2946 6.91336 7.08664C7.7054 7.87869 8.75541 8.36014 9.87242 8.44344C10.9894 8.52673 12.0992 8.20635 13 7.54054V7.54054Z" stroke="#777E91" strokeWidth="1.48729" strokeLinecap="round" strokeLinejoin="round"/>
</svg>
