<svg width="20" height="20" viewBox="0 0 20 20" fill="none" xmlns="http://www.w3.org/2000/svg">
<path fill-rule="evenodd" clip-rule="evenodd" d="M8.33332 15V17.5C8.33332 17.9602 8.70642 18.3333 9.16666 18.3333H10.8333C11.2936 18.3333 11.6667 17.9602 11.6667 17.5V15H13.3333V17.5C13.3333 18.8807 12.214 20 10.8333 20H9.16666C7.78594 20 6.66666 18.8807 6.66666 17.5V15H8.33332Z" fill="#777E91"/>
<path fill-rule="evenodd" clip-rule="evenodd" d="M12.5 11.0711L13.1242 10.5707C14.2707 9.65168 15 8.24491 15 6.66667C15 3.90524 12.7614 1.66667 10 1.66667C7.23859 1.66667 5.00001 3.90524 5.00001 6.66667C5.00001 8.24491 5.72931 9.65168 6.87579 10.5707L7.50001 11.0711V13.3333C7.50001 13.7936 7.87311 14.1667 8.33334 14.1667H11.6667C12.1269 14.1667 12.5 13.7936 12.5 13.3333V11.0711ZM14.1667 11.8711V13.3333C14.1667 14.714 13.0474 15.8333 11.6667 15.8333H8.33334C6.95263 15.8333 5.83334 14.714 5.83334 13.3333V11.8711C4.30924 10.6494 3.33334 8.77199 3.33334 6.66667C3.33334 2.98477 6.31811 0 10 0C13.6819 0 16.6667 2.98477 16.6667 6.66667C16.6667 8.77199 15.6908 10.6494 14.1667 11.8711Z" fill="#777E91"/>
<path d="M8.92259 6.91083C8.59715 6.58539 8.06951 6.58539 7.74408 6.91083C7.41864 7.23626 7.41864 7.7639 7.74408 8.08934L9.16667 9.51193V14.1667H10.8333V9.51193L12.2559 8.08934C12.5814 7.7639 12.5814 7.23626 12.2559 6.91083C11.9305 6.58539 11.4028 6.58539 11.0774 6.91083L10 7.98824L8.92259 6.91083Z" fill="#777E91"/>
</svg>
