<svg width="18" height="18" viewBox="0 0 18 18" fill="none" xmlns="http://www.w3.org/2000/svg">
<path fill-rule="evenodd" clip-rule="evenodd" d="M0 0V18H18V0H0ZM13.955 6.4586C13.9599 6.5683 13.9623 6.67859 13.9623 6.78932C13.9623 10.1679 11.3908 14.0635 6.68825 14.0635C5.24445 14.0635 3.90058 13.6404 2.76919 12.9148C2.96921 12.9386 3.17267 12.9507 3.37909 12.9507C4.57691 12.9507 5.67926 12.542 6.55429 11.8561C5.43553 11.8356 4.4913 11.0964 4.16591 10.0807C4.3221 10.1106 4.48228 10.1267 4.64701 10.1267C4.88018 10.1267 5.10607 10.0953 5.3206 10.037C4.15108 9.80201 3.26975 8.76877 3.26975 7.53009C3.26975 7.51929 3.26975 7.50857 3.26999 7.49789C3.61464 7.68936 4.00882 7.8044 4.42796 7.8177C3.7419 7.35923 3.29068 6.57665 3.29068 5.68974C3.29068 5.22115 3.41676 4.78203 3.63687 4.40434C4.89778 5.9512 6.78165 6.96897 8.90644 7.0757C8.8628 6.8885 8.8401 6.69335 8.8401 6.49302C8.8401 5.08118 9.9849 3.9365 11.3967 3.9365C12.1321 3.9365 12.7966 4.24693 13.2629 4.74377C13.8452 4.62924 14.3924 4.41637 14.8864 4.12342C14.6956 4.72047 14.2902 5.22139 13.7623 5.53787C14.2795 5.47604 14.7722 5.33856 15.2307 5.13522C14.888 5.64789 14.4546 6.0982 13.955 6.4586Z" fill="#222222" fill-opacity="0.7"/>
</svg>
