<svg width="20" height="20" viewBox="0 0 20 20" fill="none" xmlns="http://www.w3.org/2000/svg">
<path fill-rule="evenodd" clip-rule="evenodd" d="M2.65064 11.6675C1.27254 11.6714 0.382938 13.2413 1.23194 14.4307C2.44779 16.134 4.65258 17.501 8.33343 17.501C14.0377 17.501 18.6165 12.8524 17.9755 7.36023L18.9146 5.48206C19.5658 4.17954 18.4342 2.69783 17.0062 2.98343L15.7655 3.23155C15.4366 3.058 15.0962 2.92703 14.8053 2.83215C14.2383 2.64724 13.552 2.50098 12.9168 2.50098C11.7757 2.50098 10.7908 2.79374 10.0082 3.38092C9.23443 3.96151 8.79859 4.72452 8.55943 5.42518C8.44918 5.74815 8.37576 6.07209 8.32865 6.383C7.88593 6.24367 7.4345 6.05619 6.99255 5.82727C5.98989 5.30791 5.17909 4.64949 4.72172 4.07223C3.95436 3.10373 2.32816 3.17553 1.75751 4.43448C0.953227 6.20887 1.17385 8.31219 1.8968 10.0117C2.13912 10.5813 2.45433 11.1444 2.83942 11.6662C2.77349 11.667 2.71043 11.6673 2.65064 11.6675ZM8.33334 15.8343C5.11389 15.8343 3.44917 14.6682 2.58838 13.4624C2.5497 13.4082 2.5887 13.3343 2.65526 13.3341C3.53096 13.3316 5.32846 13.2902 6.51396 12.5964C6.57527 12.5605 6.56178 12.4701 6.49444 12.4475C3.73097 11.5183 2.16011 7.58313 3.27543 5.12256C3.301 5.06614 3.37684 5.0587 3.41531 5.10726C4.68937 6.71529 7.47504 8.29031 9.89868 8.3334C9.95126 8.33431 9.99101 8.28656 9.98301 8.23458C9.88534 7.60142 9.51243 4.16764 12.9167 4.16764C13.7296 4.16764 14.9391 4.56417 15.3846 4.97039C15.4052 4.98917 15.4331 4.99769 15.4604 4.99223L17.3329 4.61773C17.4009 4.60413 17.4548 4.67468 17.4238 4.73671L16.2624 7.05947C16.2543 7.07559 16.2518 7.0941 16.2549 7.11186C17.0683 11.6843 13.3233 15.8343 8.33334 15.8343Z" fill="#1C9CEA"/>
</svg>
